<svg width="1440" height="1960" viewBox="0 0 1440 1960" fill="none" xmlns="http://www.w3.org/2000/svg">
<g clip-path="url(#clip0_220_1157)">
<rect width="1440" height="1960" fill="#0C203F"/>
<g opacity="0.05">
<mask id="mask0_220_1157" style="mask-type:luminance" maskUnits="userSpaceOnUse" x="-51" y="328" width="1559" height="897">
<path d="M1507.37 448.534C1296.71 366.343 1072.61 288.499 839.802 365.095C636.035 432.138 575.743 604.161 515.346 776.499C435.806 1003.46 356.069 1230.95 -47.9967 1224.49L-50.049 1219.54C351.955 1226.74 431.113 1000.97 510.055 775.718C570.922 602.042 631.686 428.681 838.507 360.632C1071.4 284.008 1294.66 360.177 1504.63 441.92L1507.37 448.533L1507.37 448.534Z" fill="white"/>
</mask>
<g mask="url(#mask0_220_1157)">
<path d="M1371.97 121.852L-229.842 785.756L13.5229 1372.92L1615.33 709.02L1371.97 121.852Z" fill="url(#paint0_linear_220_1157)"/>
</g>
<mask id="mask1_220_1157" style="mask-type:luminance" maskUnits="userSpaceOnUse" x="-70" y="592" width="1649" height="597">
<path d="M1578.36 619.821C1479.81 776.885 1365.09 796.102 1239.66 766.36C1175.78 751.218 1109.29 723.324 1040.75 694.568C892.446 632.349 734.428 566.05 574.727 617.707C442.943 660.331 408.574 776.598 374.264 892.711C324.405 1061.46 274.554 1229.89 -66.4411 1180L-69.5261 1172.55C269.113 1223.57 318.208 1057.49 367.373 891.12C402.23 773.156 437.142 655.037 572.675 611.203C735.042 558.683 894.36 625.518 1043.87 688.254C1112.16 716.9 1178.41 744.694 1241.69 759.697C1365.03 788.93 1477.88 769.372 1575.03 611.79L1578.36 619.821Z" fill="white"/>
</mask>
<g mask="url(#mask1_220_1157)">
<path d="M1423.51 246.215L-178.297 910.119L17.6595 1382.91L1619.47 719.002L1423.51 246.215Z" fill="url(#paint1_linear_220_1157)"/>
</g>
<mask id="mask2_220_1157" style="mask-type:luminance" maskUnits="userSpaceOnUse" x="-75" y="588" width="1647" height="591">
<path d="M1571.54 603.372C1472.15 761.953 1354.85 780.607 1226.49 751.124C1163.97 736.759 1098.91 710.896 1032.01 684.302C884.166 625.534 727.272 563.156 570.597 614.947C441.109 657.746 405.664 772.17 370.301 886.342C318.586 1053.3 266.967 1219.71 -70.9212 1169.18L-74.0243 1161.69C261.573 1213.34 312.444 1049.27 363.437 884.657C399.355 768.693 435.363 652.466 568.524 608.449C727.8 555.798 885.979 618.69 1035.03 677.947C1101.63 704.422 1166.4 730.173 1228.45 744.42C1354.75 773.433 1470.2 754.419 1568.2 595.277L1571.55 603.369L1571.54 603.372Z" fill="white"/>
</mask>
<g mask="url(#mask2_220_1157)">
<path d="M1422.34 243.391L-179.467 907.296L11.2546 1367.45L1613.06 703.548L1422.34 243.391Z" fill="url(#paint2_linear_220_1157)"/>
</g>
<mask id="mask3_220_1157" style="mask-type:luminance" maskUnits="userSpaceOnUse" x="-79" y="578" width="1644" height="590">
<path d="M1564.71 586.884C1464.34 747.207 1344.25 765.273 1212.77 736.037C1151.75 722.47 1088.32 698.628 1023.26 674.184C875.936 618.808 720.203 560.28 566.558 612.177C439.372 655.126 402.869 767.7 366.47 879.934C312.893 1045.15 259.508 1209.62 -75.3766 1158.44L-78.4894 1150.93C254.139 1203.21 306.794 1041.06 359.626 878.152C396.586 764.182 433.656 649.861 564.423 605.704C720.619 552.948 877.611 611.96 1026.14 667.778C1090.9 692.106 1154.04 715.847 1214.68 729.324C1344.14 758.111 1462.39 739.7 1561.35 578.784L1564.71 586.885L1564.71 586.884Z" fill="white"/>
</mask>
<g mask="url(#mask3_220_1157)">
<path d="M1421.17 240.562L-180.64 904.466L4.89404 1352.11L1606.7 688.201L1421.17 240.562Z" fill="url(#paint3_linear_220_1157)"/>
</g>
<mask id="mask4_220_1157" style="mask-type:luminance" maskUnits="userSpaceOnUse" x="-83" y="562" width="1641" height="596">
<path d="M1557.87 570.382C1456.39 732.678 1333.27 750.089 1198.46 721.096C1139.06 708.328 1077.47 686.5 1014.48 664.177C867.714 612.173 713.208 557.415 562.589 609.381C437.723 652.453 400.173 763.166 362.77 873.459C307.308 1036.97 252.14 1199.61 -79.7885 1147.79L-82.9157 1140.25C246.831 1193.16 301.272 1032.84 355.948 871.61C393.931 759.62 432.056 647.202 560.407 602.931C713.537 550.098 869.295 605.3 1017.24 657.728C1079.99 679.965 1141.34 701.706 1200.32 714.386C1333.13 742.937 1454.46 725.23 1554.52 562.305L1557.87 570.382Z" fill="white"/>
</mask>
<g mask="url(#mask4_220_1157)">
<path d="M1420 237.729L-181.814 901.634L-1.41023 1336.9L1600.4 672.992L1420 237.729Z" fill="url(#paint4_linear_220_1157)"/>
</g>
<mask id="mask5_220_1157" style="mask-type:luminance" maskUnits="userSpaceOnUse" x="-88" y="545" width="1640" height="603">
<path d="M1551.04 553.901C1448.31 718.446 1321.86 735.089 1183.47 706.341C1125.95 694.399 1066.42 674.559 1005.7 654.315C859.542 605.618 706.318 554.561 558.694 606.581C436.174 649.746 397.604 758.585 359.212 866.955C301.874 1028.8 244.843 1189.59 -84.1926 1137.16L-87.303 1129.65C239.655 1183.22 295.865 1024.62 352.418 865.006C391.389 754.998 430.543 644.511 556.461 600.153C706.553 547.256 860.999 598.724 1008.31 647.813C1068.81 667.974 1128.13 687.736 1185.3 699.607C1321.71 727.949 1446.37 711.015 1547.69 545.804L1551.04 553.899L1551.04 553.901Z" fill="white"/>
</mask>
<g mask="url(#mask5_220_1157)">
<path d="M1418.82 234.897L-182.988 898.802L-7.63049 1321.89L1594.18 657.983L1418.82 234.897Z" fill="url(#paint5_linear_220_1157)"/>
</g>
<mask id="mask6_220_1157" style="mask-type:luminance" maskUnits="userSpaceOnUse" x="-92" y="529" width="1637" height="609">
<path d="M1544.21 537.425C1440.06 704.512 1309.97 720.259 1167.77 691.75C1112.26 680.626 1055.08 662.758 996.875 644.579C851.404 599.146 699.513 551.712 554.87 603.766C434.705 646.995 395.155 753.955 355.795 860.4C296.555 1020.62 237.672 1179.67 -88.5565 1126.63L-91.6873 1119.07C232.542 1173.27 290.592 1016.38 349.019 858.365C388.967 750.332 429.109 641.779 552.588 597.358C699.664 544.422 852.753 592.24 999.382 638.035C1057.44 656.168 1114.49 673.983 1169.53 685.015C1309.8 713.133 1438.11 697.078 1540.84 529.281L1544.22 537.422L1544.21 537.425Z" fill="white"/>
</mask>
<g mask="url(#mask6_220_1157)">
<path d="M1417.65 232.059L-184.164 895.964L-13.7681 1307.08L1588.04 643.175L1417.65 232.059Z" fill="url(#paint6_linear_220_1157)"/>
</g>
<mask id="mask7_220_1157" style="mask-type:luminance" maskUnits="userSpaceOnUse" x="-97" y="512" width="1635" height="615">
<path d="M1537.39 520.975C1431.63 690.933 1297.53 705.614 1151.19 677.344C1098.12 667.085 1043.5 651.159 988.035 634.981C843.298 592.768 692.806 548.87 551.11 600.941C433.299 644.221 392.794 749.278 352.504 853.796C291.352 1012.43 230.609 1169.84 -92.8921 1116.18L-96.0266 1108.61C225.548 1163.42 285.469 1008.16 345.789 851.678C386.672 745.611 427.778 639.002 548.795 594.547C692.839 541.608 844.527 585.853 990.401 628.407C1045.69 644.528 1100.14 660.41 1152.91 670.607C1297.33 698.509 1429.67 683.503 1534 512.793L1537.39 520.975Z" fill="white"/>
</mask>
<g mask="url(#mask7_220_1157)">
<path d="M1416.47 229.215L-185.343 893.12L-19.8067 1292.51L1582 628.606L1416.47 229.215Z" fill="url(#paint7_linear_220_1157)"/>
</g>
<mask id="mask8_220_1157" style="mask-type:luminance" maskUnits="userSpaceOnUse" x="-101" y="496" width="1632" height="621">
<path d="M1530.58 504.532C1422.99 677.747 1284.44 691.164 1133.64 663.115C1083.23 653.737 1031.54 639.717 979.197 625.523C835.234 586.474 686.181 546.046 547.433 598.106C432.002 641.395 390.585 744.548 349.386 847.154C286.313 1004.25 223.715 1160.11 -97.1851 1105.83L-100.338 1098.22C218.678 1153.65 280.465 999.92 342.692 844.935C384.489 740.84 426.507 636.192 545.058 591.736C686.114 538.809 836.342 579.555 981.427 618.909C1033.65 633.076 1085.21 647.056 1135.3 656.375C1284.23 684.08 1421.02 670.335 1527.17 496.319L1530.57 504.534L1530.58 504.532Z" fill="white"/>
</mask>
<g mask="url(#mask8_220_1157)">
<path d="M1415.29 226.371L-186.522 890.276L-25.7375 1278.2L1576.07 614.296L1415.29 226.371Z" fill="url(#paint8_linear_220_1157)"/>
</g>
<mask id="mask9_220_1157" style="mask-type:luminance" maskUnits="userSpaceOnUse" x="-105" y="479" width="1629" height="628">
<path d="M1523.75 488.062C1414.07 664.996 1270.57 676.913 1114.91 649.078C1067.74 640.641 1019.29 628.48 970.341 616.19C827.222 580.265 679.671 543.222 543.828 595.254C430.8 638.527 388.491 739.761 346.422 840.452C281.407 996.061 216.872 1150.39 -101.461 1095.51L-104.604 1087.93C211.958 1143.98 275.606 991.688 339.753 838.165C382.432 736.023 425.335 633.332 541.4 588.9C679.487 536.013 828.197 573.346 972.443 609.548C1021.14 621.78 1069.34 633.879 1116.53 642.314C1270.36 669.82 1412.14 657.628 1520.35 479.85L1523.75 488.062Z" fill="white"/>
</mask>
<g mask="url(#mask9_220_1157)">
<path d="M1414.11 223.518L-187.704 887.423L-31.5553 1264.16L1570.25 600.26L1414.11 223.518Z" fill="url(#paint9_linear_220_1157)"/>
</g>
<mask id="mask10_220_1157" style="mask-type:luminance" maskUnits="userSpaceOnUse" x="-109" y="463" width="1626" height="634">
<path d="M1516.9 471.542C1404.85 652.734 1255.76 662.838 1094.75 635.201C1051.07 627.707 1006.46 617.4 961.481 607.007C819.248 574.149 673.236 540.418 540.294 592.387C429.665 635.613 386.519 734.923 343.609 833.712C276.653 987.849 210.159 1140.75 -105.704 1085.27L-108.852 1077.68C205.324 1134.33 270.912 983.438 336.993 831.32C380.513 731.136 424.258 630.429 537.825 586.054C672.95 533.22 820.108 567.216 963.444 600.333C1008.25 610.686 1052.7 620.954 1096.31 628.441C1255.54 655.773 1402.94 645.424 1513.51 463.358L1516.9 471.543L1516.9 471.542Z" fill="white"/>
</mask>
<g mask="url(#mask10_220_1157)">
<path d="M1412.92 220.657L-188.89 884.561L-37.2438 1250.44L1564.57 586.535L1412.92 220.657Z" fill="url(#paint10_linear_220_1157)"/>
</g>
<mask id="mask11_220_1157" style="mask-type:luminance" maskUnits="userSpaceOnUse" x="-114" y="446" width="1625" height="642">
<path d="M1510.13 455.206C1368.06 685.675 1163.79 642.567 952.611 597.96C811.322 568.115 666.89 537.608 536.834 589.507C428.616 632.665 384.683 730.029 340.964 826.915C272.053 979.656 203.606 1131.21 -109.902 1075.14L-113.069 1067.49C198.803 1124.75 266.36 975.177 334.381 824.428C378.721 726.189 423.265 627.481 534.313 583.194C666.522 530.441 812.057 561.186 954.439 591.257C1163.82 635.488 1366.31 678.158 1506.62 446.727L1510.13 455.206Z" fill="white"/>
</mask>
<g mask="url(#mask11_220_1157)">
<path d="M1411.73 217.79L-190.079 881.694L-30.9861 1265.54L1570.82 601.634L1411.73 217.79Z" fill="url(#paint11_linear_220_1157)"/>
</g>
<mask id="mask12_220_1157" style="mask-type:luminance" maskUnits="userSpaceOnUse" x="-118" y="430" width="1622" height="648">
<path d="M1503.29 438.704C1361.65 669.065 1155.5 629.628 943.748 589.05C803.444 562.167 660.65 534.801 533.444 586.604C427.661 629.657 382.972 725.076 338.491 820.067C267.602 971.439 197.185 1121.77 -114.064 1065.1L-117.244 1057.42C192.442 1115.28 261.985 966.918 331.958 817.492C377.051 721.206 422.349 624.487 530.871 580.316C660.179 527.66 804.068 555.233 945.445 582.327C1155.47 622.576 1359.91 661.646 1499.8 430.262L1503.3 438.703L1503.29 438.704Z" fill="white"/>
</mask>
<g mask="url(#mask12_220_1157)">
<path d="M1410.54 214.911L-191.272 878.816L-37.7993 1249.1L1564.01 585.196L1410.54 214.911Z" fill="url(#paint12_linear_220_1157)"/>
</g>
<mask id="mask13_220_1157" style="mask-type:luminance" maskUnits="userSpaceOnUse" x="-122" y="413" width="1619" height="655">
<path d="M1496.45 422.202C1355.21 652.571 1147.17 616.848 934.882 580.292C795.609 556.314 654.489 532.017 530.123 583.693C426.797 626.604 381.402 720.071 336.191 813.172C263.325 963.217 190.858 1112.34 -118.204 1055.11L-121.385 1047.43C186.217 1105.9 257.756 958.652 329.699 810.497C375.509 716.156 421.511 621.447 527.523 577.42C653.938 524.891 796.124 549.374 936.445 573.535C1147.08 609.801 1353.47 645.26 1492.98 413.809L1496.46 422.201L1496.45 422.202Z" fill="white"/>
</mask>
<g mask="url(#mask13_220_1157)">
<path d="M1409.26 211.828L-192.55 875.733L-44.5796 1232.74L1557.23 568.837L1409.26 211.828Z" fill="url(#paint13_linear_220_1157)"/>
</g>
<mask id="mask14_220_1157" style="mask-type:luminance" maskUnits="userSpaceOnUse" x="-126" y="397" width="1616" height="661">
<path d="M1489.62 405.715C1348.74 636.202 1138.81 604.225 926.022 571.678C787.841 550.542 648.431 529.227 526.879 580.766C425.995 623.515 379.95 715.007 334.065 806.211C259.212 954.976 184.664 1102.99 -122.318 1045.18L-125.5 1037.5C180.102 1096.56 253.692 950.37 327.616 803.461C374.117 711.053 420.757 618.356 524.223 574.51C647.788 522.119 788.237 543.594 927.451 564.885C1138.64 597.182 1346.98 628.966 1486.15 397.336L1489.62 405.714L1489.62 405.715Z" fill="white"/>
</mask>
<g mask="url(#mask14_220_1157)">
<path d="M1407.38 207.29L-194.43 871.195L-51.3178 1216.48L1550.49 552.579L1407.38 207.29Z" fill="url(#paint14_linear_220_1157)"/>
</g>
<mask id="mask15_220_1157" style="mask-type:luminance" maskUnits="userSpaceOnUse" x="-130" y="380" width="1613" height="669">
<path d="M1482.8 389.257C1342.24 619.95 1130.43 591.73 917.181 563.196C780.137 544.853 642.487 526.438 523.71 577.827C425.285 620.385 378.664 709.895 332.137 799.213C255.281 946.747 178.639 1093.76 -126.382 1035.38L-129.589 1027.64C174.102 1087.29 249.814 942.085 325.731 796.359C372.853 705.891 420.083 615.231 520.998 571.597C641.716 519.366 780.398 537.916 918.474 556.398C1130.18 584.727 1340.46 612.755 1479.31 380.834L1482.8 389.258L1482.8 389.257Z" fill="white"/>
</mask>
<g mask="url(#mask15_220_1157)">
<path d="M1405.52 202.793L-196.294 866.697L-58.0175 1200.32L1543.79 536.415L1405.52 202.793Z" fill="url(#paint15_linear_220_1157)"/>
</g>
<mask id="mask16_220_1157" style="mask-type:luminance" maskUnits="userSpaceOnUse" x="-134" y="364" width="1610" height="676">
<path d="M1475.99 372.819C1335.72 603.846 1122.02 579.417 908.346 554.868C772.478 539.265 636.621 523.654 520.606 574.87C424.652 617.202 377.482 704.729 330.378 792.151C251.527 938.493 172.767 1084.61 -130.413 1025.65L-133.625 1017.9C168.282 1078.14 246.127 933.797 324.037 789.213C371.744 700.675 419.506 612.046 517.856 568.659C635.781 516.607 772.639 532.325 909.52 548.044C1121.71 572.421 1333.93 596.668 1472.48 364.347L1475.99 372.818L1475.99 372.819Z" fill="white"/>
</mask>
<g mask="url(#mask16_220_1157)">
<path d="M1403.67 198.336L-198.142 862.241L-64.6701 1184.27L1537.14 520.364L1403.67 198.336Z" fill="url(#paint16_linear_220_1157)"/>
</g>
<mask id="mask17_220_1157" style="mask-type:luminance" maskUnits="userSpaceOnUse" x="-138" y="347" width="1608" height="683">
<path d="M1469.17 356.381C1329.18 587.843 1113.58 567.232 899.533 546.671C764.89 533.743 630.868 520.871 517.58 571.884C424.095 613.96 376.457 699.485 328.815 785.026C247.942 930.227 166.995 1075.5 -134.425 1015.98L-137.635 1008.23C162.616 1069.06 242.609 925.493 322.524 782.008C370.767 695.397 418.994 608.809 514.773 565.697C629.911 513.845 764.926 526.814 900.571 539.839C1113.2 560.265 1327.37 580.694 1465.65 347.872L1469.17 356.381Z" fill="white"/>
</mask>
<g mask="url(#mask17_220_1157)">
<path d="M1401.83 193.905L-199.978 857.81L-69.1796 1173.39L1532.63 509.483L1401.83 193.905Z" fill="url(#paint17_linear_220_1157)"/>
</g>
<mask id="mask18_220_1157" style="mask-type:luminance" maskUnits="userSpaceOnUse" x="-142" y="331" width="1605" height="690">
<path d="M1462.37 339.963C1322.61 571.96 1105.13 555.216 890.756 538.633C757.377 528.312 625.207 518.094 514.63 568.891C423.644 610.678 375.599 694.196 327.474 777.859C244.584 921.956 161.385 1066.46 -138.395 1006.39L-141.608 998.64C157.056 1060.04 239.28 917.175 321.209 774.753C369.918 690.073 418.55 605.538 511.77 562.726C624.159 511.089 757.29 521.386 891.642 531.779C1104.67 548.261 1320.79 564.853 1458.83 331.427L1462.37 339.962L1462.37 339.963Z" fill="white"/>
</mask>
<g mask="url(#mask18_220_1157)">
<path d="M1400.01 189.516L-201.797 853.421L-73.2 1163.69L1528.61 499.784L1400.01 189.516Z" fill="url(#paint18_linear_220_1157)"/>
</g>
<mask id="mask19_220_1157" style="mask-type:luminance" maskUnits="userSpaceOnUse" x="-146" y="315" width="1602" height="697">
<path d="M1455.54 323.476C1316.01 556.135 1096.65 543.352 881.998 530.728C749.92 522.964 619.648 515.305 511.747 565.88C423.247 607.35 374.867 688.844 326.325 770.62C241.409 913.663 155.939 1057.53 -142.328 996.902L-145.559 989.107C151.653 1051.09 236.167 908.847 320.112 767.43C369.24 684.675 418.192 602.2 508.834 559.734C618.494 508.334 749.717 516.046 882.743 523.87C1096.11 536.415 1314.19 549.129 1452.02 315.002L1455.54 323.476Z" fill="white"/>
</mask>
<g mask="url(#mask19_220_1157)">
<path d="M1398.21 185.164L-203.601 849.069L-77.1562 1154.14L1524.65 490.239L1398.21 185.164Z" fill="url(#paint19_linear_220_1157)"/>
</g>
<mask id="mask20_220_1157" style="mask-type:luminance" maskUnits="userSpaceOnUse" x="-84" y="459" width="1599" height="686">
<path d="M1514.95 466.832C1288 1009.06 1035.83 927.032 750.054 833.982C581.247 779.018 400.607 720.202 206.836 785.782C47.6064 839.673 -4.27225 963.382 -56.2399 1087.31C-64.3404 1106.62 -72.4453 1125.93 -80.9467 1145L-83.8037 1138.1C-76.1475 1120.77 -68.7949 1103.25 -61.4463 1085.73C-8.9685 960.594 43.4135 835.674 205.252 780.903C400.953 714.672 582.55 773.801 752.258 829.057C1036.17 921.501 1286.57 1002.92 1512.03 459.775L1514.96 466.831L1514.95 466.832Z" fill="white"/>
</mask>
<g mask="url(#mask20_220_1157)">
<path d="M1429.68 261.101L-172.127 925.006L71.662 1513.2L1673.47 849.294L1429.68 261.101Z" fill="url(#paint20_linear_220_1157)"/>
</g>
<mask id="mask21_220_1157" style="mask-type:luminance" maskUnits="userSpaceOnUse" x="-46" y="129" width="1424" height="1107">
<path d="M1377.12 134.281C1308.03 141.455 1237.8 156.136 1166.37 180.526C897.759 272.241 807.63 475.206 717.345 678.546C598.438 946.329 479.242 1214.75 -43.6485 1235.56L-45.9602 1229.98C474.212 1210.16 592.538 943.781 710.54 678.013C801.532 473.094 892.36 268.55 1165 175.45C1236.2 151.14 1306.15 136.377 1374.93 129.01L1377.12 134.281Z" fill="white"/>
</mask>
<g mask="url(#mask21_220_1157)">
<path d="M1353.55 77.402L-248.466 741.39L25.6498 1402.75L1627.66 738.764L1353.55 77.402Z" fill="url(#paint21_linear_220_1157)"/>
</g>
</g>
</g>
<defs>
<linearGradient id="paint0_linear_220_1157" x1="526.534" y1="391.316" x2="1540.67" y2="2549.92" gradientUnits="userSpaceOnUse">
<stop stop-color="#808080"/>
<stop offset="1" stop-color="white"/>
</linearGradient>
<linearGradient id="paint1_linear_220_1157" x1="770.268" y1="0.564605" x2="610.9" y2="1916.05" gradientUnits="userSpaceOnUse">
<stop stop-color="#CCCCCC"/>
<stop offset="1" stop-color="white"/>
</linearGradient>
<linearGradient id="paint2_linear_220_1157" x1="756.122" y1="8.87829" x2="622.997" y2="1881.19" gradientUnits="userSpaceOnUse">
<stop stop-color="#CCCCCC"/>
<stop offset="1" stop-color="white"/>
</linearGradient>
<linearGradient id="paint3_linear_220_1157" x1="795.929" y1="-3.51981" x2="623.961" y2="1347" gradientUnits="userSpaceOnUse">
<stop stop-color="#CCCCCC"/>
<stop offset="1" stop-color="white"/>
</linearGradient>
<linearGradient id="paint4_linear_220_1157" x1="791.316" y1="-4.10749" x2="619.348" y2="1346.42" gradientUnits="userSpaceOnUse">
<stop stop-color="#CCCCCC"/>
<stop offset="1" stop-color="white"/>
</linearGradient>
<linearGradient id="paint5_linear_220_1157" x1="786.755" y1="-4.68874" x2="614.788" y2="1345.83" gradientUnits="userSpaceOnUse">
<stop stop-color="#CCCCCC"/>
<stop offset="1" stop-color="white"/>
</linearGradient>
<linearGradient id="paint6_linear_220_1157" x1="782.243" y1="-5.26295" x2="610.277" y2="1345.25" gradientUnits="userSpaceOnUse">
<stop stop-color="#CCCCCC"/>
<stop offset="1" stop-color="white"/>
</linearGradient>
<linearGradient id="paint7_linear_220_1157" x1="777.791" y1="-5.82953" x2="605.825" y2="1344.68" gradientUnits="userSpaceOnUse">
<stop stop-color="#CCCCCC"/>
<stop offset="1" stop-color="white"/>
</linearGradient>
<linearGradient id="paint8_linear_220_1157" x1="773.404" y1="-6.38885" x2="601.439" y2="1344.12" gradientUnits="userSpaceOnUse">
<stop stop-color="#CCCCCC"/>
<stop offset="1" stop-color="white"/>
</linearGradient>
<linearGradient id="paint9_linear_220_1157" x1="769.087" y1="-6.93922" x2="597.122" y2="1343.57" gradientUnits="userSpaceOnUse">
<stop stop-color="#CCCCCC"/>
<stop offset="1" stop-color="white"/>
</linearGradient>
<linearGradient id="paint10_linear_220_1157" x1="764.845" y1="-7.47888" x2="592.878" y2="1343.04" gradientUnits="userSpaceOnUse">
<stop stop-color="#CCCCCC"/>
<stop offset="1" stop-color="white"/>
</linearGradient>
<linearGradient id="paint11_linear_220_1157" x1="767.973" y1="-7.08122" x2="596.007" y2="1343.43" gradientUnits="userSpaceOnUse">
<stop stop-color="#CCCCCC"/>
<stop offset="1" stop-color="white"/>
</linearGradient>
<linearGradient id="paint12_linear_220_1157" x1="763.033" y1="-7.71029" x2="591.066" y2="1342.81" gradientUnits="userSpaceOnUse">
<stop stop-color="#CCCCCC"/>
<stop offset="1" stop-color="white"/>
</linearGradient>
<linearGradient id="paint13_linear_220_1157" x1="758.063" y1="-8.34308" x2="586.097" y2="1342.17" gradientUnits="userSpaceOnUse">
<stop stop-color="#CCCCCC"/>
<stop offset="1" stop-color="white"/>
</linearGradient>
<linearGradient id="paint14_linear_220_1157" x1="752.746" y1="-9.02027" x2="580.781" y2="1341.49" gradientUnits="userSpaceOnUse">
<stop stop-color="#CCCCCC"/>
<stop offset="1" stop-color="white"/>
</linearGradient>
<linearGradient id="paint15_linear_220_1157" x1="747.463" y1="-9.69308" x2="575.497" y2="1340.82" gradientUnits="userSpaceOnUse">
<stop stop-color="#CCCCCC"/>
<stop offset="1" stop-color="white"/>
</linearGradient>
<linearGradient id="paint16_linear_220_1157" x1="742.219" y1="-10.3614" x2="570.254" y2="1340.14" gradientUnits="userSpaceOnUse">
<stop stop-color="#CCCCCC"/>
<stop offset="1" stop-color="white"/>
</linearGradient>
<linearGradient id="paint17_linear_220_1157" x1="738.305" y1="-10.8606" x2="566.34" y2="1339.65" gradientUnits="userSpaceOnUse">
<stop stop-color="#CCCCCC"/>
<stop offset="1" stop-color="white"/>
</linearGradient>
<linearGradient id="paint18_linear_220_1157" x1="734.703" y1="-11.319" x2="562.738" y2="1339.19" gradientUnits="userSpaceOnUse">
<stop stop-color="#CCCCCC"/>
<stop offset="1" stop-color="white"/>
</linearGradient>
<linearGradient id="paint19_linear_220_1157" x1="731.15" y1="-11.7728" x2="559.185" y2="1338.73" gradientUnits="userSpaceOnUse">
<stop stop-color="#CCCCCC"/>
<stop offset="1" stop-color="white"/>
</linearGradient>
<linearGradient id="paint20_linear_220_1157" x1="749.567" y1="534.523" x2="738.431" y2="1205.85" gradientUnits="userSpaceOnUse">
<stop stop-color="#CCCCCC"/>
<stop offset="1" stop-color="white"/>
</linearGradient>
<linearGradient id="paint21_linear_220_1157" x1="509.595" y1="347.785" x2="1635.36" y2="2787.67" gradientUnits="userSpaceOnUse">
<stop stop-color="#808080"/>
<stop offset="1" stop-color="white"/>
</linearGradient>
<clipPath id="clip0_220_1157">
<rect width="1440" height="1960" fill="white"/>
</clipPath>
</defs>
</svg>
