<svg width="500" height="373" viewBox="0 0 500 373" fill="none" xmlns="http://www.w3.org/2000/svg">
<g clip-path="url(#clip0_375_825)">
<path d="M500 328.06H0V328.31H500V328.06Z" fill="#EBEBEB"/>
<path d="M238.4 283.46H45.3001C42.1501 283.46 39.5901 280.9 39.5901 277.75V6.31999C39.5901 3.16999 42.1501 0.609985 45.3001 0.609985H238.4C241.55 0.609985 244.11 3.16999 244.11 6.31999V277.75C244.11 280.9 241.55 283.46 238.4 283.46ZM45.3001 0.859985C42.2901 0.859985 39.8401 3.30999 39.8401 6.31999V277.75C39.8401 280.76 42.2901 283.21 45.3001 283.21H238.4C241.41 283.21 243.86 280.76 243.86 277.75V6.31999C243.86 3.30999 241.41 0.859985 238.4 0.859985H45.3001Z" fill="#EBEBEB"/>
<path d="M454.7 283.46H261.6C258.45 283.46 255.89 280.9 255.89 277.75V6.31999C255.89 3.16999 258.45 0.609985 261.6 0.609985H454.7C457.85 0.609985 460.41 3.16999 460.41 6.31999V277.75C460.41 280.9 457.85 283.46 454.7 283.46ZM261.6 0.859985C258.59 0.859985 256.14 3.30999 256.14 6.31999V277.75C256.14 280.76 258.59 283.21 261.6 283.21H454.7C457.71 283.21 460.16 280.76 460.16 277.75V6.31999C460.16 3.30999 457.71 0.859985 454.7 0.859985H261.6Z" fill="#EBEBEB"/>
<path d="M500 328.06H0V328.31H500V328.06Z" fill="#EBEBEB"/>
<path d="M449.9 344.15H416.78V344.4H449.9V344.15Z" fill="#EBEBEB"/>
<path d="M331.22 346.87H322.53V347.12H331.22V346.87Z" fill="#EBEBEB"/>
<path d="M415.78 334.87H396.59V335.12H415.78V334.87Z" fill="#EBEBEB"/>
<path d="M95.65 336.55H52.46V336.8H95.65V336.55Z" fill="#EBEBEB"/>
<path d="M225.15 340.77H131.47V341.02H225.15V340.77Z" fill="#EBEBEB"/>
<path d="M154.37 104.33C166.67 104.36 201.14 109.37 201.14 90.85C201.14 75.12 184.29 76.27 184.29 76.27C184.29 76.27 184.78 62.64 169.77 60.82C154.37 58.96 152.05 73.69 152.05 73.69C152.05 73.69 125.32 64.31 129.39 87.85C129.39 87.85 114.57 85.23 114.57 95.83C114.57 107.68 142.46 104.3 154.37 104.33Z" fill="#F0F0F0"/>
<path d="M138.88 244.37C163.84 244.44 233.81 255.9 233.81 213.49C233.81 177.45 199.61 180.1 199.61 180.1C199.61 180.1 200.6 148.88 170.13 144.72C138.88 140.46 134.16 174.2 134.16 174.2C134.16 174.2 79.9201 152.72 88.1701 206.63C88.1701 206.63 58.1001 200.64 58.1001 224.91C58.1001 252.03 114.7 244.29 138.88 244.37Z" fill="#F5F5F5"/>
<path d="M232.09 248.12C218.28 248.16 179.57 254.5 179.57 231.04C179.57 211.1 198.49 212.57 198.49 212.57C198.49 212.57 197.94 195.3 214.8 193C232.09 190.64 234.7 209.31 234.7 209.31C234.7 209.31 264.71 197.42 260.14 227.25C260.14 227.25 276.78 223.93 276.78 237.36C276.78 252.36 245.47 248.08 232.09 248.12Z" fill="#F0F0F0"/>
<path d="M309.15 149.82C322.92 149.85 361.53 155.13 361.53 135.59C361.53 118.99 342.66 120.21 342.66 120.21C342.66 120.21 343.21 105.82 326.39 103.91C309.15 101.95 306.54 117.49 306.54 117.49C306.54 117.49 276.61 107.59 281.16 132.43C281.16 132.43 264.57 129.67 264.57 140.85C264.57 153.35 295.81 149.78 309.15 149.82Z" fill="#F0F0F0"/>
<path d="M268.09 327.94L288.21 197.48L348.05 121.93L368.45 35.89C368.45 35.89 417.9 83.68 419.28 84.93C420.65 86.18 431.54 215.17 433.05 217.14C434.56 219.11 448.77 241.6 448.77 241.6L455.38 327.54L268.09 327.94Z" fill="#FAFAFA"/>
<path d="M268.09 327.94L296.77 215.21L337.4 176.48L345.01 225.51L355.25 169.74L366.87 188.75L364.34 123.19L366.36 102.22L373.18 116.14L368.45 35.89L402.93 36.69L410.11 74.57L419.28 84.94L433.05 217.15L448.77 241.61L455.38 327.55L268.09 327.94Z" fill="#EBEBEB"/>
<path d="M369.35 36.3301L389.83 102.6L402.03 112.3C402.03 112.3 408.47 139.23 408.39 137.51C408.32 135.79 407.65 105.61 407.65 105.61L410.81 80.9901L402.84 37.1301L369.35 36.3301Z" fill="#F5F5F5"/>
<path d="M433.05 217.15L437.83 239.42L448.77 241.61L433.05 217.15Z" fill="#F5F5F5"/>
<path d="M356.06 283.1C377.93 283.17 439.26 293.21 439.26 256.03C439.26 224.44 409.29 226.77 409.29 226.77C409.29 226.77 410.16 199.4 383.45 195.76C356.06 192.03 351.93 221.6 351.93 221.6C351.93 221.6 304.39 202.77 311.62 250.02C311.62 250.02 285.26 244.77 285.26 266.04C285.27 289.81 334.88 283.03 356.06 283.1Z" fill="#F5F5F5"/>
<path d="M110.89 336.55H104.56V336.8H110.89V336.55Z" fill="#EBEBEB"/>
<path d="M252.14 372.67C359.222 372.67 446.03 367.602 446.03 361.35C446.03 355.098 359.222 350.03 252.14 350.03C145.058 350.03 58.25 355.098 58.25 361.35C58.25 367.602 145.058 372.67 252.14 372.67Z" fill="#F5F5F5"/>
<path d="M298.86 201.37H239.69V361.4H298.86V201.37Z" fill="#1E4F9E"/>
<path opacity="0.2" d="M256.4 201.21H239.68V361.43H256.4V201.21Z" fill="black"/>
<path d="M239.62 265.37H180.45V361.4H239.62V265.37Z" fill="#1E4F9E"/>
<path opacity="0.2" d="M198.23 265.37H180.45V361.3H198.23V265.37Z" fill="black"/>
<path d="M180.4 285.76H121.23V361.4H180.4V285.76Z" fill="#1E4F9E"/>
<path opacity="0.2" d="M138.83 285.76H121.23V361.3H138.83V285.76Z" fill="black"/>
<path d="M121.21 306.15H62.04V361.4H121.21V306.15Z" fill="#1E4F9E"/>
<path opacity="0.2" d="M78.77 306.1H62.05V361.3H78.77V306.1Z" fill="black"/>
<path d="M222.92 77.7401C220.11 81.1401 217.22 84.4701 214.32 87.7901L212.13 90.2701L210.17 92.4601C209.36 93.4101 208.83 94.6101 208.64 95.9101L207.98 102.37C207.76 104.56 207.55 106.75 207.29 108.94C206.81 113.32 206.3 117.69 205.72 122.06C205.51 123.59 204.1 124.67 202.57 124.46C201.22 124.28 200.22 123.16 200.15 121.85C199.9 117.45 199.73 113.05 199.58 108.66C199.49 106.46 199.45 104.27 199.39 102.07L199.24 95.3701C199.28 92.2901 200.3 89.1901 202.06 86.5801L204.24 83.6501L206.21 81.0301C208.86 77.5501 211.52 74.0801 214.26 70.6701C216.2 68.2601 219.72 67.8801 222.12 69.8201C224.53 71.7601 224.91 75.2801 222.97 77.6801C222.96 77.6901 222.93 77.7301 222.92 77.7401Z" fill="#1E4F9E"/>
<path d="M199.45 122.35L195.8 128.56L204.21 129.41L205.69 123.11C205.87 122.36 205.39 121.61 204.63 121.48C203.23 121.24 201.05 121.14 199.45 122.35Z" fill="#CB7A63"/>
<path d="M195.79 128.55L196.17 130.75C196.36 131.83 197.3 132.63 198.4 132.62L201.14 132.61C201.97 132.61 202.74 132.15 203.13 131.41L204.19 129.4L195.79 128.55Z" fill="#CB7A63"/>
<path d="M198.85 117.7L206.95 117.97L206.43 122.81L199.59 122.28L198.85 117.7Z" fill="#1E4F9E"/>
<path opacity="0.3" d="M198.85 117.7L206.95 117.97L206.43 122.81L199.59 122.28L198.85 117.7Z" fill="white"/>
<path d="M207.02 168.49L205.69 170.49L204.67 168.42L207.09 137.02C207.48 132.03 205.79 127.93 199.58 127.78C193.77 127.64 190.25 131.61 189.84 136.59L187.3 167.93L185.91 169.92L184.96 167.86L187.52 136.53C187.99 130.74 190.56 126.09 199.7 126.31C208.85 126.53 209.87 131.28 209.42 137.08L207.02 168.49Z" fill="#263238"/>
<path d="M181.28 147.32L179.67 147.31C176.33 147.29 173.49 149.77 173.06 153.09L170.1 175.72L180.52 176.09L181.28 147.32Z" fill="#263238"/>
<path opacity="0.2" d="M181.28 147.32L179.67 147.31C176.33 147.29 173.49 149.77 173.06 153.09L170.1 175.72L180.52 176.09L181.28 147.32Z" fill="white"/>
<path d="M210.7 168.76L208.35 168.69L208.58 137.29C208.62 132.3 206.65 128.2 200.43 128.05C194.61 127.91 191.36 131.88 191.31 136.86L190.96 168.2L188.62 168.13L188.99 136.8C189.06 131.01 191.3 126.36 200.45 126.58C209.62 126.8 210.97 131.55 210.93 137.35L210.7 168.76Z" fill="#263238"/>
<path d="M221.74 177.3L175.43 175.93L175.88 152.59C175.92 149.6 178.34 147.24 181.28 147.32L214.99 148.2C218.8 148.3 221.87 151.51 221.86 155.37L221.74 177.3Z" fill="#263238"/>
<path opacity="0.4" d="M216.61 177.15L180.53 176.08C177.72 176 175.47 173.6 175.52 170.72L175.89 152.58C175.93 149.59 178.35 147.23 181.29 147.31L215 148.19C218.81 148.29 221.88 151.5 221.87 155.36L221.77 172.06C221.75 174.96 219.44 177.24 216.61 177.15Z" fill="white"/>
<g opacity="0.3">
<path d="M210.7 168.76L209.51 170.76L208.35 168.69L208.58 137.29C208.62 132.3 206.65 128.2 200.43 128.05C194.61 127.91 191.36 131.88 191.31 136.86L190.96 168.2L189.71 170.19L188.62 168.13L188.99 136.8C189.06 131.01 191.3 126.36 200.45 126.58C209.62 126.8 210.97 131.55 210.93 137.35L210.7 168.76Z" fill="white"/>
</g>
<path d="M191.74 156.09L187.88 155.99L187.9 154.53L191.76 154.64L191.74 156.09Z" fill="#263238"/>
<path d="M191.64 165.51L187.77 165.4L187.79 163.95L191.66 164.05L191.64 165.51Z" fill="#263238"/>
<path d="M211.58 156.63L207.7 156.52L207.71 155.07L211.59 155.17L211.58 156.63Z" fill="#263238"/>
<path d="M211.51 166.07L207.63 165.96L207.64 164.5L211.52 164.6L211.51 166.07Z" fill="#263238"/>
<path d="M204.19 157.26L195.91 157.03L195.94 153.92L204.22 154.14L204.19 157.26Z" fill="white"/>
<path d="M239.94 42.65C240.26 42.59 240.6 42.92 240.7 43.4C240.8 43.88 240.64 44.33 240.32 44.4C240 44.46 239.66 44.13 239.56 43.65C239.43 43.15 239.62 42.71 239.94 42.65Z" fill="#263238"/>
<path d="M240 43.05C240.33 42.9 240.63 42.56 240.76 42.22C240.48 42.48 240.1 42.63 239.72 42.62C239.86 42.71 239.99 42.89 240 43.05Z" fill="#263238"/>
<path d="M240.64 47.95C241.48 47.98 242.29 47.65 242.86 47.03C241.64 45.97 240.56 44.74 239.67 43.39L240.64 47.95Z" fill="#B74D3C"/>
<path d="M237.26 41.8601C237.72 41.2801 238.44 40.9601 239.18 41.0001C239.21 41.0101 239.24 41.0101 239.28 41.0101C239.44 41.0101 239.57 40.8701 239.57 40.7101C239.57 40.5501 239.43 40.4201 239.27 40.4201C238.34 40.3401 237.44 40.7201 236.84 41.4401C236.79 41.4901 236.77 41.5601 236.77 41.6301C236.77 41.7901 236.9 41.9201 237.07 41.9201C237.13 41.9301 237.21 41.9101 237.26 41.8601Z" fill="#263238"/>
<path d="M234.22 70.76C225.9 70.85 224.63 66.32 224.63 66.32C227.1 63.89 227.22 59.45 226.7 55.5C227.34 56.39 228.13 57.18 229.17 57.87C231.16 59.18 235.48 57.08 235.48 57.08C235.49 57.08 235.48 57.82 235.54 58.88C235.67 61.47 236.24 66.03 238.6 66.73C238.59 66.72 243.39 70.66 234.22 70.76Z" fill="#CB7A63"/>
<path d="M235.59 57.75C235.5 58.13 235.41 58.51 235.36 58.92C235.33 58.94 235.29 58.96 235.26 58.96C233.31 59.44 231.16 59.18 229.17 57.87C228.12 57.18 227.33 56.4 226.69 55.5C226.56 54.5 226.38 53.51 226.2 52.62L235.26 57.57L235.59 57.75Z" fill="#CB7A63"/>
<path d="M241.55 50.9601C241.49 54.0401 239.81 56.6301 237.45 58.0401H237.44C237.43 58.0501 237.42 58.0501 237.41 58.0501C236.78 58.4501 236.09 58.7301 235.36 58.9201C235.33 58.9401 235.29 58.9601 235.26 58.9601C233.31 59.4401 231.16 59.1801 229.17 57.8701C228.12 57.1801 227.33 56.4001 226.69 55.5001C225.06 53.2601 224.38 50.2801 223.21 46.0801C222.85 44.8501 222.78 43.5401 223.01 42.2801C223.83 37.7601 228.15 34.7701 232.66 35.5901C238.98 36.7101 241.68 45.3401 241.55 50.9601Z" fill="#CB7A63"/>
<path opacity="0.2" d="M237 58.2001C236.42 58.5701 236.13 58.7101 235.52 58.8701C235.46 57.8101 235.48 57.0701 235.46 57.0701C235.52 56.1401 235.58 55.2101 235.58 55.2101C235.59 55.2501 236.57 58.2001 237 58.2001Z" fill="black"/>
<path d="M239.37 39.61C238.69 40.69 236.56 41.6 236.63 41.35C237 40.46 236.93 38.74 235.82 39.14C236.13 39.82 237.04 44.96 236.63 45.58C236.4 45.92 236.19 50.03 234.44 53.65C233.05 56.54 233.05 57.44 233.05 57.44L227.37 58.54C225.24 58.27 223.26 55.56 223.09 55.26C222.35 53.98 220.08 52.31 218.9 51.42C218.39 51.04 217.99 50.47 217.77 49.87C217.38 48.78 218.18 44.85 218.35 43.01C218.6 40.35 219.99 37.9 223.85 36.32C226.23 35.34 228.24 33.2 230.67 32.36C233.1 31.51 235.99 31.55 238.05 33.1C239.05 33.84 241.07 36.91 239.37 39.61Z" fill="#263238"/>
<path d="M236.4 43.3501C238.15 43.8601 239.06 46.4401 239.14 48.0801C239.23 49.8901 238.02 51.0301 236.44 49.8201C235.25 48.8901 234.4 47.5901 234.03 46.1301C233.6 44.3601 234.65 42.8401 236.4 43.3501Z" fill="#CB7A63"/>
<path d="M238.51 49.38C238.51 49.8 238.17 50.14 237.75 50.14C237.33 50.14 236.99 49.8 236.99 49.38C236.99 48.96 237.33 48.62 237.75 48.62C238.17 48.62 238.51 48.95 238.51 49.38Z" fill="#1E4F9E"/>
<path opacity="0.3" d="M238.51 49.38C238.51 49.8 238.17 50.14 237.75 50.14C237.33 50.14 236.99 49.8 236.99 49.38C236.99 48.96 237.33 48.62 237.75 48.62C238.17 48.62 238.51 48.95 238.51 49.38Z" fill="white"/>
<path d="M222.24 69.3201C222.24 69.3201 223.53 65.3301 225.48 64.0701C227.43 62.8101 235.99 64.1201 237.33 64.6401C238.67 65.1601 240.02 68.2601 240.02 68.2601L222.24 69.3201Z" fill="#1E4F9E"/>
<path opacity="0.3" d="M222.24 69.3201C222.24 69.3201 223.53 65.3301 225.48 64.0701C227.43 62.8101 235.99 64.1201 237.33 64.6401C238.67 65.1601 240.02 68.2601 240.02 68.2601L222.24 69.3201Z" fill="white"/>
<path d="M241.78 67.62C240.45 67.4 240.08 67.2 238.56 67.08C233.97 66.86 229.37 66.91 224.78 67.23C223.11 67.35 221.49 67.67 219.89 68.06C216.6 68.85 214.39 71.91 214.63 75.26C215.31 84.62 218.08 90.11 218.49 96.28C219.3 108.56 217.34 117.17 217.01 120.03L223.31 120.99C234.55 120.72 242.02 118.31 248.21 115.67C248.21 115.67 246.59 100.82 248.16 95.48C252.44 80.87 249.66 78.55 248.82 74.37C248.11 70.88 245.31 68.19 241.78 67.62Z" fill="#1E4F9E"/>
<path opacity="0.1" d="M248.15 95.46C247.64 97.2 247.47 99.96 247.47 102.86C247.47 108.9 248.21 115.65 248.21 115.65C242.03 118.29 234.56 120.7 223.31 120.97L217.01 120.01C217.35 117.15 219.3 108.54 218.5 96.26C218.09 90.1 215.32 84.61 214.64 75.24C214.39 71.9 216.61 68.83 219.9 68.05C221.5 67.66 223.11 67.35 224.79 67.22C229.37 66.91 233.97 66.85 238.57 67.06C240.09 67.18 240.46 67.38 241.79 67.61C245.32 68.19 248.12 70.86 248.82 74.35C249.12 75.85 249.68 77.11 250.06 78.79C250.53 80.83 250.75 83.48 249.97 87.91C249.6 90 249.02 92.48 248.15 95.46Z" fill="white"/>
<path d="M243.59 67.16C245.89 67.48 248.16 67.94 250.45 68.33C252.73 68.77 255.01 69.22 257.28 69.71L256.46 69.64C257.47 69.68 258.37 69.76 258.93 69.8C259.2 69.82 259.39 69.81 259.32 69.86C259.31 69.88 259.17 69.93 259.02 70.03C258.83 70.13 258.59 70.3 258.34 70.56C257.82 71.08 257.61 71.79 257.62 72C257.62 72.23 257.69 72.17 257.7 72C257.74 71.64 257.66 70.95 257.51 70.24L257.61 70.53C256.46 67.2 255.36 63.85 254.36 60.46C253.39 57.06 252.45 53.65 251.79 50.13C251.54 48.78 252.42 47.48 253.78 47.22C254.81 47.03 255.82 47.5 256.35 48.34C258.25 51.37 259.89 54.51 261.48 57.67C263.05 60.84 264.52 64.04 265.93 67.27L266.03 67.57C266.42 68.59 266.79 69.66 267.02 71.11C267.12 71.83 267.2 72.7 267.03 73.82C266.88 74.91 266.28 76.48 265.09 77.64C264.51 78.22 263.89 78.63 263.29 78.94C262.72 79.22 262.16 79.43 261.71 79.55C260.76 79.81 260.04 79.89 259.41 79.96C258.16 80.08 257.24 80.08 256.44 80.13L256.31 80.14L255.61 80.07C253.3 79.83 250.99 79.55 248.69 79.26C246.4 78.92 244.09 78.64 241.8 78.24C238.76 77.7 236.73 74.79 237.28 71.75C237.83 68.75 240.63 66.75 243.59 67.16Z" fill="#1E4F9E"/>
<g opacity="0.1">
<path d="M243.59 67.16C245.89 67.48 248.16 67.94 250.45 68.33C252.73 68.77 255.01 69.22 257.28 69.71L256.46 69.64C257.47 69.68 258.37 69.76 258.93 69.8C259.2 69.82 259.39 69.81 259.32 69.86C259.31 69.88 259.17 69.93 259.02 70.03C258.83 70.13 258.59 70.3 258.34 70.56C257.82 71.08 257.61 71.79 257.62 72C257.62 72.23 257.69 72.17 257.7 72C257.74 71.64 257.66 70.95 257.51 70.24L257.61 70.53C256.46 67.2 255.36 63.85 254.36 60.46C253.39 57.06 252.45 53.65 251.79 50.13C251.54 48.78 252.42 47.48 253.78 47.22C254.81 47.03 255.82 47.5 256.35 48.34C258.25 51.37 259.89 54.51 261.48 57.67C263.05 60.84 264.52 64.04 265.93 67.27L266.03 67.57C266.42 68.59 266.79 69.66 267.02 71.11C267.12 71.83 267.2 72.7 267.03 73.82C266.88 74.91 266.28 76.48 265.09 77.64C264.51 78.22 263.89 78.63 263.29 78.94C262.72 79.22 262.16 79.43 261.71 79.55C260.76 79.81 260.04 79.89 259.41 79.96C258.16 80.08 257.24 80.08 256.44 80.13L256.31 80.14L255.61 80.07C253.3 79.83 250.99 79.55 248.69 79.26C246.4 78.92 244.09 78.64 241.8 78.24C238.76 77.7 236.73 74.79 237.28 71.75C237.83 68.75 240.63 66.75 243.59 67.16Z" fill="white"/>
</g>
<path d="M284.94 45.6399L314.92 44.7199L314.46 35.3199L284.54 37.2899L284.94 45.6399Z" fill="#1E4F9E"/>
<path d="M262.28 46L286.53 45.21L286.16 37.51L261.96 39.08L262.28 46Z" fill="#1E4F9E"/>
<path d="M283.33 45.41L284.91 45.58L284.52 37.35L282.95 37.67L283.33 45.41Z" fill="#263238"/>
<path opacity="0.2" d="M283.33 45.41L284.91 45.58L284.52 37.35L282.95 37.67L283.33 45.41Z" fill="black"/>
<path d="M284.92 45.6399L286.54 45.5899L286.14 37.1899L284.52 37.2999L284.92 45.6399Z" fill="#263238"/>
<path d="M258.52 44.86L260.92 45.97L260.61 39.23L258.32 40.57L258.52 44.86Z" fill="#263238"/>
<path d="M246.2 44.77L253.33 44.4L253.18 41.24L246.05 41.67L246.2 44.77Z" fill="#263238"/>
<path opacity="0.2" d="M246.2 44.77L253.33 44.4L253.18 41.24L246.05 41.67L246.2 44.77Z" fill="black"/>
<path d="M252.35 45.0399L260.28 44.7399L260.08 40.3199L252.15 40.7799L252.35 45.0399Z" fill="#263238"/>
<path opacity="0.2" d="M258.52 44.86L260.92 45.97L260.61 39.23L258.32 40.57L258.52 44.86Z" fill="black"/>
<path d="M260.97 46.04L262.28 46L261.96 39.08L260.64 39.16L260.97 46.04Z" fill="#263238"/>
<path d="M313.9 44.75L318.61 44.58L318.14 35.15L313.44 35.39L313.9 44.75Z" fill="#263238"/>
<path d="M315.99 45.41L321.99 45.24L322.14 44.83C323.42 41.27 323.17 37.34 321.44 33.98L315.45 34.39L315.58 34.7C317 38.11 317.15 41.91 315.99 45.41Z" fill="#1E4F9E"/>
<g opacity="0.4">
<path d="M309.6 36.37L312.03 36.22L312.08 37.25L309.62 37.39C309.55 37.06 309.57 36.71 309.6 36.37Z" fill="white"/>
<path d="M308.13 36.48C308.1 36.82 308.09 37.17 308.14 37.5L287.09 38.69L287.04 37.75L308.13 36.48Z" fill="white"/>
</g>
<g opacity="0.4">
<path d="M262.47 39.62L262.51 40.46L282.29 39.29L282.24 38.37L262.47 39.62Z" fill="white"/>
</g>
<g opacity="0.4">
<path d="M315.98 34.72L316.04 35.77L320.73 35.46L320.68 34.39L315.98 34.72Z" fill="white"/>
</g>
<path opacity="0.3" d="M321.38 43.86C321.35 44.22 321.33 44.58 321.39 44.93L316.53 45.1L316.47 44.05L321.38 43.86Z" fill="black"/>
<path opacity="0.3" d="M312.69 43.28C312.66 43.63 312.65 43.97 312.7 44.32L286.96 45.24L286.91 44.31L312.69 43.28Z" fill="black"/>
<path opacity="0.3" d="M282.05 44.1801C282.03 44.4901 282.02 44.7901 282.06 45.1001L262.93 45.7701L262.89 44.9301L282.05 44.1801Z" fill="black"/>
<path d="M244.6 41.79L244.66 44.81C244.67 45.32 245.14 45.73 245.7 45.72L248.15 45.68L248.05 40.73L245.6 40.82C245.03 40.84 244.58 41.28 244.6 41.79Z" fill="#1E4F9E"/>
<path d="M257.27 50.17L258.2 44.54C258.24 44.31 258.25 44.07 258.23 43.83L257.96 40.85C257.92 40.46 257.64 40.09 257.22 39.96L252.72 39.91C252.13 39.72 251.48 40.01 251.28 40.54L250.47 44.23C250.41 44.51 250.42 44.79 250.49 45.07L251.82 50.15C251.95 50.57 252.34 50.9 252.82 51L255.76 51.03C256.46 51.14 257.12 50.77 257.27 50.17Z" fill="#CE7A63"/>
<path d="M259.91 52.54L252.26 55.23L250.99 50.53L257.55 48.53L259.91 52.54Z" fill="#1E4F9E"/>
<path opacity="0.3" d="M259.91 52.54L252.26 55.23L250.99 50.53L257.55 48.53L259.91 52.54Z" fill="white"/>
<path opacity="0.2" d="M249.96 87.92L244.1 76.86L250.05 78.79C250.52 80.84 250.74 83.49 249.96 87.92Z" fill="black"/>
<path d="M280.17 179.73L278.96 194.75L285.79 194.88L287.67 179.41L280.17 179.73Z" fill="#CE7A63"/>
<path d="M286.87 192.83L279.07 192.99C278.78 193 278.52 193.22 278.46 193.53L277.12 200.37C277 200.98 277.35 201.57 277.92 201.7C277.99 201.72 278.07 201.72 278.14 201.72C280.95 201.61 283.45 201.39 286.95 201.33C291.08 201.25 290.04 201.8 294.89 201.78C297.82 201.76 298.32 198.18 297.07 198.03C291.38 197.38 290.78 195.55 288.56 193.41C288.09 193 287.49 192.79 286.87 192.83Z" fill="#263238"/>
<path d="M205.51 244.1L202.74 257.9L210.1 260.14L213.64 246.05L205.51 244.1Z" fill="#CE7A63"/>
<path d="M244.84 116.26C244.84 116.26 234.38 177.32 228.69 195.29C224.64 208.09 213.79 249.95 213.79 249.95L203.94 247.77C203.94 247.77 202.84 219.27 208.31 204.56C210.18 199.54 212.62 195.01 213.28 191.9C216.1 178.61 210.29 154.5 212.86 136.51C214.25 126.76 217.23 119.81 217.23 119.81L244.84 116.26Z" fill="#263238"/>
<path d="M228.69 195.3C224.64 208.1 213.79 249.96 213.79 249.96L203.94 247.78C203.94 247.78 202.84 219.28 208.31 204.57C210.18 199.55 212.62 195.02 213.28 191.91C216.1 178.62 210.29 154.51 212.86 136.52C214.25 126.77 217.23 119.82 217.23 119.82" fill="#263238"/>
<path opacity="0.2" d="M232.01 135.14L237.28 155.82L241.13 136.04L232.01 135.14Z" fill="black"/>
<path d="M288.15 186.94L278.53 187.25C278.53 187.25 279.24 174.66 279.24 156.3C279.24 153.47 279.68 150.68 280.3 148.18C281.67 142.57 283.89 138.39 283.89 138.39C283.89 138.39 282.86 138.45 281.1 138.53C275.66 138.81 241.94 140.55 241.28 140.5C240.78 140.45 237.72 140.86 232.22 138.18C222.01 133.2 221.91 119.23 221.91 119.23L248.2 115.66C248.2 115.68 248.63 115.74 254.96 115.85C274.15 116.18 297.73 116.92 301.87 123.51C307.69 132.78 288.15 186.94 288.15 186.94Z" fill="#263238"/>
<path d="M210.46 256.57L202.39 256.68C202.09 256.68 201.84 256.91 201.79 257.22L200.79 264.12C200.7 264.73 201.1 265.33 201.69 265.47C201.77 265.49 201.84 265.5 201.92 265.5C204.82 265.41 207.4 265.21 211.02 265.16C215.29 265.1 214.24 265.65 219.27 265.66C222.3 265.66 222.62 262.05 221.32 261.89C215.4 261.19 214.66 259.35 212.25 257.17C211.74 256.75 211.1 256.54 210.46 256.57Z" fill="#263238"/>
<path opacity="0.2" d="M280.3 148.18C281.67 142.57 283.89 138.39 283.89 138.39C283.89 138.39 282.86 138.45 281.1 138.53C281.02 138.5 280.94 138.48 280.84 138.48L287.85 137.89L280.3 148.18Z" fill="black"/>
<path d="M96.54 73.42C103.317 73.42 108.81 67.9265 108.81 61.15C108.81 54.3735 103.317 48.88 96.54 48.88C89.7635 48.88 84.27 54.3735 84.27 61.15C84.27 67.9265 89.7635 73.42 96.54 73.42Z" fill="#1E4F9E"/>
<path opacity="0.6" d="M96.54 73.42C103.317 73.42 108.81 67.9265 108.81 61.15C108.81 54.3735 103.317 48.88 96.54 48.88C89.7635 48.88 84.27 54.3735 84.27 61.15C84.27 67.9265 89.7635 73.42 96.54 73.42Z" fill="white"/>
<path d="M96.56 44.21C95.55 44.21 94.74 43.39 94.74 42.39V34.34C94.74 33.33 95.56 32.52 96.56 32.52C97.57 32.52 98.38 33.34 98.38 34.34V42.39C98.39 43.39 97.57 44.21 96.56 44.21Z" fill="#1E4F9E"/>
<path d="M96.56 89.61C95.55 89.61 94.74 88.79 94.74 87.79V79.74C94.74 78.73 95.56 77.92 96.56 77.92C97.57 77.92 98.38 78.74 98.38 79.74V87.79C98.39 88.79 97.57 89.61 96.56 89.61Z" fill="#1E4F9E"/>
<path d="M83.3601 49.68C82.8901 49.68 82.4301 49.5 82.0701 49.15L78.5901 45.67C77.8801 44.96 77.8801 43.8 78.5901 43.09C79.3001 42.38 80.4601 42.38 81.1701 43.09L84.6501 46.57C85.3601 47.28 85.3601 48.44 84.6501 49.15C84.2901 49.5 83.8301 49.68 83.3601 49.68Z" fill="#1E4F9E"/>
<path d="M113.01 79.33C112.54 79.33 112.08 79.15 111.72 78.8L108.47 75.55C107.76 74.84 107.76 73.68 108.47 72.97C109.18 72.26 110.34 72.26 111.05 72.97L114.3 76.22C115.01 76.93 115.01 78.09 114.3 78.8C113.95 79.15 113.48 79.33 113.01 79.33Z" fill="#1E4F9E"/>
<path d="M77.89 62.88H69.84C68.83 62.88 68.02 62.06 68.02 61.06C68.02 60.05 68.84 59.24 69.84 59.24H77.89C78.9 59.24 79.71 60.06 79.71 61.06C79.72 62.06 78.9 62.88 77.89 62.88Z" fill="#1E4F9E"/>
<path d="M123.29 62.88H115.23C114.22 62.88 113.41 62.06 113.41 61.06C113.41 60.05 114.23 59.24 115.23 59.24H123.29C124.3 59.24 125.11 60.06 125.11 61.06C125.12 62.06 124.3 62.88 123.29 62.88Z" fill="#1E4F9E"/>
<path d="M80.29 79.15C79.82 79.15 79.36 78.97 79 78.62C78.29 77.91 78.29 76.75 79 76.04L82.07 72.97C82.78 72.26 83.94 72.26 84.65 72.97C85.36 73.68 85.36 74.84 84.65 75.55L81.58 78.62C81.22 78.97 80.76 79.15 80.29 79.15Z" fill="#1E4F9E"/>
<path d="M109.77 49.6801C109.3 49.6801 108.84 49.5001 108.48 49.1501C107.77 48.4401 107.77 47.2801 108.48 46.5701L111.77 43.2801C112.48 42.5701 113.64 42.5701 114.35 43.2801C115.06 43.9901 115.06 45.1501 114.35 45.8601L111.06 49.1501C110.7 49.5001 110.23 49.6801 109.77 49.6801Z" fill="#1E4F9E"/>
<g opacity="0.6">
<path d="M96.56 44.21C95.55 44.21 94.74 43.39 94.74 42.39V34.34C94.74 33.33 95.56 32.52 96.56 32.52C97.57 32.52 98.38 33.34 98.38 34.34V42.39C98.39 43.39 97.57 44.21 96.56 44.21Z" fill="white"/>
<path d="M96.56 89.61C95.55 89.61 94.74 88.79 94.74 87.79V79.74C94.74 78.73 95.56 77.92 96.56 77.92C97.57 77.92 98.38 78.74 98.38 79.74V87.79C98.39 88.79 97.57 89.61 96.56 89.61Z" fill="white"/>
<path d="M83.3601 49.68C82.8901 49.68 82.4301 49.5 82.0701 49.15L78.5901 45.67C77.8801 44.96 77.8801 43.8 78.5901 43.09C79.3001 42.38 80.4601 42.38 81.1701 43.09L84.6501 46.57C85.3601 47.28 85.3601 48.44 84.6501 49.15C84.2901 49.5 83.8301 49.68 83.3601 49.68Z" fill="white"/>
<path d="M113.01 79.33C112.54 79.33 112.08 79.15 111.72 78.8L108.47 75.55C107.76 74.84 107.76 73.68 108.47 72.97C109.18 72.26 110.34 72.26 111.05 72.97L114.3 76.22C115.01 76.93 115.01 78.09 114.3 78.8C113.95 79.15 113.48 79.33 113.01 79.33Z" fill="white"/>
<path d="M77.89 62.88H69.84C68.83 62.88 68.02 62.06 68.02 61.06C68.02 60.05 68.84 59.24 69.84 59.24H77.89C78.9 59.24 79.71 60.06 79.71 61.06C79.72 62.06 78.9 62.88 77.89 62.88Z" fill="white"/>
<path d="M123.29 62.88H115.23C114.22 62.88 113.41 62.06 113.41 61.06C113.41 60.05 114.23 59.24 115.23 59.24H123.29C124.3 59.24 125.11 60.06 125.11 61.06C125.12 62.06 124.3 62.88 123.29 62.88Z" fill="white"/>
<path d="M80.29 79.15C79.82 79.15 79.36 78.97 79 78.62C78.29 77.91 78.29 76.75 79 76.04L82.07 72.97C82.78 72.26 83.94 72.26 84.65 72.97C85.36 73.68 85.36 74.84 84.65 75.55L81.58 78.62C81.22 78.97 80.76 79.15 80.29 79.15Z" fill="white"/>
<path d="M109.77 49.6801C109.3 49.6801 108.84 49.5001 108.48 49.1501C107.77 48.4401 107.77 47.2801 108.48 46.5701L111.77 43.2801C112.48 42.5701 113.64 42.5701 114.35 43.2801C115.06 43.9901 115.06 45.1501 114.35 45.8601L111.06 49.1501C110.7 49.5001 110.23 49.6801 109.77 49.6801Z" fill="white"/>
</g>
</g>
<defs>
<clipPath id="clip0_375_825">
<rect width="500" height="372.06" fill="white" transform="translate(0 0.609985)"/>
</clipPath>
</defs>
</svg>
