<svg width="500" height="373" viewBox="0 0 500 373" fill="none" xmlns="http://www.w3.org/2000/svg">
<g clip-path="url(#clip0_381_825)">
<path d="M500 327.45H0V327.7H500V327.45Z" fill="#EBEBEB"/>
<path d="M449.9 343.54H416.78V343.79H449.9V343.54Z" fill="#EBEBEB"/>
<path d="M331.22 346.26H322.53V346.51H331.22V346.26Z" fill="#EBEBEB"/>
<path d="M415.78 334.26H396.59V334.51H415.78V334.26Z" fill="#EBEBEB"/>
<path d="M95.65 335.94H52.46V336.19H95.65V335.94Z" fill="#EBEBEB"/>
<path d="M110.89 335.94H104.56V336.19H110.89V335.94Z" fill="#EBEBEB"/>
<path d="M225.15 340.16H131.47V340.41H225.15V340.16Z" fill="#EBEBEB"/>
<path d="M237.01 282.85H43.92C40.77 282.85 38.21 280.29 38.21 277.14V5.71C38.21 2.56 40.77 0 43.92 0H237.02C240.17 0 242.73 2.56 242.73 5.71V277.14C242.72 280.29 240.16 282.85 237.01 282.85ZM43.92 0.25C40.91 0.25 38.46 2.7 38.46 5.71V277.14C38.46 280.15 40.91 282.6 43.92 282.6H237.02C240.03 282.6 242.48 280.15 242.48 277.14V5.71C242.48 2.7 240.03 0.25 237.02 0.25H43.92Z" fill="#EBEBEB"/>
<path d="M453.31 282.85H260.21C257.06 282.85 254.5 280.29 254.5 277.14V5.71C254.5 2.56 257.06 0 260.21 0H453.31C456.46 0 459.02 2.56 459.02 5.71V277.14C459.02 280.29 456.46 282.85 453.31 282.85ZM260.21 0.25C257.2 0.25 254.75 2.7 254.75 5.71V277.14C254.75 280.15 257.2 282.6 260.21 282.6H453.31C456.32 282.6 458.77 280.15 458.77 277.14V5.71C458.77 2.7 456.32 0.25 453.31 0.25H260.21Z" fill="#EBEBEB"/>
<path d="M384.09 139.88C384.09 136.98 386.44 134.62 389.35 134.62C389.88 134.62 390.38 134.7 390.86 134.84C390.78 134.31 390.74 133.77 390.74 133.23C390.74 127.08 395.73 122.09 401.88 122.09C402.58 122.09 403.27 122.16 403.93 122.28C405.64 119.48 408.72 117.6 412.24 117.6C417.57 117.6 421.9 121.88 421.98 127.2C422.03 127.2 422.09 127.19 422.14 127.19C427.09 127.19 431.11 131.21 431.11 136.16C431.11 141.11 427.09 145.13 422.14 145.13H389.2L389.21 145.12C386.37 145.05 384.09 142.73 384.09 139.88Z" fill="#F0F0F0"/>
<path d="M89.45 116.13C89.45 113.23 91.8 110.87 94.71 110.87C95.24 110.87 95.74 110.95 96.22 111.09C96.14 110.56 96.1 110.02 96.1 109.48C96.1 103.33 101.09 98.3401 107.24 98.3401C107.94 98.3401 108.63 98.4101 109.29 98.5301C111 95.7301 114.08 93.8501 117.6 93.8501C122.93 93.8501 127.26 98.1301 127.34 103.45C127.39 103.45 127.45 103.44 127.5 103.44C132.45 103.44 136.47 107.46 136.47 112.41C136.47 117.36 132.45 121.38 127.5 121.38H94.56L94.57 121.37C91.73 121.3 89.45 118.98 89.45 116.13Z" fill="#F0F0F0"/>
<path d="M224.69 40.02H205.52C205.57 39.56 205.6 39.09 205.6 38.62C205.6 31.65 199.95 26 192.98 26C192.83 26 192.67 26.02 192.52 26.02C190.94 21.78 186.86 18.75 182.07 18.75C175.9 18.75 170.9 23.75 170.9 29.92C170.9 29.93 170.9 29.94 170.9 29.95C165.43 30.21 161.05 34.57 160.77 40.03H160.26C157.17 40.03 154.65 42.56 154.65 45.64C154.65 48.73 157.18 51.25 160.26 51.25H224.69C227.78 51.25 230.3 48.72 230.3 45.64C230.3 42.55 227.77 40.02 224.69 40.02Z" fill="#F0F0F0"/>
<path d="M366.72 48.0401C363.72 43.2601 358.42 40.0701 352.37 40.0701C346.21 40.0701 340.84 43.3701 337.87 48.2801C337.09 48.0601 336.27 47.9401 335.42 47.9401C330.41 47.9401 326.34 52.0001 326.34 57.0201V57.0301H321.55C319.06 57.0301 317.02 59.0701 317.02 61.5601C317.02 64.0501 319.06 66.0901 321.55 66.0901H338.07C341.08 70.8101 346.35 73.9601 352.36 73.9601C357.1 73.9601 361.39 72.0101 364.46 68.8701C364.75 68.8901 365.03 68.9101 365.32 68.9101C371.11 68.9101 375.81 64.2201 375.81 58.4201C375.81 53.1001 371.85 48.7201 366.72 48.0401Z" fill="#F0F0F0"/>
<path d="M265.82 112.15C262.82 107.37 257.52 104.18 251.47 104.18C245.31 104.18 239.94 107.48 236.97 112.39C236.19 112.17 235.37 112.05 234.52 112.05C229.51 112.05 225.44 116.11 225.44 121.13V121.14H220.65C218.16 121.14 216.12 123.18 216.12 125.67C216.12 128.16 218.16 130.2 220.65 130.2H237.17C240.18 134.92 245.45 138.07 251.46 138.07C256.2 138.07 260.49 136.12 263.56 132.98C263.85 133 264.13 133.02 264.42 133.02C270.21 133.02 274.91 128.33 274.91 122.53C274.92 117.21 270.96 112.83 265.82 112.15Z" fill="#F0F0F0"/>
<path d="M56.4399 327.3V279.5H60.5199V256.73H66.4999V177.55H75.1399V167.33L93.5699 158.73V148.43H96.1299V177.55H99.6999V256.73H103.28V215.09H112.99V193.64H115.69V256.73H123.07V232.72H127.92V226.59H139.16V205.64H145.31V190.83H152.88V169.24H155.58V190.83H163.14V205.64H169.3V226.59H180.54V232.72H185.39V256.73H191.15V226.59H202.39V161.71H205.96V154.56H229.97V161.71H235.08V208.71H255.51V213.31H263.18V216.88H255.51V235.27H276.97V173.97H281.57V160.94H291.53V114.71H294.34V160.94H301.49V173.97H343.42V169.68H345.97V198.8H349.55V199.31H351.7V228.43H355.27V236.35H362.83V214.89H365.54V265.98H368.55V244.52H371.26V277.98H372.91V253.97H377.76V247.84H389V226.9H395.16V212.08H402.72V190.5H405.42V212.08H412.99V226.9H419.14V247.84H430.38V253.97H435.24V277.47H436.11V277.98H438.51V327.3H56.4399Z" fill="#E6E6E6"/>
<path d="M320.02 176.83H317.13V179.72H320.02V176.83Z" fill="#F0F0F0"/>
<path d="M320.02 181.69H317.13V184.58H320.02V181.69Z" fill="#F0F0F0"/>
<path d="M320.02 201.1H317.13V203.99H320.02V201.1Z" fill="#F0F0F0"/>
<path d="M320.02 205.95H317.13V208.84H320.02V205.95Z" fill="#F0F0F0"/>
<path d="M320.02 210.81H317.13V213.7H320.02V210.81Z" fill="#F0F0F0"/>
<path d="M320.02 225.37H317.13V228.26H320.02V225.37Z" fill="#F0F0F0"/>
<path d="M320.02 230.22H317.13V233.11H320.02V230.22Z" fill="#F0F0F0"/>
<path d="M315.42 196.25H312.53V199.14H315.42V196.25Z" fill="#F0F0F0"/>
<path d="M315.42 201.1H312.53V203.99H315.42V201.1Z" fill="#F0F0F0"/>
<path d="M315.42 205.95H312.53V208.84H315.42V205.95Z" fill="#F0F0F0"/>
<path d="M315.42 210.81H312.53V213.7H315.42V210.81Z" fill="#F0F0F0"/>
<path d="M315.42 215.66H312.53V218.55H315.42V215.66Z" fill="#F0F0F0"/>
<path d="M315.42 225.37H312.53V228.26H315.42V225.37Z" fill="#F0F0F0"/>
<path d="M315.42 230.22H312.53V233.11H315.42V230.22Z" fill="#F0F0F0"/>
<path d="M310.82 176.83H307.93V179.72H310.82V176.83Z" fill="#F0F0F0"/>
<path d="M310.82 181.69H307.93V184.58H310.82V181.69Z" fill="#F0F0F0"/>
<path d="M310.82 186.54H307.93V189.43H310.82V186.54Z" fill="#F0F0F0"/>
<path d="M310.82 191.39H307.93V194.28H310.82V191.39Z" fill="#F0F0F0"/>
<path d="M310.82 196.25H307.93V199.14H310.82V196.25Z" fill="#F0F0F0"/>
<path d="M310.82 201.1H307.93V203.99H310.82V201.1Z" fill="#F0F0F0"/>
<path d="M310.82 205.95H307.93V208.84H310.82V205.95Z" fill="#F0F0F0"/>
<path d="M310.82 210.81H307.93V213.7H310.82V210.81Z" fill="#F0F0F0"/>
<path d="M310.82 215.66H307.93V218.55H310.82V215.66Z" fill="#F0F0F0"/>
<path d="M310.82 220.51H307.93V223.41H310.82V220.51Z" fill="#F0F0F0"/>
<path d="M310.82 230.22H307.93V233.11H310.82V230.22Z" fill="#F0F0F0"/>
<path d="M306.23 176.83H303.34V179.72H306.23V176.83Z" fill="#F0F0F0"/>
<path d="M306.23 181.69H303.34V184.58H306.23V181.69Z" fill="#F0F0F0"/>
<path d="M306.23 186.54H303.34V189.43H306.23V186.54Z" fill="#F0F0F0"/>
<path d="M306.23 191.39H303.34V194.28H306.23V191.39Z" fill="#F0F0F0"/>
<path d="M306.23 196.25H303.34V199.14H306.23V196.25Z" fill="#F0F0F0"/>
<path d="M306.23 201.1H303.34V203.99H306.23V201.1Z" fill="#F0F0F0"/>
<path d="M306.23 205.95H303.34V208.84H306.23V205.95Z" fill="#F0F0F0"/>
<path d="M306.23 249.63H303.34V252.52H306.23V249.63Z" fill="#F0F0F0"/>
<path d="M301.63 176.83H298.74V179.72H301.63V176.83Z" fill="#F0F0F0"/>
<path d="M301.63 181.69H298.74V184.58H301.63V181.69Z" fill="#F0F0F0"/>
<path d="M301.63 186.54H298.74V189.43H301.63V186.54Z" fill="#F0F0F0"/>
<path d="M301.63 191.39H298.74V194.28H301.63V191.39Z" fill="#F0F0F0"/>
<path d="M301.63 196.25H298.74V199.14H301.63V196.25Z" fill="#F0F0F0"/>
<path d="M301.63 201.1H298.74V203.99H301.63V201.1Z" fill="#F0F0F0"/>
<path d="M301.63 205.95H298.74V208.84H301.63V205.95Z" fill="#F0F0F0"/>
<path d="M301.63 210.81H298.74V213.7H301.63V210.81Z" fill="#F0F0F0"/>
<path d="M301.63 239.92H298.74V242.81H301.63V239.92Z" fill="#F0F0F0"/>
<path d="M301.63 244.78H298.74V247.67H301.63V244.78Z" fill="#F0F0F0"/>
<path d="M301.63 249.63H298.74V252.52H301.63V249.63Z" fill="#F0F0F0"/>
<path d="M301.63 254.48H298.74V257.37H301.63V254.48Z" fill="#F0F0F0"/>
<path d="M301.63 273.9H298.74V276.79H301.63V273.9Z" fill="#F0F0F0"/>
<path d="M297.03 176.83H294.14V179.72H297.03V176.83Z" fill="#F0F0F0"/>
<path d="M297.03 181.69H294.14V184.58H297.03V181.69Z" fill="#F0F0F0"/>
<path d="M297.03 186.54H294.14V189.43H297.03V186.54Z" fill="#F0F0F0"/>
<path d="M297.03 191.39H294.14V194.28H297.03V191.39Z" fill="#F0F0F0"/>
<path d="M297.03 196.25H294.14V199.14H297.03V196.25Z" fill="#F0F0F0"/>
<path d="M297.03 201.1H294.14V203.99H297.03V201.1Z" fill="#F0F0F0"/>
<path d="M297.03 205.95H294.14V208.84H297.03V205.95Z" fill="#F0F0F0"/>
<path d="M297.03 210.81H294.14V213.7H297.03V210.81Z" fill="#F0F0F0"/>
<path d="M297.03 215.66H294.14V218.55H297.03V215.66Z" fill="#F0F0F0"/>
<path d="M297.03 220.51H294.14V223.41H297.03V220.51Z" fill="#F0F0F0"/>
<path d="M297.03 235.07H294.14V237.96H297.03V235.07Z" fill="#F0F0F0"/>
<path d="M297.03 239.92H294.14V242.81H297.03V239.92Z" fill="#F0F0F0"/>
<path d="M297.03 244.78H294.14V247.67H297.03V244.78Z" fill="#F0F0F0"/>
<path d="M297.03 249.63H294.14V252.52H297.03V249.63Z" fill="#F0F0F0"/>
<path d="M297.03 254.48H294.14V257.37H297.03V254.48Z" fill="#F0F0F0"/>
<path d="M297.03 273.9H294.14V276.79H297.03V273.9Z" fill="#F0F0F0"/>
<path d="M292.43 176.83H289.54V179.72H292.43V176.83Z" fill="#F0F0F0"/>
<path d="M292.43 181.69H289.54V184.58H292.43V181.69Z" fill="#F0F0F0"/>
<path d="M292.43 186.54H289.54V189.43H292.43V186.54Z" fill="#F0F0F0"/>
<path d="M292.43 191.39H289.54V194.28H292.43V191.39Z" fill="#F0F0F0"/>
<path d="M292.43 196.25H289.54V199.14H292.43V196.25Z" fill="#F0F0F0"/>
<path d="M292.43 201.1H289.54V203.99H292.43V201.1Z" fill="#F0F0F0"/>
<path d="M292.43 205.95H289.54V208.84H292.43V205.95Z" fill="#F0F0F0"/>
<path d="M292.43 210.81H289.54V213.7H292.43V210.81Z" fill="#F0F0F0"/>
<path d="M292.43 215.66H289.54V218.55H292.43V215.66Z" fill="#F0F0F0"/>
<path d="M292.43 220.51H289.54V223.41H292.43V220.51Z" fill="#F0F0F0"/>
<path d="M292.43 225.37H289.54V228.26H292.43V225.37Z" fill="#F0F0F0"/>
<path d="M292.43 230.22H289.54V233.11H292.43V230.22Z" fill="#F0F0F0"/>
<path d="M292.43 235.07H289.54V237.96H292.43V235.07Z" fill="#F0F0F0"/>
<path d="M292.43 239.92H289.54V242.81H292.43V239.92Z" fill="#F0F0F0"/>
<path d="M292.43 244.78H289.54V247.67H292.43V244.78Z" fill="#F0F0F0"/>
<path d="M292.43 249.63H289.54V252.52H292.43V249.63Z" fill="#F0F0F0"/>
<path d="M292.43 254.48H289.54V257.37H292.43V254.48Z" fill="#F0F0F0"/>
<path d="M292.43 259.34H289.54V262.23H292.43V259.34Z" fill="#F0F0F0"/>
<path d="M287.84 176.83H284.95V179.72H287.84V176.83Z" fill="#F0F0F0"/>
<path d="M287.84 181.69H284.95V184.58H287.84V181.69Z" fill="#F0F0F0"/>
<path d="M287.84 186.54H284.95V189.43H287.84V186.54Z" fill="#F0F0F0"/>
<path d="M287.84 191.39H284.95V194.28H287.84V191.39Z" fill="#F0F0F0"/>
<path d="M287.84 196.25H284.95V199.14H287.84V196.25Z" fill="#F0F0F0"/>
<path d="M287.84 201.1H284.95V203.99H287.84V201.1Z" fill="#F0F0F0"/>
<path d="M287.84 205.95H284.95V208.84H287.84V205.95Z" fill="#F0F0F0"/>
<path d="M287.84 210.81H284.95V213.7H287.84V210.81Z" fill="#F0F0F0"/>
<path d="M287.84 215.66H284.95V218.55H287.84V215.66Z" fill="#F0F0F0"/>
<path d="M287.84 220.51H284.95V223.41H287.84V220.51Z" fill="#F0F0F0"/>
<path d="M287.84 235.07H284.95V237.96H287.84V235.07Z" fill="#F0F0F0"/>
<path d="M287.84 239.92H284.95V242.81H287.84V239.92Z" fill="#F0F0F0"/>
<path d="M287.84 244.78H284.95V247.67H287.84V244.78Z" fill="#F0F0F0"/>
<path d="M287.84 249.63H284.95V252.52H287.84V249.63Z" fill="#F0F0F0"/>
<path d="M283.24 176.83H280.35V179.72H283.24V176.83Z" fill="#F0F0F0"/>
<path d="M283.24 181.69H280.35V184.58H283.24V181.69Z" fill="#F0F0F0"/>
<path d="M283.24 186.54H280.35V189.43H283.24V186.54Z" fill="#F0F0F0"/>
<path d="M283.24 191.39H280.35V194.28H283.24V191.39Z" fill="#F0F0F0"/>
<path d="M283.24 196.25H280.35V199.14H283.24V196.25Z" fill="#F0F0F0"/>
<path d="M283.24 201.1H280.35V203.99H283.24V201.1Z" fill="#F0F0F0"/>
<path d="M283.24 205.95H280.35V208.84H283.24V205.95Z" fill="#F0F0F0"/>
<path d="M283.24 210.81H280.35V213.7H283.24V210.81Z" fill="#F0F0F0"/>
<path d="M283.24 215.66H280.35V218.55H283.24V215.66Z" fill="#F0F0F0"/>
<path d="M283.24 220.51H280.35V223.41H283.24V220.51Z" fill="#F0F0F0"/>
<path d="M283.24 235.07H280.35V237.96H283.24V235.07Z" fill="#F0F0F0"/>
<path d="M283.24 239.92H280.35V242.81H283.24V239.92Z" fill="#F0F0F0"/>
<path d="M283.24 244.78H280.35V247.67H283.24V244.78Z" fill="#F0F0F0"/>
<path d="M231.47 164.23H228.58V167.12H231.47V164.23Z" fill="#F0F0F0"/>
<path d="M231.47 169.09H228.58V171.98H231.47V169.09Z" fill="#F0F0F0"/>
<path d="M231.47 173.94H228.58V176.83H231.47V173.94Z" fill="#F0F0F0"/>
<path d="M231.47 178.79H228.58V181.68H231.47V178.79Z" fill="#F0F0F0"/>
<path d="M231.47 183.65H228.58V186.54H231.47V183.65Z" fill="#F0F0F0"/>
<path d="M231.47 188.5H228.58V191.39H231.47V188.5Z" fill="#F0F0F0"/>
<path d="M231.47 193.35H228.58V196.24H231.47V193.35Z" fill="#F0F0F0"/>
<path d="M231.47 198.2H228.58V201.09H231.47V198.2Z" fill="#F0F0F0"/>
<path d="M231.47 212.76H228.58V215.65H231.47V212.76Z" fill="#F0F0F0"/>
<path d="M231.47 217.62H228.58V220.51H231.47V217.62Z" fill="#F0F0F0"/>
<path d="M226.88 164.23H223.98V167.12H226.88V164.23Z" fill="#F0F0F0"/>
<path d="M226.88 169.09H223.98V171.98H226.88V169.09Z" fill="#F0F0F0"/>
<path d="M226.88 173.94H223.98V176.83H226.88V173.94Z" fill="#F0F0F0"/>
<path d="M226.88 178.79H223.98V181.68H226.88V178.79Z" fill="#F0F0F0"/>
<path d="M226.88 183.65H223.98V186.54H226.88V183.65Z" fill="#F0F0F0"/>
<path d="M226.88 188.5H223.98V191.39H226.88V188.5Z" fill="#F0F0F0"/>
<path d="M226.88 193.35H223.98V196.24H226.88V193.35Z" fill="#F0F0F0"/>
<path d="M226.88 198.2H223.98V201.09H226.88V198.2Z" fill="#F0F0F0"/>
<path d="M226.88 217.62H223.98V220.51H226.88V217.62Z" fill="#F0F0F0"/>
<path d="M222.29 164.23H219.39V167.12H222.29V164.23Z" fill="#F0F0F0"/>
<path d="M222.29 169.09H219.39V171.98H222.29V169.09Z" fill="#F0F0F0"/>
<path d="M222.29 173.94H219.39V176.83H222.29V173.94Z" fill="#F0F0F0"/>
<path d="M222.29 178.79H219.39V181.68H222.29V178.79Z" fill="#F0F0F0"/>
<path d="M222.29 183.65H219.39V186.54H222.29V183.65Z" fill="#F0F0F0"/>
<path d="M222.29 188.5H219.39V191.39H222.29V188.5Z" fill="#F0F0F0"/>
<path d="M222.29 193.35H219.39V196.24H222.29V193.35Z" fill="#F0F0F0"/>
<path d="M222.29 198.2H219.39V201.09H222.29V198.2Z" fill="#F0F0F0"/>
<path d="M217.68 164.23H214.79V167.12H217.68V164.23Z" fill="#F0F0F0"/>
<path d="M217.68 169.09H214.79V171.98H217.68V169.09Z" fill="#F0F0F0"/>
<path d="M217.68 173.94H214.79V176.83H217.68V173.94Z" fill="#F0F0F0"/>
<path d="M217.68 178.79H214.79V181.68H217.68V178.79Z" fill="#F0F0F0"/>
<path d="M217.68 183.65H214.79V186.54H217.68V183.65Z" fill="#F0F0F0"/>
<path d="M217.68 188.5H214.79V191.39H217.68V188.5Z" fill="#F0F0F0"/>
<path d="M217.68 198.2H214.79V201.09H217.68V198.2Z" fill="#F0F0F0"/>
<path d="M217.68 203.06H214.79V205.95H217.68V203.06Z" fill="#F0F0F0"/>
<path d="M217.68 217.62H214.79V220.51H217.68V217.62Z" fill="#F0F0F0"/>
<path d="M217.68 222.47H214.79V225.36H217.68V222.47Z" fill="#F0F0F0"/>
<path d="M217.68 227.32H214.79V230.21H217.68V227.32Z" fill="#F0F0F0"/>
<path d="M217.68 232.18H214.79V235.07H217.68V232.18Z" fill="#F0F0F0"/>
<path d="M217.68 237.03H214.79V239.92H217.68V237.03Z" fill="#F0F0F0"/>
<path d="M217.68 241.88H214.79V244.77H217.68V241.88Z" fill="#F0F0F0"/>
<path d="M217.68 246.74H214.79V249.63H217.68V246.74Z" fill="#F0F0F0"/>
<path d="M213.08 164.23H210.19V167.12H213.08V164.23Z" fill="#F0F0F0"/>
<path d="M213.08 169.09H210.19V171.98H213.08V169.09Z" fill="#F0F0F0"/>
<path d="M213.08 173.94H210.19V176.83H213.08V173.94Z" fill="#F0F0F0"/>
<path d="M213.08 178.79H210.19V181.68H213.08V178.79Z" fill="#F0F0F0"/>
<path d="M213.08 183.65H210.19V186.54H213.08V183.65Z" fill="#F0F0F0"/>
<path d="M213.08 188.5H210.19V191.39H213.08V188.5Z" fill="#F0F0F0"/>
<path d="M213.08 203.06H210.19V205.95H213.08V203.06Z" fill="#F0F0F0"/>
<path d="M213.08 207.91H210.19V210.8H213.08V207.91Z" fill="#F0F0F0"/>
<path d="M213.08 212.76H210.19V215.65H213.08V212.76Z" fill="#F0F0F0"/>
<path d="M213.08 217.62H210.19V220.51H213.08V217.62Z" fill="#F0F0F0"/>
<path d="M213.08 222.47H210.19V225.36H213.08V222.47Z" fill="#F0F0F0"/>
<path d="M213.08 227.32H210.19V230.21H213.08V227.32Z" fill="#F0F0F0"/>
<path d="M213.08 232.18H210.19V235.07H213.08V232.18Z" fill="#F0F0F0"/>
<path d="M213.08 237.03H210.19V239.92H213.08V237.03Z" fill="#F0F0F0"/>
<path d="M213.08 241.88H210.19V244.77H213.08V241.88Z" fill="#F0F0F0"/>
<path d="M213.08 246.74H210.19V249.63H213.08V246.74Z" fill="#F0F0F0"/>
<path d="M213.08 251.59H210.19V254.48H213.08V251.59Z" fill="#F0F0F0"/>
<path d="M213.08 261.3H210.19V264.19H213.08V261.3Z" fill="#F0F0F0"/>
<path d="M208.49 164.23H205.59V167.12H208.49V164.23Z" fill="#F0F0F0"/>
<path d="M208.49 169.09H205.59V171.98H208.49V169.09Z" fill="#F0F0F0"/>
<path d="M208.49 173.94H205.59V176.83H208.49V173.94Z" fill="#F0F0F0"/>
<path d="M208.49 178.79H205.59V181.68H208.49V178.79Z" fill="#F0F0F0"/>
<path d="M208.49 183.65H205.59V186.54H208.49V183.65Z" fill="#F0F0F0"/>
<path d="M208.49 188.5H205.59V191.39H208.49V188.5Z" fill="#F0F0F0"/>
<path d="M208.49 203.06H205.59V205.95H208.49V203.06Z" fill="#F0F0F0"/>
<path d="M208.49 207.91H205.59V210.8H208.49V207.91Z" fill="#F0F0F0"/>
<path d="M208.49 212.76H205.59V215.65H208.49V212.76Z" fill="#F0F0F0"/>
<path d="M208.49 217.62H205.59V220.51H208.49V217.62Z" fill="#F0F0F0"/>
<path d="M208.49 232.18H205.59V235.07H208.49V232.18Z" fill="#F0F0F0"/>
<path d="M208.49 237.03H205.59V239.92H208.49V237.03Z" fill="#F0F0F0"/>
<path d="M208.49 241.88H205.59V244.77H208.49V241.88Z" fill="#F0F0F0"/>
<path d="M208.49 246.74H205.59V249.63H208.49V246.74Z" fill="#F0F0F0"/>
<path d="M208.49 251.59H205.59V254.48H208.49V251.59Z" fill="#F0F0F0"/>
<path d="M208.49 261.3H205.59V264.19H208.49V261.3Z" fill="#F0F0F0"/>
<path d="M208.49 266.15H205.59V269.04H208.49V266.15Z" fill="#F0F0F0"/>
<path d="M166.76 209.36H163.87V212.25H166.76V209.36Z" fill="#F0F0F0"/>
<path d="M166.76 214.21H163.87V217.1H166.76V214.21Z" fill="#F0F0F0"/>
<path d="M166.76 219.06H163.87V221.95H166.76V219.06Z" fill="#F0F0F0"/>
<path d="M166.76 223.92H163.87V226.81H166.76V223.92Z" fill="#F0F0F0"/>
<path d="M166.76 228.77H163.87V231.66H166.76V228.77Z" fill="#F0F0F0"/>
<path d="M166.76 233.62H163.87V236.51H166.76V233.62Z" fill="#F0F0F0"/>
<path d="M166.76 238.48H163.87V241.37H166.76V238.48Z" fill="#F0F0F0"/>
<path d="M166.76 253.04H163.87V255.93H166.76V253.04Z" fill="#F0F0F0"/>
<path d="M166.76 257.89H163.87V260.78H166.76V257.89Z" fill="#F0F0F0"/>
<path d="M166.76 262.74H163.87V265.63H166.76V262.74Z" fill="#F0F0F0"/>
<path d="M162.17 209.36H159.28V212.25H162.17V209.36Z" fill="#F0F0F0"/>
<path d="M162.17 214.21H159.28V217.1H162.17V214.21Z" fill="#F0F0F0"/>
<path d="M162.17 219.06H159.28V221.95H162.17V219.06Z" fill="#F0F0F0"/>
<path d="M162.17 223.92H159.28V226.81H162.17V223.92Z" fill="#F0F0F0"/>
<path d="M162.17 228.77H159.28V231.66H162.17V228.77Z" fill="#F0F0F0"/>
<path d="M162.17 233.62H159.28V236.51H162.17V233.62Z" fill="#F0F0F0"/>
<path d="M162.17 238.48H159.28V241.37H162.17V238.48Z" fill="#F0F0F0"/>
<path d="M157.57 209.36H154.68V212.25H157.57V209.36Z" fill="#F0F0F0"/>
<path d="M157.57 214.21H154.68V217.1H157.57V214.21Z" fill="#F0F0F0"/>
<path d="M157.57 219.06H154.68V221.95H157.57V219.06Z" fill="#F0F0F0"/>
<path d="M157.57 223.92H154.68V226.81H157.57V223.92Z" fill="#F0F0F0"/>
<path d="M157.57 228.77H154.68V231.66H157.57V228.77Z" fill="#F0F0F0"/>
<path d="M157.57 233.62H154.68V236.51H157.57V233.62Z" fill="#F0F0F0"/>
<path d="M157.57 238.48H154.68V241.37H157.57V238.48Z" fill="#F0F0F0"/>
<path d="M152.97 209.36H150.08V212.25H152.97V209.36Z" fill="#F0F0F0"/>
<path d="M152.97 214.21H150.08V217.1H152.97V214.21Z" fill="#F0F0F0"/>
<path d="M152.97 219.06H150.08V221.95H152.97V219.06Z" fill="#F0F0F0"/>
<path d="M152.97 223.92H150.08V226.81H152.97V223.92Z" fill="#F0F0F0"/>
<path d="M152.97 228.77H150.08V231.66H152.97V228.77Z" fill="#F0F0F0"/>
<path d="M152.97 233.62H150.08V236.51H152.97V233.62Z" fill="#F0F0F0"/>
<path d="M152.97 238.48H150.08V241.37H152.97V238.48Z" fill="#F0F0F0"/>
<path d="M152.97 243.33H150.08V246.22H152.97V243.33Z" fill="#F0F0F0"/>
<path d="M152.97 248.18H150.08V251.07H152.97V248.18Z" fill="#F0F0F0"/>
<path d="M152.97 253.04H150.08V255.93H152.97V253.04Z" fill="#F0F0F0"/>
<path d="M152.97 257.89H150.08V260.78H152.97V257.89Z" fill="#F0F0F0"/>
<path d="M148.37 209.36H145.48V212.25H148.37V209.36Z" fill="#F0F0F0"/>
<path d="M148.37 214.21H145.48V217.1H148.37V214.21Z" fill="#F0F0F0"/>
<path d="M148.37 219.06H145.48V221.95H148.37V219.06Z" fill="#F0F0F0"/>
<path d="M148.37 223.92H145.48V226.81H148.37V223.92Z" fill="#F0F0F0"/>
<path d="M148.37 228.77H145.48V231.66H148.37V228.77Z" fill="#F0F0F0"/>
<path d="M148.37 233.62H145.48V236.51H148.37V233.62Z" fill="#F0F0F0"/>
<path d="M148.37 238.48H145.48V241.37H148.37V238.48Z" fill="#F0F0F0"/>
<path d="M148.37 243.33H145.48V246.22H148.37V243.33Z" fill="#F0F0F0"/>
<path d="M148.37 248.18H145.48V251.07H148.37V248.18Z" fill="#F0F0F0"/>
<path d="M148.37 253.04H145.48V255.93H148.37V253.04Z" fill="#F0F0F0"/>
<path d="M148.37 257.89H145.48V260.78H148.37V257.89Z" fill="#F0F0F0"/>
<path d="M148.37 262.74H145.48V265.63H148.37V262.74Z" fill="#F0F0F0"/>
<path d="M148.37 277.3H145.48V280.19H148.37V277.3Z" fill="#F0F0F0"/>
<path d="M148.37 282.15H145.48V285.04H148.37V282.15Z" fill="#F0F0F0"/>
<path d="M143.78 209.36H140.89V212.25H143.78V209.36Z" fill="#F0F0F0"/>
<path d="M143.78 214.21H140.89V217.1H143.78V214.21Z" fill="#F0F0F0"/>
<path d="M143.78 219.06H140.89V221.95H143.78V219.06Z" fill="#F0F0F0"/>
<path d="M143.78 233.62H140.89V236.51H143.78V233.62Z" fill="#F0F0F0"/>
<path d="M143.78 238.48H140.89V241.37H143.78V238.48Z" fill="#F0F0F0"/>
<path d="M143.78 243.33H140.89V246.22H143.78V243.33Z" fill="#F0F0F0"/>
<path d="M143.78 248.18H140.89V251.07H143.78V248.18Z" fill="#F0F0F0"/>
<path d="M143.78 253.04H140.89V255.93H143.78V253.04Z" fill="#F0F0F0"/>
<path d="M143.78 257.89H140.89V260.78H143.78V257.89Z" fill="#F0F0F0"/>
<path d="M143.78 262.74H140.89V265.63H143.78V262.74Z" fill="#F0F0F0"/>
<path d="M143.78 277.3H140.89V280.19H143.78V277.3Z" fill="#F0F0F0"/>
<path d="M143.78 282.15H140.89V285.04H143.78V282.15Z" fill="#F0F0F0"/>
<path d="M143.78 287.01H140.89V289.9H143.78V287.01Z" fill="#F0F0F0"/>
<path d="M95.59 180.24H92.7V183.13H95.59V180.24Z" fill="#F0F0F0"/>
<path d="M95.59 185.09H92.7V187.98H95.59V185.09Z" fill="#F0F0F0"/>
<path d="M95.59 189.95H92.7V192.84H95.59V189.95Z" fill="#F0F0F0"/>
<path d="M95.59 194.8H92.7V197.69H95.59V194.8Z" fill="#F0F0F0"/>
<path d="M95.59 199.65H92.7V202.54H95.59V199.65Z" fill="#F0F0F0"/>
<path d="M95.59 204.51H92.7V207.4H95.59V204.51Z" fill="#F0F0F0"/>
<path d="M95.59 209.36H92.7V212.25H95.59V209.36Z" fill="#F0F0F0"/>
<path d="M95.59 214.21H92.7V217.1H95.59V214.21Z" fill="#F0F0F0"/>
<path d="M95.59 219.06H92.7V221.95H95.59V219.06Z" fill="#F0F0F0"/>
<path d="M95.59 223.92H92.7V226.81H95.59V223.92Z" fill="#F0F0F0"/>
<path d="M95.59 228.77H92.7V231.66H95.59V228.77Z" fill="#F0F0F0"/>
<path d="M95.59 233.62H92.7V236.51H95.59V233.62Z" fill="#F0F0F0"/>
<path d="M95.59 238.48H92.7V241.37H95.59V238.48Z" fill="#F0F0F0"/>
<path d="M95.59 243.33H92.7V246.22H95.59V243.33Z" fill="#F0F0F0"/>
<path d="M95.59 248.18H92.7V251.07H95.59V248.18Z" fill="#F0F0F0"/>
<path d="M95.59 253.04H92.7V255.93H95.59V253.04Z" fill="#F0F0F0"/>
<path d="M95.59 257.89H92.7V260.78H95.59V257.89Z" fill="#F0F0F0"/>
<path d="M95.59 262.74H92.7V265.63H95.59V262.74Z" fill="#F0F0F0"/>
<path d="M95.59 267.6H92.7V270.49H95.59V267.6Z" fill="#F0F0F0"/>
<path d="M95.59 272.45H92.7V275.34H95.59V272.45Z" fill="#F0F0F0"/>
<path d="M95.59 277.3H92.7V280.19H95.59V277.3Z" fill="#F0F0F0"/>
<path d="M95.59 282.15H92.7V285.04H95.59V282.15Z" fill="#F0F0F0"/>
<path d="M95.59 287.01H92.7V289.9H95.59V287.01Z" fill="#F0F0F0"/>
<path d="M90.99 180.24H88.1V183.13H90.99V180.24Z" fill="#F0F0F0"/>
<path d="M90.99 185.09H88.1V187.98H90.99V185.09Z" fill="#F0F0F0"/>
<path d="M90.99 189.95H88.1V192.84H90.99V189.95Z" fill="#F0F0F0"/>
<path d="M90.99 194.8H88.1V197.69H90.99V194.8Z" fill="#F0F0F0"/>
<path d="M90.99 199.65H88.1V202.54H90.99V199.65Z" fill="#F0F0F0"/>
<path d="M90.99 204.51H88.1V207.4H90.99V204.51Z" fill="#F0F0F0"/>
<path d="M90.99 209.36H88.1V212.25H90.99V209.36Z" fill="#F0F0F0"/>
<path d="M90.99 214.21H88.1V217.1H90.99V214.21Z" fill="#F0F0F0"/>
<path d="M90.99 219.06H88.1V221.95H90.99V219.06Z" fill="#F0F0F0"/>
<path d="M90.99 223.92H88.1V226.81H90.99V223.92Z" fill="#F0F0F0"/>
<path d="M90.99 228.77H88.1V231.66H90.99V228.77Z" fill="#F0F0F0"/>
<path d="M90.99 233.62H88.1V236.51H90.99V233.62Z" fill="#F0F0F0"/>
<path d="M90.99 238.48H88.1V241.37H90.99V238.48Z" fill="#F0F0F0"/>
<path d="M90.99 243.33H88.1V246.22H90.99V243.33Z" fill="#F0F0F0"/>
<path d="M90.99 248.18H88.1V251.07H90.99V248.18Z" fill="#F0F0F0"/>
<path d="M90.99 253.04H88.1V255.93H90.99V253.04Z" fill="#F0F0F0"/>
<path d="M90.99 257.89H88.1V260.78H90.99V257.89Z" fill="#F0F0F0"/>
<path d="M90.99 262.74H88.1V265.63H90.99V262.74Z" fill="#F0F0F0"/>
<path d="M90.99 267.6H88.1V270.49H90.99V267.6Z" fill="#F0F0F0"/>
<path d="M86.39 180.24H83.5V183.13H86.39V180.24Z" fill="#F0F0F0"/>
<path d="M86.39 185.09H83.5V187.98H86.39V185.09Z" fill="#F0F0F0"/>
<path d="M86.39 189.95H83.5V192.84H86.39V189.95Z" fill="#F0F0F0"/>
<path d="M86.39 194.8H83.5V197.69H86.39V194.8Z" fill="#F0F0F0"/>
<path d="M86.39 199.65H83.5V202.54H86.39V199.65Z" fill="#F0F0F0"/>
<path d="M86.39 204.51H83.5V207.4H86.39V204.51Z" fill="#F0F0F0"/>
<path d="M86.39 209.36H83.5V212.25H86.39V209.36Z" fill="#F0F0F0"/>
<path d="M86.39 214.21H83.5V217.1H86.39V214.21Z" fill="#F0F0F0"/>
<path d="M86.39 219.06H83.5V221.95H86.39V219.06Z" fill="#F0F0F0"/>
<path d="M86.39 223.92H83.5V226.81H86.39V223.92Z" fill="#F0F0F0"/>
<path d="M86.39 228.77H83.5V231.66H86.39V228.77Z" fill="#F0F0F0"/>
<path d="M86.39 233.62H83.5V236.51H86.39V233.62Z" fill="#F0F0F0"/>
<path d="M86.39 238.48H83.5V241.37H86.39V238.48Z" fill="#F0F0F0"/>
<path d="M86.39 243.33H83.5V246.22H86.39V243.33Z" fill="#F0F0F0"/>
<path d="M86.39 248.18H83.5V251.07H86.39V248.18Z" fill="#F0F0F0"/>
<path d="M86.39 253.04H83.5V255.93H86.39V253.04Z" fill="#F0F0F0"/>
<path d="M86.39 257.89H83.5V260.78H86.39V257.89Z" fill="#F0F0F0"/>
<path d="M86.39 262.74H83.5V265.63H86.39V262.74Z" fill="#F0F0F0"/>
<path d="M86.39 267.6H83.5V270.49H86.39V267.6Z" fill="#F0F0F0"/>
<path d="M81.7899 180.24H78.8999V183.13H81.7899V180.24Z" fill="#F0F0F0"/>
<path d="M81.7899 185.09H78.8999V187.98H81.7899V185.09Z" fill="#F0F0F0"/>
<path d="M81.7899 189.95H78.8999V192.84H81.7899V189.95Z" fill="#F0F0F0"/>
<path d="M81.7899 194.8H78.8999V197.69H81.7899V194.8Z" fill="#F0F0F0"/>
<path d="M81.7899 199.65H78.8999V202.54H81.7899V199.65Z" fill="#F0F0F0"/>
<path d="M81.7899 204.51H78.8999V207.4H81.7899V204.51Z" fill="#F0F0F0"/>
<path d="M81.7899 209.36H78.8999V212.25H81.7899V209.36Z" fill="#F0F0F0"/>
<path d="M81.7899 214.21H78.8999V217.1H81.7899V214.21Z" fill="#F0F0F0"/>
<path d="M81.7899 219.06H78.8999V221.95H81.7899V219.06Z" fill="#F0F0F0"/>
<path d="M81.7899 223.92H78.8999V226.81H81.7899V223.92Z" fill="#F0F0F0"/>
<path d="M81.7899 228.77H78.8999V231.66H81.7899V228.77Z" fill="#F0F0F0"/>
<path d="M81.7899 233.62H78.8999V236.51H81.7899V233.62Z" fill="#F0F0F0"/>
<path d="M81.7899 238.48H78.8999V241.37H81.7899V238.48Z" fill="#F0F0F0"/>
<path d="M81.7899 243.33H78.8999V246.22H81.7899V243.33Z" fill="#F0F0F0"/>
<path d="M81.7899 248.18H78.8999V251.07H81.7899V248.18Z" fill="#F0F0F0"/>
<path d="M77.1999 180.24H74.3099V183.13H77.1999V180.24Z" fill="#F0F0F0"/>
<path d="M77.1999 185.09H74.3099V187.98H77.1999V185.09Z" fill="#F0F0F0"/>
<path d="M77.1999 189.95H74.3099V192.84H77.1999V189.95Z" fill="#F0F0F0"/>
<path d="M77.1999 194.8H74.3099V197.69H77.1999V194.8Z" fill="#F0F0F0"/>
<path d="M77.1999 199.65H74.3099V202.54H77.1999V199.65Z" fill="#F0F0F0"/>
<path d="M77.1999 204.51H74.3099V207.4H77.1999V204.51Z" fill="#F0F0F0"/>
<path d="M77.1999 209.36H74.3099V212.25H77.1999V209.36Z" fill="#F0F0F0"/>
<path d="M77.1999 214.21H74.3099V217.1H77.1999V214.21Z" fill="#F0F0F0"/>
<path d="M77.1999 219.06H74.3099V221.95H77.1999V219.06Z" fill="#F0F0F0"/>
<path d="M77.1999 223.92H74.3099V226.81H77.1999V223.92Z" fill="#F0F0F0"/>
<path d="M77.1999 228.77H74.3099V231.66H77.1999V228.77Z" fill="#F0F0F0"/>
<path d="M77.1999 233.62H74.3099V236.51H77.1999V233.62Z" fill="#F0F0F0"/>
<path d="M77.1999 238.48H74.3099V241.37H77.1999V238.48Z" fill="#F0F0F0"/>
<path d="M72.6 180.24H69.71V183.13H72.6V180.24Z" fill="#F0F0F0"/>
<path d="M72.6 185.09H69.71V187.98H72.6V185.09Z" fill="#F0F0F0"/>
<path d="M72.6 189.95H69.71V192.84H72.6V189.95Z" fill="#F0F0F0"/>
<path d="M72.6 194.8H69.71V197.69H72.6V194.8Z" fill="#F0F0F0"/>
<path d="M72.6 199.65H69.71V202.54H72.6V199.65Z" fill="#F0F0F0"/>
<path d="M72.6 204.51H69.71V207.4H72.6V204.51Z" fill="#F0F0F0"/>
<path d="M72.6 209.36H69.71V212.25H72.6V209.36Z" fill="#F0F0F0"/>
<path d="M72.6 214.21H69.71V217.1H72.6V214.21Z" fill="#F0F0F0"/>
<path d="M72.6 219.06H69.71V221.95H72.6V219.06Z" fill="#F0F0F0"/>
<path d="M72.6 223.92H69.71V226.81H72.6V223.92Z" fill="#F0F0F0"/>
<path d="M72.6 228.77H69.71V231.66H72.6V228.77Z" fill="#F0F0F0"/>
<path d="M72.6 233.62H69.71V236.51H72.6V233.62Z" fill="#F0F0F0"/>
<path d="M410.44 215.66H407.55V218.55H410.44V215.66Z" fill="#F0F0F0"/>
<path d="M410.44 220.51H407.55V223.41H410.44V220.51Z" fill="#F0F0F0"/>
<path d="M410.44 225.37H407.55V228.26H410.44V225.37Z" fill="#F0F0F0"/>
<path d="M410.44 230.22H407.55V233.11H410.44V230.22Z" fill="#F0F0F0"/>
<path d="M410.44 235.07H407.55V237.96H410.44V235.07Z" fill="#F0F0F0"/>
<path d="M410.44 239.92H407.55V242.81H410.44V239.92Z" fill="#F0F0F0"/>
<path d="M410.44 244.78H407.55V247.67H410.44V244.78Z" fill="#F0F0F0"/>
<path d="M410.44 249.63H407.55V252.52H410.44V249.63Z" fill="#F0F0F0"/>
<path d="M410.44 254.48H407.55V257.37H410.44V254.48Z" fill="#F0F0F0"/>
<path d="M410.44 259.34H407.55V262.23H410.44V259.34Z" fill="#F0F0F0"/>
<path d="M410.44 264.19H407.55V267.08H410.44V264.19Z" fill="#F0F0F0"/>
<path d="M410.44 269.04H407.55V271.93H410.44V269.04Z" fill="#F0F0F0"/>
<path d="M410.44 273.9H407.55V276.79H410.44V273.9Z" fill="#F0F0F0"/>
<path d="M410.44 278.75H407.55V281.64H410.44V278.75Z" fill="#F0F0F0"/>
<path d="M410.44 283.6H407.55V286.49H410.44V283.6Z" fill="#F0F0F0"/>
<path d="M410.44 288.46H407.55V291.35H410.44V288.46Z" fill="#F0F0F0"/>
<path d="M410.44 293.31H407.55V296.2H410.44V293.31Z" fill="#F0F0F0"/>
<path d="M410.44 298.16H407.55V301.05H410.44V298.16Z" fill="#F0F0F0"/>
<path d="M410.44 303.01H407.55V305.9H410.44V303.01Z" fill="#F0F0F0"/>
<path d="M410.44 307.87H407.55V310.76H410.44V307.87Z" fill="#F0F0F0"/>
<path d="M405.84 215.66H402.95V218.55H405.84V215.66Z" fill="#F0F0F0"/>
<path d="M405.84 220.51H402.95V223.41H405.84V220.51Z" fill="#F0F0F0"/>
<path d="M405.84 225.37H402.95V228.26H405.84V225.37Z" fill="#F0F0F0"/>
<path d="M405.84 230.22H402.95V233.11H405.84V230.22Z" fill="#F0F0F0"/>
<path d="M405.84 235.07H402.95V237.96H405.84V235.07Z" fill="#F0F0F0"/>
<path d="M405.84 239.92H402.95V242.81H405.84V239.92Z" fill="#F0F0F0"/>
<path d="M405.84 244.78H402.95V247.67H405.84V244.78Z" fill="#F0F0F0"/>
<path d="M405.84 249.63H402.95V252.52H405.84V249.63Z" fill="#F0F0F0"/>
<path d="M405.84 254.48H402.95V257.37H405.84V254.48Z" fill="#F0F0F0"/>
<path d="M405.84 259.34H402.95V262.23H405.84V259.34Z" fill="#F0F0F0"/>
<path d="M405.84 264.19H402.95V267.08H405.84V264.19Z" fill="#F0F0F0"/>
<path d="M405.84 269.04H402.95V271.93H405.84V269.04Z" fill="#F0F0F0"/>
<path d="M405.84 273.9H402.95V276.79H405.84V273.9Z" fill="#F0F0F0"/>
<path d="M405.84 278.75H402.95V281.64H405.84V278.75Z" fill="#F0F0F0"/>
<path d="M405.84 283.6H402.95V286.49H405.84V283.6Z" fill="#F0F0F0"/>
<path d="M405.84 288.46H402.95V291.35H405.84V288.46Z" fill="#F0F0F0"/>
<path d="M405.84 293.31H402.95V296.2H405.84V293.31Z" fill="#F0F0F0"/>
<path d="M405.84 298.16H402.95V301.05H405.84V298.16Z" fill="#F0F0F0"/>
<path d="M401.24 215.66H398.35V218.55H401.24V215.66Z" fill="#F0F0F0"/>
<path d="M401.24 220.51H398.35V223.41H401.24V220.51Z" fill="#F0F0F0"/>
<path d="M401.24 225.37H398.35V228.26H401.24V225.37Z" fill="#F0F0F0"/>
<path d="M401.24 230.22H398.35V233.11H401.24V230.22Z" fill="#F0F0F0"/>
<path d="M401.24 235.07H398.35V237.96H401.24V235.07Z" fill="#F0F0F0"/>
<path d="M401.24 239.92H398.35V242.81H401.24V239.92Z" fill="#F0F0F0"/>
<path d="M401.24 244.78H398.35V247.67H401.24V244.78Z" fill="#F0F0F0"/>
<path d="M401.24 249.63H398.35V252.52H401.24V249.63Z" fill="#F0F0F0"/>
<path d="M401.24 254.48H398.35V257.37H401.24V254.48Z" fill="#F0F0F0"/>
<path d="M401.24 259.34H398.35V262.23H401.24V259.34Z" fill="#F0F0F0"/>
<path d="M401.24 264.19H398.35V267.08H401.24V264.19Z" fill="#F0F0F0"/>
<path d="M401.24 269.04H398.35V271.93H401.24V269.04Z" fill="#F0F0F0"/>
<path d="M401.24 273.9H398.35V276.79H401.24V273.9Z" fill="#F0F0F0"/>
<path d="M401.24 278.75H398.35V281.64H401.24V278.75Z" fill="#F0F0F0"/>
<path d="M401.24 283.6H398.35V286.49H401.24V283.6Z" fill="#F0F0F0"/>
<path d="M401.24 288.46H398.35V291.35H401.24V288.46Z" fill="#F0F0F0"/>
<path d="M401.24 293.31H398.35V296.2H401.24V293.31Z" fill="#F0F0F0"/>
<path d="M401.24 298.16H398.35V301.05H401.24V298.16Z" fill="#F0F0F0"/>
<path d="M427.64 251.08H424.75V253.97H427.64V251.08Z" fill="#F0F0F0"/>
<path d="M427.64 255.93H424.75V258.82H427.64V255.93Z" fill="#F0F0F0"/>
<path d="M427.64 260.78H424.75V263.67H427.64V260.78Z" fill="#F0F0F0"/>
<path d="M427.64 265.64H424.75V268.53H427.64V265.64Z" fill="#F0F0F0"/>
<path d="M427.64 270.49H424.75V273.38H427.64V270.49Z" fill="#F0F0F0"/>
<path d="M427.64 275.34H424.75V278.23H427.64V275.34Z" fill="#F0F0F0"/>
<path d="M427.64 280.2H424.75V283.09H427.64V280.2Z" fill="#F0F0F0"/>
<path d="M427.64 285.05H424.75V287.94H427.64V285.05Z" fill="#F0F0F0"/>
<path d="M427.64 289.9H424.75V292.79H427.64V289.9Z" fill="#F0F0F0"/>
<path d="M427.64 294.76H424.75V297.65H427.64V294.76Z" fill="#F0F0F0"/>
<path d="M427.64 299.61H424.75V302.5H427.64V299.61Z" fill="#F0F0F0"/>
<path d="M427.64 304.46H424.75V307.35H427.64V304.46Z" fill="#F0F0F0"/>
<path d="M427.64 309.31H424.75V312.2H427.64V309.31Z" fill="#F0F0F0"/>
<path d="M423.04 251.08H420.15V253.97H423.04V251.08Z" fill="#F0F0F0"/>
<path d="M423.04 255.93H420.15V258.82H423.04V255.93Z" fill="#F0F0F0"/>
<path d="M423.04 260.78H420.15V263.67H423.04V260.78Z" fill="#F0F0F0"/>
<path d="M423.04 265.64H420.15V268.53H423.04V265.64Z" fill="#F0F0F0"/>
<path d="M423.04 270.49H420.15V273.38H423.04V270.49Z" fill="#F0F0F0"/>
<path d="M423.04 275.34H420.15V278.23H423.04V275.34Z" fill="#F0F0F0"/>
<path d="M423.04 280.2H420.15V283.09H423.04V280.2Z" fill="#F0F0F0"/>
<path d="M423.04 285.05H420.15V287.94H423.04V285.05Z" fill="#F0F0F0"/>
<path d="M423.04 289.9H420.15V292.79H423.04V289.9Z" fill="#F0F0F0"/>
<path d="M423.04 294.76H420.15V297.65H423.04V294.76Z" fill="#F0F0F0"/>
<path d="M423.04 299.61H420.15V302.5H423.04V299.61Z" fill="#F0F0F0"/>
<path d="M423.04 304.46H420.15V307.35H423.04V304.46Z" fill="#F0F0F0"/>
<path d="M423.04 309.31H420.15V312.2H423.04V309.31Z" fill="#F0F0F0"/>
<path d="M418.44 251.08H415.55V253.97H418.44V251.08Z" fill="#F0F0F0"/>
<path d="M418.44 255.93H415.55V258.82H418.44V255.93Z" fill="#F0F0F0"/>
<path d="M418.44 260.78H415.55V263.67H418.44V260.78Z" fill="#F0F0F0"/>
<path d="M418.44 265.64H415.55V268.53H418.44V265.64Z" fill="#F0F0F0"/>
<path d="M418.44 270.49H415.55V273.38H418.44V270.49Z" fill="#F0F0F0"/>
<path d="M418.44 275.34H415.55V278.23H418.44V275.34Z" fill="#F0F0F0"/>
<path d="M418.44 280.2H415.55V283.09H418.44V280.2Z" fill="#F0F0F0"/>
<path d="M418.44 285.05H415.55V287.94H418.44V285.05Z" fill="#F0F0F0"/>
<path d="M418.44 289.9H415.55V292.79H418.44V289.9Z" fill="#F0F0F0"/>
<path d="M418.44 294.76H415.55V297.65H418.44V294.76Z" fill="#F0F0F0"/>
<path d="M418.44 299.61H415.55V302.5H418.44V299.61Z" fill="#F0F0F0"/>
<path d="M418.44 304.46H415.55V307.35H418.44V304.46Z" fill="#F0F0F0"/>
<path d="M418.44 309.31H415.55V312.2H418.44V309.31Z" fill="#F0F0F0"/>
<path d="M418.44 314.17H415.55V317.06H418.44V314.17Z" fill="#F0F0F0"/>
<path d="M392.9 252.53H390.01V255.42H392.9V252.53Z" fill="#F0F0F0"/>
<path d="M392.9 257.38H390.01V260.27H392.9V257.38Z" fill="#F0F0F0"/>
<path d="M392.9 262.23H390.01V265.12H392.9V262.23Z" fill="#F0F0F0"/>
<path d="M392.9 267.08H390.01V269.97H392.9V267.08Z" fill="#F0F0F0"/>
<path d="M392.9 271.94H390.01V274.83H392.9V271.94Z" fill="#F0F0F0"/>
<path d="M392.9 276.79H390.01V279.68H392.9V276.79Z" fill="#F0F0F0"/>
<path d="M392.9 281.64H390.01V284.53H392.9V281.64Z" fill="#F0F0F0"/>
<path d="M392.9 286.5H390.01V289.39H392.9V286.5Z" fill="#F0F0F0"/>
<path d="M392.9 291.35H390.01V294.24H392.9V291.35Z" fill="#F0F0F0"/>
<path d="M392.9 296.2H390.01V299.09H392.9V296.2Z" fill="#F0F0F0"/>
<path d="M392.9 310.76H390.01V313.65H392.9V310.76Z" fill="#F0F0F0"/>
<path d="M388.31 252.53H385.41V255.42H388.31V252.53Z" fill="#F0F0F0"/>
<path d="M388.31 257.38H385.41V260.27H388.31V257.38Z" fill="#F0F0F0"/>
<path d="M388.31 262.23H385.41V265.12H388.31V262.23Z" fill="#F0F0F0"/>
<path d="M388.31 267.08H385.41V269.97H388.31V267.08Z" fill="#F0F0F0"/>
<path d="M388.31 271.94H385.41V274.83H388.31V271.94Z" fill="#F0F0F0"/>
<path d="M388.31 276.79H385.41V279.68H388.31V276.79Z" fill="#F0F0F0"/>
<path d="M388.31 281.64H385.41V284.53H388.31V281.64Z" fill="#F0F0F0"/>
<path d="M388.31 286.5H385.41V289.39H388.31V286.5Z" fill="#F0F0F0"/>
<path d="M388.31 291.35H385.41V294.24H388.31V291.35Z" fill="#F0F0F0"/>
<path d="M388.31 305.91H385.41V308.8H388.31V305.91Z" fill="#F0F0F0"/>
<path d="M388.31 310.76H385.41V313.65H388.31V310.76Z" fill="#F0F0F0"/>
<path d="M383.71 252.53H380.82V255.42H383.71V252.53Z" fill="#F0F0F0"/>
<path d="M383.71 257.38H380.82V260.27H383.71V257.38Z" fill="#F0F0F0"/>
<path d="M383.71 262.23H380.82V265.12H383.71V262.23Z" fill="#F0F0F0"/>
<path d="M383.71 267.08H380.82V269.97H383.71V267.08Z" fill="#F0F0F0"/>
<path d="M383.71 271.94H380.82V274.83H383.71V271.94Z" fill="#F0F0F0"/>
<path d="M383.71 276.79H380.82V279.68H383.71V276.79Z" fill="#F0F0F0"/>
<path d="M383.71 281.64H380.82V284.53H383.71V281.64Z" fill="#F0F0F0"/>
<path d="M383.71 286.5H380.82V289.39H383.71V286.5Z" fill="#F0F0F0"/>
<path d="M383.71 301.06H380.82V303.95H383.71V301.06Z" fill="#F0F0F0"/>
<path d="M383.71 305.91H380.82V308.8H383.71V305.91Z" fill="#F0F0F0"/>
<path d="M383.71 310.76H380.82V313.65H383.71V310.76Z" fill="#F0F0F0"/>
<path d="M340.96 178.79H338.07V181.68H340.96V178.79Z" fill="#F0F0F0"/>
<path d="M340.96 183.65H338.07V186.54H340.96V183.65Z" fill="#F0F0F0"/>
<path d="M340.96 188.5H338.07V191.39H340.96V188.5Z" fill="#F0F0F0"/>
<path d="M340.96 193.35H338.07V196.24H340.96V193.35Z" fill="#F0F0F0"/>
<path d="M340.96 198.2H338.07V201.09H340.96V198.2Z" fill="#F0F0F0"/>
<path d="M340.96 203.06H338.07V205.95H340.96V203.06Z" fill="#F0F0F0"/>
<path d="M340.96 207.91H338.07V210.8H340.96V207.91Z" fill="#F0F0F0"/>
<path d="M340.96 212.76H338.07V215.65H340.96V212.76Z" fill="#F0F0F0"/>
<path d="M340.96 217.62H338.07V220.51H340.96V217.62Z" fill="#F0F0F0"/>
<path d="M340.96 222.47H338.07V225.36H340.96V222.47Z" fill="#F0F0F0"/>
<path d="M340.96 227.32H338.07V230.21H340.96V227.32Z" fill="#F0F0F0"/>
<path d="M340.96 232.18H338.07V235.07H340.96V232.18Z" fill="#F0F0F0"/>
<path d="M340.96 237.03H338.07V239.92H340.96V237.03Z" fill="#F0F0F0"/>
<path d="M340.96 241.88H338.07V244.77H340.96V241.88Z" fill="#F0F0F0"/>
<path d="M340.96 246.74H338.07V249.63H340.96V246.74Z" fill="#F0F0F0"/>
<path d="M340.96 251.59H338.07V254.48H340.96V251.59Z" fill="#F0F0F0"/>
<path d="M340.96 256.44H338.07V259.33H340.96V256.44Z" fill="#F0F0F0"/>
<path d="M340.96 266.15H338.07V269.04H340.96V266.15Z" fill="#F0F0F0"/>
<path d="M340.96 271H338.07V273.89H340.96V271Z" fill="#F0F0F0"/>
<path d="M340.96 275.85H338.07V278.74H340.96V275.85Z" fill="#F0F0F0"/>
<path d="M340.96 280.71H338.07V283.6H340.96V280.71Z" fill="#F0F0F0"/>
<path d="M340.96 285.56H338.07V288.45H340.96V285.56Z" fill="#F0F0F0"/>
<path d="M336.37 178.79H333.48V181.68H336.37V178.79Z" fill="#F0F0F0"/>
<path d="M336.37 183.65H333.48V186.54H336.37V183.65Z" fill="#F0F0F0"/>
<path d="M336.37 188.5H333.48V191.39H336.37V188.5Z" fill="#F0F0F0"/>
<path d="M336.37 193.35H333.48V196.24H336.37V193.35Z" fill="#F0F0F0"/>
<path d="M336.37 198.2H333.48V201.09H336.37V198.2Z" fill="#F0F0F0"/>
<path d="M336.37 203.06H333.48V205.95H336.37V203.06Z" fill="#F0F0F0"/>
<path d="M336.37 207.91H333.48V210.8H336.37V207.91Z" fill="#F0F0F0"/>
<path d="M336.37 212.76H333.48V215.65H336.37V212.76Z" fill="#F0F0F0"/>
<path d="M336.37 217.62H333.48V220.51H336.37V217.62Z" fill="#F0F0F0"/>
<path d="M336.37 222.47H333.48V225.36H336.37V222.47Z" fill="#F0F0F0"/>
<path d="M336.37 227.32H333.48V230.21H336.37V227.32Z" fill="#F0F0F0"/>
<path d="M336.37 232.18H333.48V235.07H336.37V232.18Z" fill="#F0F0F0"/>
<path d="M336.37 237.03H333.48V239.92H336.37V237.03Z" fill="#F0F0F0"/>
<path d="M336.37 241.88H333.48V244.77H336.37V241.88Z" fill="#F0F0F0"/>
<path d="M336.37 246.74H333.48V249.63H336.37V246.74Z" fill="#F0F0F0"/>
<path d="M336.37 251.59H333.48V254.48H336.37V251.59Z" fill="#F0F0F0"/>
<path d="M336.37 280.71H333.48V283.6H336.37V280.71Z" fill="#F0F0F0"/>
<path d="M336.37 285.56H333.48V288.45H336.37V285.56Z" fill="#F0F0F0"/>
<path d="M331.77 178.79H328.88V181.68H331.77V178.79Z" fill="#F0F0F0"/>
<path d="M331.77 183.65H328.88V186.54H331.77V183.65Z" fill="#F0F0F0"/>
<path d="M331.77 188.5H328.88V191.39H331.77V188.5Z" fill="#F0F0F0"/>
<path d="M331.77 193.35H328.88V196.24H331.77V193.35Z" fill="#F0F0F0"/>
<path d="M331.77 198.2H328.88V201.09H331.77V198.2Z" fill="#F0F0F0"/>
<path d="M331.77 203.06H328.88V205.95H331.77V203.06Z" fill="#F0F0F0"/>
<path d="M331.77 207.91H328.88V210.8H331.77V207.91Z" fill="#F0F0F0"/>
<path d="M331.77 212.76H328.88V215.65H331.77V212.76Z" fill="#F0F0F0"/>
<path d="M331.77 217.62H328.88V220.51H331.77V217.62Z" fill="#F0F0F0"/>
<path d="M331.77 222.47H328.88V225.36H331.77V222.47Z" fill="#F0F0F0"/>
<path d="M331.77 227.32H328.88V230.21H331.77V227.32Z" fill="#F0F0F0"/>
<path d="M331.77 232.18H328.88V235.07H331.77V232.18Z" fill="#F0F0F0"/>
<path d="M331.77 237.03H328.88V239.92H331.77V237.03Z" fill="#F0F0F0"/>
<path d="M331.77 241.88H328.88V244.77H331.77V241.88Z" fill="#F0F0F0"/>
<path d="M331.77 246.74H328.88V249.63H331.77V246.74Z" fill="#F0F0F0"/>
<path d="M331.77 251.59H328.88V254.48H331.77V251.59Z" fill="#F0F0F0"/>
<path d="M331.77 261.3H328.88V264.19H331.77V261.3Z" fill="#F0F0F0"/>
<path d="M331.77 266.15H328.88V269.04H331.77V266.15Z" fill="#F0F0F0"/>
<path d="M331.77 271H328.88V273.89H331.77V271Z" fill="#F0F0F0"/>
<path d="M331.77 275.85H328.88V278.74H331.77V275.85Z" fill="#F0F0F0"/>
<path d="M331.77 285.56H328.88V288.45H331.77V285.56Z" fill="#F0F0F0"/>
<path d="M357.66 239.92H354.76V242.81H357.66V239.92Z" fill="#F0F0F0"/>
<path d="M357.66 244.78H354.76V247.67H357.66V244.78Z" fill="#F0F0F0"/>
<path d="M357.66 249.63H354.76V252.52H357.66V249.63Z" fill="#F0F0F0"/>
<path d="M357.66 254.48H354.76V257.37H357.66V254.48Z" fill="#F0F0F0"/>
<path d="M357.66 259.34H354.76V262.23H357.66V259.34Z" fill="#F0F0F0"/>
<path d="M357.66 264.19H354.76V267.08H357.66V264.19Z" fill="#F0F0F0"/>
<path d="M357.66 269.04H354.76V271.93H357.66V269.04Z" fill="#F0F0F0"/>
<path d="M357.66 278.75H354.76V281.64H357.66V278.75Z" fill="#F0F0F0"/>
<path d="M357.66 283.6H354.76V286.49H357.66V283.6Z" fill="#F0F0F0"/>
<path d="M357.66 288.46H354.76V291.35H357.66V288.46Z" fill="#F0F0F0"/>
<path d="M357.66 293.31H354.76V296.2H357.66V293.31Z" fill="#F0F0F0"/>
<path d="M357.66 298.16H354.76V301.05H357.66V298.16Z" fill="#F0F0F0"/>
<path d="M357.66 303.01H354.76V305.9H357.66V303.01Z" fill="#F0F0F0"/>
<path d="M357.66 307.87H354.76V310.76H357.66V307.87Z" fill="#F0F0F0"/>
<path d="M357.66 312.72H354.76V315.61H357.66V312.72Z" fill="#F0F0F0"/>
<path d="M353.05 239.92H350.16V242.81H353.05V239.92Z" fill="#F0F0F0"/>
<path d="M353.05 244.78H350.16V247.67H353.05V244.78Z" fill="#F0F0F0"/>
<path d="M353.05 249.63H350.16V252.52H353.05V249.63Z" fill="#F0F0F0"/>
<path d="M353.05 254.48H350.16V257.37H353.05V254.48Z" fill="#F0F0F0"/>
<path d="M353.05 259.34H350.16V262.23H353.05V259.34Z" fill="#F0F0F0"/>
<path d="M353.05 264.19H350.16V267.08H353.05V264.19Z" fill="#F0F0F0"/>
<path d="M353.05 278.75H350.16V281.64H353.05V278.75Z" fill="#F0F0F0"/>
<path d="M353.05 283.6H350.16V286.49H353.05V283.6Z" fill="#F0F0F0"/>
<path d="M353.05 288.46H350.16V291.35H353.05V288.46Z" fill="#F0F0F0"/>
<path d="M353.05 293.31H350.16V296.2H353.05V293.31Z" fill="#F0F0F0"/>
<path d="M353.05 298.16H350.16V301.05H353.05V298.16Z" fill="#F0F0F0"/>
<path d="M353.05 303.01H350.16V305.9H353.05V303.01Z" fill="#F0F0F0"/>
<path d="M353.05 307.87H350.16V310.76H353.05V307.87Z" fill="#F0F0F0"/>
<path d="M353.05 312.72H350.16V315.61H353.05V312.72Z" fill="#F0F0F0"/>
<path d="M348.46 239.92H345.57V242.81H348.46V239.92Z" fill="#F0F0F0"/>
<path d="M348.46 244.78H345.57V247.67H348.46V244.78Z" fill="#F0F0F0"/>
<path d="M348.46 249.63H345.57V252.52H348.46V249.63Z" fill="#F0F0F0"/>
<path d="M348.46 254.48H345.57V257.37H348.46V254.48Z" fill="#F0F0F0"/>
<path d="M348.46 259.34H345.57V262.23H348.46V259.34Z" fill="#F0F0F0"/>
<path d="M348.46 264.19H345.57V267.08H348.46V264.19Z" fill="#F0F0F0"/>
<path d="M348.46 273.9H345.57V276.79H348.46V273.9Z" fill="#F0F0F0"/>
<path d="M348.46 278.75H345.57V281.64H348.46V278.75Z" fill="#F0F0F0"/>
<path d="M348.46 283.6H345.57V286.49H348.46V283.6Z" fill="#F0F0F0"/>
<path d="M348.46 288.46H345.57V291.35H348.46V288.46Z" fill="#F0F0F0"/>
<path d="M348.46 293.31H345.57V296.2H348.46V293.31Z" fill="#F0F0F0"/>
<path d="M348.46 298.16H345.57V301.05H348.46V298.16Z" fill="#F0F0F0"/>
<path d="M348.46 303.01H345.57V305.9H348.46V303.01Z" fill="#F0F0F0"/>
<path d="M348.46 307.87H345.57V310.76H348.46V307.87Z" fill="#F0F0F0"/>
<path d="M348.46 312.72H345.57V315.61H348.46V312.72Z" fill="#F0F0F0"/>
<path d="M251.57 212.76H248.68V215.65H251.57V212.76Z" fill="#F0F0F0"/>
<path d="M251.57 217.62H248.68V220.51H251.57V217.62Z" fill="#F0F0F0"/>
<path d="M251.57 222.47H248.68V225.36H251.57V222.47Z" fill="#F0F0F0"/>
<path d="M251.57 227.32H248.68V230.21H251.57V227.32Z" fill="#F0F0F0"/>
<path d="M251.57 232.18H248.68V235.07H251.57V232.18Z" fill="#F0F0F0"/>
<path d="M251.57 237.03H248.68V239.92H251.57V237.03Z" fill="#F0F0F0"/>
<path d="M251.57 241.88H248.68V244.77H251.57V241.88Z" fill="#F0F0F0"/>
<path d="M251.57 246.74H248.68V249.63H251.57V246.74Z" fill="#F0F0F0"/>
<path d="M251.57 251.59H248.68V254.48H251.57V251.59Z" fill="#F0F0F0"/>
<path d="M251.57 256.44H248.68V259.33H251.57V256.44Z" fill="#F0F0F0"/>
<path d="M251.57 261.3H248.68V264.19H251.57V261.3Z" fill="#F0F0F0"/>
<path d="M251.57 266.15H248.68V269.04H251.57V266.15Z" fill="#F0F0F0"/>
<path d="M251.57 271H248.68V273.89H251.57V271Z" fill="#F0F0F0"/>
<path d="M251.57 280.71H248.68V283.6H251.57V280.71Z" fill="#F0F0F0"/>
<path d="M251.57 285.56H248.68V288.45H251.57V285.56Z" fill="#F0F0F0"/>
<path d="M251.57 290.41H248.68V293.3H251.57V290.41Z" fill="#F0F0F0"/>
<path d="M251.57 295.27H248.68V298.16H251.57V295.27Z" fill="#F0F0F0"/>
<path d="M251.57 304.97H248.68V307.86H251.57V304.97Z" fill="#F0F0F0"/>
<path d="M251.57 309.83H248.68V312.72H251.57V309.83Z" fill="#F0F0F0"/>
<path d="M251.57 314.68H248.68V317.57H251.57V314.68Z" fill="#F0F0F0"/>
<path d="M246.97 212.76H244.08V215.65H246.97V212.76Z" fill="#F0F0F0"/>
<path d="M246.97 217.62H244.08V220.51H246.97V217.62Z" fill="#F0F0F0"/>
<path d="M246.97 222.47H244.08V225.36H246.97V222.47Z" fill="#F0F0F0"/>
<path d="M246.97 227.32H244.08V230.21H246.97V227.32Z" fill="#F0F0F0"/>
<path d="M246.97 232.18H244.08V235.07H246.97V232.18Z" fill="#F0F0F0"/>
<path d="M246.97 237.03H244.08V239.92H246.97V237.03Z" fill="#F0F0F0"/>
<path d="M246.97 241.88H244.08V244.77H246.97V241.88Z" fill="#F0F0F0"/>
<path d="M246.97 246.74H244.08V249.63H246.97V246.74Z" fill="#F0F0F0"/>
<path d="M246.97 251.59H244.08V254.48H246.97V251.59Z" fill="#F0F0F0"/>
<path d="M246.97 256.44H244.08V259.33H246.97V256.44Z" fill="#F0F0F0"/>
<path d="M246.97 261.3H244.08V264.19H246.97V261.3Z" fill="#F0F0F0"/>
<path d="M246.97 266.15H244.08V269.04H246.97V266.15Z" fill="#F0F0F0"/>
<path d="M246.97 271H244.08V273.89H246.97V271Z" fill="#F0F0F0"/>
<path d="M246.97 285.56H244.08V288.45H246.97V285.56Z" fill="#F0F0F0"/>
<path d="M246.97 290.41H244.08V293.3H246.97V290.41Z" fill="#F0F0F0"/>
<path d="M246.97 300.12H244.08V303.01H246.97V300.12Z" fill="#F0F0F0"/>
<path d="M246.97 304.97H244.08V307.86H246.97V304.97Z" fill="#F0F0F0"/>
<path d="M246.97 309.83H244.08V312.72H246.97V309.83Z" fill="#F0F0F0"/>
<path d="M246.97 314.68H244.08V317.57H246.97V314.68Z" fill="#F0F0F0"/>
<path d="M242.37 212.76H239.48V215.65H242.37V212.76Z" fill="#F0F0F0"/>
<path d="M242.37 217.62H239.48V220.51H242.37V217.62Z" fill="#F0F0F0"/>
<path d="M242.37 222.47H239.48V225.36H242.37V222.47Z" fill="#F0F0F0"/>
<path d="M242.37 227.32H239.48V230.21H242.37V227.32Z" fill="#F0F0F0"/>
<path d="M242.37 232.18H239.48V235.07H242.37V232.18Z" fill="#F0F0F0"/>
<path d="M242.37 237.03H239.48V239.92H242.37V237.03Z" fill="#F0F0F0"/>
<path d="M242.37 241.88H239.48V244.77H242.37V241.88Z" fill="#F0F0F0"/>
<path d="M242.37 246.74H239.48V249.63H242.37V246.74Z" fill="#F0F0F0"/>
<path d="M242.37 251.59H239.48V254.48H242.37V251.59Z" fill="#F0F0F0"/>
<path d="M242.37 256.44H239.48V259.33H242.37V256.44Z" fill="#F0F0F0"/>
<path d="M242.37 261.3H239.48V264.19H242.37V261.3Z" fill="#F0F0F0"/>
<path d="M242.37 266.15H239.48V269.04H242.37V266.15Z" fill="#F0F0F0"/>
<path d="M242.37 271H239.48V273.89H242.37V271Z" fill="#F0F0F0"/>
<path d="M242.37 275.85H239.48V278.74H242.37V275.85Z" fill="#F0F0F0"/>
<path d="M242.37 285.56H239.48V288.45H242.37V285.56Z" fill="#F0F0F0"/>
<path d="M242.37 295.27H239.48V298.16H242.37V295.27Z" fill="#F0F0F0"/>
<path d="M242.37 300.12H239.48V303.01H242.37V300.12Z" fill="#F0F0F0"/>
<path d="M242.37 304.97H239.48V307.86H242.37V304.97Z" fill="#F0F0F0"/>
<path d="M242.37 309.83H239.48V312.72H242.37V309.83Z" fill="#F0F0F0"/>
<path d="M242.37 314.68H239.48V317.57H242.37V314.68Z" fill="#F0F0F0"/>
<path d="M270.3 240.44H267.41V243.33H270.3V240.44Z" fill="#F0F0F0"/>
<path d="M270.3 245.29H267.41V248.18H270.3V245.29Z" fill="#F0F0F0"/>
<path d="M270.3 250.14H267.41V253.03H270.3V250.14Z" fill="#F0F0F0"/>
<path d="M270.3 254.99H267.41V257.88H270.3V254.99Z" fill="#F0F0F0"/>
<path d="M270.3 259.85H267.41V262.74H270.3V259.85Z" fill="#F0F0F0"/>
<path d="M270.3 264.7H267.41V267.59H270.3V264.7Z" fill="#F0F0F0"/>
<path d="M270.3 279.26H267.41V282.15H270.3V279.26Z" fill="#F0F0F0"/>
<path d="M270.3 284.11H267.41V287H270.3V284.11Z" fill="#F0F0F0"/>
<path d="M270.3 288.97H267.41V291.86H270.3V288.97Z" fill="#F0F0F0"/>
<path d="M270.3 293.82H267.41V296.71H270.3V293.82Z" fill="#F0F0F0"/>
<path d="M270.3 298.67H267.41V301.56H270.3V298.67Z" fill="#F0F0F0"/>
<path d="M270.3 303.53H267.41V306.42H270.3V303.53Z" fill="#F0F0F0"/>
<path d="M270.3 308.38H267.41V311.27H270.3V308.38Z" fill="#F0F0F0"/>
<path d="M265.7 240.44H262.81V243.33H265.7V240.44Z" fill="#F0F0F0"/>
<path d="M265.7 245.29H262.81V248.18H265.7V245.29Z" fill="#F0F0F0"/>
<path d="M265.7 250.14H262.81V253.03H265.7V250.14Z" fill="#F0F0F0"/>
<path d="M265.7 254.99H262.81V257.88H265.7V254.99Z" fill="#F0F0F0"/>
<path d="M265.7 259.85H262.81V262.74H265.7V259.85Z" fill="#F0F0F0"/>
<path d="M265.7 264.7H262.81V267.59H265.7V264.7Z" fill="#F0F0F0"/>
<path d="M265.7 279.26H262.81V282.15H265.7V279.26Z" fill="#F0F0F0"/>
<path d="M265.7 284.11H262.81V287H265.7V284.11Z" fill="#F0F0F0"/>
<path d="M265.7 288.97H262.81V291.86H265.7V288.97Z" fill="#F0F0F0"/>
<path d="M265.7 293.82H262.81V296.71H265.7V293.82Z" fill="#F0F0F0"/>
<path d="M265.7 298.67H262.81V301.56H265.7V298.67Z" fill="#F0F0F0"/>
<path d="M265.7 303.53H262.81V306.42H265.7V303.53Z" fill="#F0F0F0"/>
<path d="M265.7 313.23H262.81V316.12H265.7V313.23Z" fill="#F0F0F0"/>
<path d="M112.95 219.06H110.06V221.95H112.95V219.06Z" fill="#F0F0F0"/>
<path d="M112.95 223.92H110.06V226.81H112.95V223.92Z" fill="#F0F0F0"/>
<path d="M112.95 228.77H110.06V231.66H112.95V228.77Z" fill="#F0F0F0"/>
<path d="M112.95 233.62H110.06V236.51H112.95V233.62Z" fill="#F0F0F0"/>
<path d="M112.95 238.48H110.06V241.37H112.95V238.48Z" fill="#F0F0F0"/>
<path d="M112.95 243.33H110.06V246.22H112.95V243.33Z" fill="#F0F0F0"/>
<path d="M112.95 248.18H110.06V251.07H112.95V248.18Z" fill="#F0F0F0"/>
<path d="M112.95 253.04H110.06V255.93H112.95V253.04Z" fill="#F0F0F0"/>
<path d="M112.95 257.89H110.06V260.78H112.95V257.89Z" fill="#F0F0F0"/>
<path d="M112.95 262.74H110.06V265.63H112.95V262.74Z" fill="#F0F0F0"/>
<path d="M112.95 267.6H110.06V270.49H112.95V267.6Z" fill="#F0F0F0"/>
<path d="M112.95 277.3H110.06V280.19H112.95V277.3Z" fill="#F0F0F0"/>
<path d="M112.95 282.15H110.06V285.04H112.95V282.15Z" fill="#F0F0F0"/>
<path d="M112.95 287.01H110.06V289.9H112.95V287.01Z" fill="#F0F0F0"/>
<path d="M112.95 291.86H110.06V294.75H112.95V291.86Z" fill="#F0F0F0"/>
<path d="M112.95 296.71H110.06V299.6H112.95V296.71Z" fill="#F0F0F0"/>
<path d="M112.95 301.57H110.06V304.46H112.95V301.57Z" fill="#F0F0F0"/>
<path d="M112.95 306.42H110.06V309.31H112.95V306.42Z" fill="#F0F0F0"/>
<path d="M112.95 311.27H110.06V314.16H112.95V311.27Z" fill="#F0F0F0"/>
<path d="M108.36 219.06H105.47V221.95H108.36V219.06Z" fill="#F0F0F0"/>
<path d="M108.36 223.92H105.47V226.81H108.36V223.92Z" fill="#F0F0F0"/>
<path d="M108.36 228.77H105.47V231.66H108.36V228.77Z" fill="#F0F0F0"/>
<path d="M108.36 233.62H105.47V236.51H108.36V233.62Z" fill="#F0F0F0"/>
<path d="M108.36 238.48H105.47V241.37H108.36V238.48Z" fill="#F0F0F0"/>
<path d="M108.36 243.33H105.47V246.22H108.36V243.33Z" fill="#F0F0F0"/>
<path d="M108.36 248.18H105.47V251.07H108.36V248.18Z" fill="#F0F0F0"/>
<path d="M108.36 253.04H105.47V255.93H108.36V253.04Z" fill="#F0F0F0"/>
<path d="M108.36 257.89H105.47V260.78H108.36V257.89Z" fill="#F0F0F0"/>
<path d="M108.36 262.74H105.47V265.63H108.36V262.74Z" fill="#F0F0F0"/>
<path d="M108.36 267.6H105.47V270.49H108.36V267.6Z" fill="#F0F0F0"/>
<path d="M108.36 272.45H105.47V275.34H108.36V272.45Z" fill="#F0F0F0"/>
<path d="M108.36 277.3H105.47V280.19H108.36V277.3Z" fill="#F0F0F0"/>
<path d="M108.36 282.15H105.47V285.04H108.36V282.15Z" fill="#F0F0F0"/>
<path d="M108.36 287.01H105.47V289.9H108.36V287.01Z" fill="#F0F0F0"/>
<path d="M108.36 291.86H105.47V294.75H108.36V291.86Z" fill="#F0F0F0"/>
<path d="M108.36 296.71H105.47V299.6H108.36V296.71Z" fill="#F0F0F0"/>
<path d="M108.36 301.57H105.47V304.46H108.36V301.57Z" fill="#F0F0F0"/>
<path d="M108.36 306.42H105.47V309.31H108.36V306.42Z" fill="#F0F0F0"/>
<path d="M108.36 311.27H105.47V314.16H108.36V311.27Z" fill="#F0F0F0"/>
<path d="M135.6 237.97H132.71V240.86H135.6V237.97Z" fill="#F0F0F0"/>
<path d="M135.6 242.82H132.71V245.71H135.6V242.82Z" fill="#F0F0F0"/>
<path d="M135.6 247.67H132.71V250.56H135.6V247.67Z" fill="#F0F0F0"/>
<path d="M135.6 252.53H132.71V255.42H135.6V252.53Z" fill="#F0F0F0"/>
<path d="M135.6 257.38H132.71V260.27H135.6V257.38Z" fill="#F0F0F0"/>
<path d="M135.6 262.23H132.71V265.12H135.6V262.23Z" fill="#F0F0F0"/>
<path d="M135.6 267.08H132.71V269.97H135.6V267.08Z" fill="#F0F0F0"/>
<path d="M135.6 271.94H132.71V274.83H135.6V271.94Z" fill="#F0F0F0"/>
<path d="M135.6 276.79H132.71V279.68H135.6V276.79Z" fill="#F0F0F0"/>
<path d="M135.6 281.64H132.71V284.53H135.6V281.64Z" fill="#F0F0F0"/>
<path d="M131 237.97H128.11V240.86H131V237.97Z" fill="#F0F0F0"/>
<path d="M131 242.82H128.11V245.71H131V242.82Z" fill="#F0F0F0"/>
<path d="M131 247.67H128.11V250.56H131V247.67Z" fill="#F0F0F0"/>
<path d="M131 252.53H128.11V255.42H131V252.53Z" fill="#F0F0F0"/>
<path d="M131 257.38H128.11V260.27H131V257.38Z" fill="#F0F0F0"/>
<path d="M131 262.23H128.11V265.12H131V262.23Z" fill="#F0F0F0"/>
<path d="M131 267.08H128.11V269.97H131V267.08Z" fill="#F0F0F0"/>
<path d="M131 271.94H128.11V274.83H131V271.94Z" fill="#F0F0F0"/>
<path d="M131 276.79H128.11V279.68H131V276.79Z" fill="#F0F0F0"/>
<path d="M250 372.61C357.082 372.61 443.89 367.542 443.89 361.29C443.89 355.038 357.082 349.97 250 349.97C142.917 349.97 56.11 355.038 56.11 361.29C56.11 367.542 142.917 372.61 250 372.61Z" fill="#F5F5F5"/>
<path d="M245.47 180.16L247.15 182.24L87.42 309.47L94.23 317.89L95.16 319.05L254.89 191.82L256.57 193.9L259.57 180.13L245.47 180.16Z" fill="#407BFF"/>
<path opacity="0.7" d="M245.47 180.16L247.15 182.24L87.42 309.47L94.23 317.89L95.16 319.05L254.89 191.82L256.57 193.9L259.57 180.13L245.47 180.16Z" fill="white"/>
<path d="M63.91 318.37C63.91 315.47 66.26 313.11 69.17 313.11C69.7 313.11 70.2 313.19 70.68 313.33C70.6 312.8 70.56 312.26 70.56 311.72C70.56 305.57 75.55 300.58 81.7 300.58C82.4 300.58 83.09 300.65 83.75 300.77C85.46 297.97 88.54 296.09 92.06 296.09C97.39 296.09 101.72 300.37 101.8 305.69C101.85 305.69 101.91 305.68 101.96 305.68C106.91 305.68 110.93 309.7 110.93 314.65C110.93 319.6 106.91 323.62 101.96 323.62H69.02L69.03 323.61C66.19 323.54 63.91 321.22 63.91 318.37Z" fill="#407BFF"/>
<path opacity="0.8" d="M63.91 318.37C63.91 315.47 66.26 313.11 69.17 313.11C69.7 313.11 70.2 313.19 70.68 313.33C70.6 312.8 70.56 312.26 70.56 311.72C70.56 305.57 75.55 300.58 81.7 300.58C82.4 300.58 83.09 300.65 83.75 300.77C85.46 297.97 88.54 296.09 92.06 296.09C97.39 296.09 101.72 300.37 101.8 305.69C101.85 305.69 101.91 305.68 101.96 305.68C106.91 305.68 110.93 309.7 110.93 314.65C110.93 319.6 106.91 323.62 101.96 323.62H69.02L69.03 323.61C66.19 323.54 63.91 321.22 63.91 318.37Z" fill="white"/>
<path d="M398.75 260.76L402.74 265.7L328.49 325.67L344.62 345.64L346.84 348.38L421.09 288.41L425.07 293.35L432.17 260.69L398.75 260.76Z" fill="#407BFF"/>
<path opacity="0.5" d="M398.75 260.76L402.74 265.7L328.49 325.67L344.62 345.64L346.84 348.38L421.09 288.41L425.07 293.35L432.17 260.69L398.75 260.76Z" fill="white"/>
<path d="M358.61 323.51C355.61 318.73 350.31 315.54 344.26 315.54C338.1 315.54 332.73 318.84 329.76 323.75C328.98 323.53 328.16 323.41 327.31 323.41C322.3 323.41 318.23 327.47 318.23 332.49V332.5H313.44C310.95 332.5 308.91 334.54 308.91 337.03C308.91 339.52 310.95 341.56 313.44 341.56H329.96C332.97 346.28 338.24 349.43 344.25 349.43C348.99 349.43 353.28 347.48 356.35 344.34C356.64 344.36 356.92 344.38 357.21 344.38C363 344.38 367.7 339.69 367.7 333.89C367.71 328.58 363.74 324.19 358.61 323.51Z" fill="#407BFF"/>
<path opacity="0.8" d="M358.61 323.51C355.61 318.73 350.31 315.54 344.26 315.54C338.1 315.54 332.73 318.84 329.76 323.75C328.98 323.53 328.16 323.41 327.31 323.41C322.3 323.41 318.23 327.47 318.23 332.49V332.5H313.44C310.95 332.5 308.91 334.54 308.91 337.03C308.91 339.52 310.95 341.56 313.44 341.56H329.96C332.97 346.28 338.24 349.43 344.25 349.43C348.99 349.43 353.28 347.48 356.35 344.34C356.64 344.36 356.92 344.38 357.21 344.38C363 344.38 367.7 339.69 367.7 333.89C367.71 328.58 363.74 324.19 358.61 323.51Z" fill="white"/>
<path d="M247.14 120.6L245.7 119.08C245.31 118.67 244.74 118.49 244.19 118.59L242.03 119C241.33 119.14 240.79 119.71 240.7 120.42L239.59 129.46L242.94 130.74C247.01 128.97 246.8 123.59 246.8 123.59L247.39 122.52C247.74 121.9 247.63 121.12 247.14 120.6Z" fill="#FFB573"/>
<path d="M206.77 147.69C206.77 147.69 209.97 147.88 211.85 147.84C213.74 147.81 215.63 147.78 217.48 147.67C219.33 147.55 221.16 147.42 222.84 147.19C223.67 147.07 224.48 146.92 225.12 146.75C225.42 146.66 225.71 146.57 225.84 146.52C226.06 146.42 225.82 146.59 225.94 146.53C226.25 146.26 226.86 145.54 227.39 144.87C227.94 144.17 228.49 143.42 229.04 142.66C230.14 141.13 231.23 139.54 232.31 137.94L238.84 128.25L243.94 130.97C243.19 132.84 242.38 134.64 241.56 136.46C240.72 138.26 239.86 140.06 238.97 141.85C238.07 143.64 237.13 145.42 236.12 147.2C235.61 148.09 235.08 148.98 234.49 149.89C233.88 150.82 233.33 151.69 232.27 152.84C231.7 153.47 230.66 154.24 229.99 154.57C229.25 154.97 228.62 155.22 227.99 155.46C226.76 155.9 225.65 156.18 224.55 156.43C222.37 156.92 220.29 157.2 218.22 157.4C214.08 157.81 210.1 157.97 205.95 157.87L206.77 147.69Z" fill="#407BFF"/>
<path opacity="0.7" d="M243.95 130.96C243.2 132.82 242.39 134.62 241.58 136.44C240.73 138.24 239.87 140.04 238.98 141.84C238.08 143.62 237.15 145.4 236.13 147.18C235.62 148.07 235.09 148.96 234.5 149.87C233.9 150.8 233.34 151.67 232.29 152.82C231.72 153.45 230.68 154.21 230.01 154.54C229.27 154.95 228.64 155.2 228.01 155.44C226.78 155.88 225.67 156.16 224.58 156.4C222.4 156.89 220.32 157.18 218.25 157.38C217.36 157.47 216.48 157.54 215.61 157.61C212.4 157.84 209.24 157.92 205.98 157.85L206.14 155.75L206.77 147.68C206.77 147.68 209.97 147.88 211.85 147.83C213.75 147.8 215.63 147.77 217.49 147.66C219.33 147.55 221.17 147.42 222.85 147.18C223.68 147.07 224.49 146.92 225.13 146.74C225.43 146.66 225.72 146.57 225.85 146.51C226.07 146.41 225.83 146.59 225.95 146.52C226.26 146.25 226.87 145.53 227.4 144.86C227.95 144.16 228.5 143.41 229.04 142.65C230.14 141.12 231.23 139.53 232.32 137.93L238.85 128.24L243.95 130.96Z" fill="white"/>
<path opacity="0.1" d="M215.61 157.61C212.4 157.84 209.24 157.92 205.98 157.85L206.14 155.75L206.92 153.91C206.92 153.91 212.16 153.84 215.61 157.61Z" fill="black"/>
<path d="M153.29 327.08C153.29 327.08 144.24 320.85 144.79 316.67C144.84 316.26 144.6 315.9 144.17 315.83L136.5 314.67C136.14 314.62 135.76 314.78 135.55 315.08L131.02 321.43L133.06 322.17L134.15 321.4L134.66 322.75C145.72 326.75 150.53 328.36 152.97 328.46C153.64 327.59 153.29 327.08 153.29 327.08Z" fill="black"/>
<path d="M204.27 209.44C204.27 209.44 203.81 210.64 203 212.72C202.13 214.97 200.85 218.25 199.31 222.15C198.28 224.75 197.14 227.63 195.91 230.66C190.26 244.7 182.96 262.07 178.13 270.84C168.88 287.62 144.78 319.49 144.78 319.49L135.15 315.97C135.15 315.97 152.49 283.15 161.24 266.52C163.91 261.45 166.98 253.99 170.02 245.85C171.47 241.98 172.91 237.95 174.3 233.96C174.93 232.16 175.55 230.36 176.15 228.59C177.74 223.91 179.23 219.4 180.54 215.38C180.7 214.88 180.86 214.38 181.02 213.9C181.55 212.25 182.05 210.69 182.5 209.25C184.38 203.33 185.55 199.43 185.59 199.28C185.6 199.28 185.6 199.28 185.6 199.28L194.19 203.96L204.27 209.44Z" fill="#263238"/>
<path opacity="0.3" d="M203 212.72C202.13 214.97 200.85 218.25 199.31 222.15C198.28 224.75 197.14 227.63 195.91 230.66C188.05 232.24 180.05 233.31 174.3 233.96C174.93 232.16 175.55 230.36 176.15 228.59C177.74 223.91 179.23 219.4 180.54 215.38C180.7 214.88 180.86 214.38 181.02 213.9C181.55 212.25 182.05 210.69 182.5 209.25C188.28 210.04 196.01 211.22 203 212.72Z" fill="black"/>
<path d="M173.5 153.01C173.5 153.02 173.51 153.02 173.51 153.03C174.9 157.68 175.71 163.09 176.16 168.42C176.51 172.57 176.64 176.65 176.66 180.31C176.67 184 176.56 187.27 176.44 189.77C176.28 192.98 176.09 194.96 176.09 194.96L206.47 196.52C215.59 163.48 206.77 147.68 206.77 147.68C206.77 147.68 202.98 147.3 198.62 147.49C198.06 147.51 197.49 147.55 196.9 147.6C193.18 147.91 187.26 149.08 183.31 149.98C182.5 150.16 181.68 150.37 180.88 150.59C176.92 151.67 173.5 153.01 173.5 153.01Z" fill="#407BFF"/>
<path opacity="0.7" d="M206.47 196.52L176.09 194.96C176.09 194.96 176.28 192.98 176.44 189.76C176.48 188.82 176.52 187.75 176.56 186.59C176.62 184.72 176.66 182.6 176.66 180.31C176.65 179.2 176.63 178.05 176.6 176.87C176.6 176.68 176.59 176.49 176.59 176.3C176.54 174.43 176.45 172.49 176.32 170.52C176.26 169.82 176.21 169.12 176.15 168.42C176.11 167.87 176.06 167.31 176.01 166.76C175.86 165.36 175.7 163.96 175.5 162.58C175.45 162.2 175.39 161.82 175.33 161.45C175.24 160.82 175.14 160.21 175.03 159.59C174.62 157.31 174.12 155.09 173.51 153.02C173.51 153.02 173.5 153.01 173.49 153.01C173.49 153.01 176.92 151.67 180.89 150.58C181.68 150.37 182.5 150.16 183.31 149.98C187.27 149.09 193.19 147.91 196.9 147.6C197.49 147.56 198.06 147.51 198.63 147.5C202.98 147.3 206.77 147.68 206.77 147.68C206.77 147.68 215.59 163.47 206.47 196.52Z" fill="white"/>
<path d="M225.26 275.59C225.26 275.59 216.58 268.85 217.37 264.71C217.45 264.3 217.23 263.93 216.8 263.84L209.21 262.24C208.86 262.17 208.46 262.31 208.23 262.59L203.34 268.67L205.33 269.52L206.47 268.82L206.91 270.2C217.72 274.83 222.44 276.71 224.86 276.96C225.58 276.12 225.26 275.59 225.26 275.59Z" fill="black"/>
<path d="M190.62 222.34C191.08 222.36 191.33 222.36 191.33 222.36L227.75 227.66L207.02 262.06L217.4 266C217.4 266 254.94 225.52 246.56 216.29C239.66 208.7 205.86 204.08 205.86 204.08L206.97 196.16L175.71 190.01C162.34 219.26 186.15 222.06 190.62 222.34Z" fill="#263238"/>
<path d="M175.34 193.12L174.68 192.99L175.28 190.88L175.87 191L175.34 193.12Z" fill="#263238"/>
<path d="M199.93 197.88L186.58 195.29L187.1 193.18L200.4 195.75L199.93 197.88Z" fill="#263238"/>
<path d="M201.43 195.95L207.07 197.05L206.69 199.19L200.98 198.08L201.43 195.95Z" fill="#263238"/>
<path d="M176.9 191.2L186.08 192.98L185.54 195.09L176.39 193.32L176.9 191.2Z" fill="#263238"/>
<g opacity="0.2">
<path d="M175.34 193.12L174.68 192.99L175.28 190.88L175.87 191L175.34 193.12Z" fill="white"/>
<path d="M199.93 197.88L186.58 195.29L187.1 193.18L200.4 195.75L199.93 197.88Z" fill="white"/>
<path d="M201.43 195.95L207.07 197.05L206.69 199.19L200.98 198.08L201.43 195.95Z" fill="white"/>
<path d="M176.9 191.2L186.08 192.98L185.54 195.09L176.39 193.32L176.9 191.2Z" fill="white"/>
</g>
<path d="M196.23 195.36L195.93 196.65C195.88 196.86 195.68 196.99 195.47 196.95L192.13 196.36C191.9 196.32 191.76 196.1 191.81 195.87L192.15 194.53C192.2 194.33 192.4 194.2 192.61 194.24L195.92 194.88C196.14 194.93 196.28 195.14 196.23 195.36Z" stroke="white" stroke-width="0.5891" stroke-miterlimit="10"/>
<path d="M193.46 195.47L192.44 195.29" stroke="white" stroke-width="0.5891" stroke-miterlimit="10" stroke-linecap="round" stroke-linejoin="round"/>
<path d="M186.47 136.2L194.41 142.78C193.63 146 194.98 148.97 196.55 149.52C196.55 149.52 197.71 152.28 195.48 152.75C190.96 153.69 185.8 149.31 185.8 149.31C188.18 146.73 187.31 140.31 186.47 136.2Z" fill="#EBB376"/>
<path opacity="0.2" d="M189.7 138.88L194.4 142.77C194.21 143.53 194.07 144.3 194.02 145.05C192.26 144.83 189.83 142.94 189.62 141.11C189.53 140.19 189.56 139.31 189.7 138.88Z" fill="black"/>
<path d="M193.48 123.2C195.4 124.4 198 128.01 194.77 128.87C191.54 129.74 190.17 121.14 193.48 123.2Z" fill="#263238"/>
<path d="M183.56 135.53C186.92 139.96 188.66 142.72 192.56 143.52C198.43 144.71 202.69 138.74 200.72 133.38C198.94 128.56 193.75 122.13 188.03 123.35C182.39 124.55 180.21 131.1 183.56 135.53Z" fill="#FFB573"/>
<path d="M184.55 130.71L180.52 126C180.52 126 175.19 129.92 177.61 132.29C176.01 136.04 182.35 141.28 187.89 140.2C188.53 136.82 183.6 131.03 183.6 131.03C183.91 130.96 184.23 130.84 184.55 130.71Z" fill="#263238"/>
<path d="M184.34 140.57C185.5 141.51 186.99 141.83 188.21 141.67C190.04 141.44 190.26 139.61 189.16 138.24C188.17 137.01 186.02 135.65 184.47 136.57C182.93 137.48 183.02 139.49 184.34 140.57Z" fill="#FFB573"/>
<path d="M191.39 132.08C191.64 132.46 192.04 132.63 192.29 132.46C192.53 132.29 192.53 131.85 192.28 131.48C192.03 131.1 191.63 130.93 191.38 131.1C191.14 131.27 191.14 131.71 191.39 132.08Z" fill="#263238"/>
<path d="M195.62 129.21C195.87 129.59 196.27 129.76 196.52 129.59C196.76 129.42 196.76 128.98 196.51 128.61C196.26 128.23 195.86 128.06 195.61 128.23C195.37 128.39 195.37 128.83 195.62 129.21Z" fill="#263238"/>
<path d="M194.4 130.31C194.4 130.31 196.66 131.81 198.28 132.18C198.02 133.21 196.7 133.69 196.7 133.69L194.4 130.31Z" fill="#ED893E"/>
<path d="M193.23 136.24C193.07 136.33 192.9 136.43 192.73 136.56C192.67 136.6 192.66 136.69 192.7 136.75C192.74 136.81 192.83 136.82 192.88 136.78C194.49 135.61 196.04 136.19 196.06 136.2C196.13 136.23 196.2 136.19 196.23 136.12C196.26 136.05 196.22 135.97 196.15 135.95C196.09 135.91 194.75 135.41 193.23 136.24Z" fill="#263238"/>
<path d="M188.5 130.85C188.59 130.85 188.69 130.81 188.74 130.73C189.38 129.73 190.36 129.7 190.37 129.7C190.52 129.7 190.64 129.58 190.63 129.43C190.63 129.28 190.51 129.17 190.36 129.17C190.31 129.17 189.08 129.2 188.28 130.44C188.2 130.56 188.24 130.73 188.36 130.81C188.41 130.83 188.46 130.85 188.5 130.85Z" fill="#263238"/>
<path d="M195.67 125.79C195.69 125.74 195.69 125.69 195.67 125.64C195.63 125.5 195.48 125.41 195.34 125.45C193.93 125.84 193.56 127.01 193.54 127.06C193.5 127.2 193.58 127.35 193.71 127.39C193.85 127.43 194 127.36 194.04 127.22C194.05 127.17 194.35 126.28 195.48 125.96C195.58 125.94 195.65 125.87 195.67 125.79Z" fill="#263238"/>
<path d="M183.6 131.05C183.6 131.05 194.16 126.61 194.8 121.55C195.45 116.49 190.99 118.56 190.99 118.56C190.99 118.56 193.05 118.42 192.85 119.92C192.85 119.92 189.28 117.49 185.89 119.58C185.89 119.58 187.48 119.55 188.31 120.73C188.31 120.73 185.08 121.36 181.46 124.04C177.85 126.72 171.34 136.33 183.6 131.05Z" fill="#263238"/>
<path opacity="0.3" d="M205.86 204.09L188.65 202.11C188.65 202.11 195.46 200.99 206.24 201.39L205.86 204.09Z" fill="black"/>
<path opacity="0.1" d="M176.32 170.52C176.26 169.82 176.21 169.12 176.15 168.42C176.11 167.87 176.06 167.31 176.01 166.76C175.86 165.36 175.7 163.96 175.5 162.58C175.45 162.2 175.39 161.82 175.33 161.45C175.79 161.08 176.3 160.74 176.84 160.44C176.84 160.44 177.82 165.49 176.32 170.52Z" fill="black"/>
<path d="M147.65 195.09L144.66 202.11L151.13 203.71C151.13 203.71 153.91 199.1 151.2 195.58L147.65 195.09Z" fill="#EBB376"/>
<path d="M145.12 207.52L150.23 207.56L151.13 203.71L144.66 202.11L145.12 207.52Z" fill="#EBB376"/>
<path d="M176.76 157.87C177.21 162.27 175.7 164.06 175.7 164.06C175.7 164.06 171.44 166.74 169.59 168.11C168.02 169.29 166.48 170.5 165.02 171.7C164.3 172.31 163.6 172.92 162.96 173.53C162.33 174.13 161.74 174.76 161.36 175.24C161.19 175.43 161.02 175.75 160.85 176.03C160.67 176.32 160.48 176.76 160.28 177.12C159.89 177.93 159.5 178.78 159.13 179.68C158.39 181.47 157.69 183.33 157.03 185.22C155.64 188.98 154.36 192.86 153.03 196.67L147.12 195.27C147.72 191.12 148.53 187.08 149.47 182.98C149.96 180.94 150.51 178.9 151.14 176.83C151.45 175.79 151.81 174.74 152.21 173.66C152.45 173.09 152.64 172.58 152.94 171.97C153.26 171.35 153.55 170.75 153.98 170.11C154.78 168.91 155.56 168.01 156.36 167.14C157.15 166.28 157.94 165.49 158.74 164.72C160.33 163.19 161.96 161.8 163.62 160.46C166.93 157.77 170.25 155.31 173.81 152.94C173.8 152.92 176.36 153.89 176.76 157.87Z" fill="#407BFF"/>
<path opacity="0.7" d="M176.76 157.87C177.21 162.27 175.7 164.06 175.7 164.06C175.7 164.06 171.44 166.74 169.59 168.11C168.02 169.29 166.48 170.5 165.02 171.7C164.3 172.31 163.6 172.92 162.96 173.53C162.33 174.13 161.74 174.76 161.36 175.24C161.19 175.43 161.02 175.75 160.85 176.03C160.67 176.32 160.48 176.76 160.28 177.12C159.89 177.93 159.5 178.78 159.13 179.68C158.39 181.47 157.69 183.33 157.03 185.22C155.64 188.98 154.36 192.86 153.03 196.67L147.12 195.27C147.72 191.12 148.53 187.08 149.47 182.98C149.96 180.94 150.51 178.9 151.14 176.83C151.45 175.79 151.81 174.74 152.21 173.66C152.45 173.09 152.64 172.58 152.94 171.97C153.26 171.35 153.55 170.75 153.98 170.11C154.78 168.91 155.56 168.01 156.36 167.14C157.15 166.28 157.94 165.49 158.74 164.72C160.33 163.19 161.96 161.8 163.62 160.46C166.93 157.77 170.25 155.31 173.81 152.94C173.8 152.92 176.36 153.89 176.76 157.87Z" fill="white"/>
<path d="M190.19 151.97L192.41 155.46C192.41 155.46 184.66 164.86 169.82 167.96L168.83 170.98L171.98 171.81C171.98 171.81 188 167.66 194.4 155.64L197.7 151.96L193.81 150.65L190.19 151.97Z" fill="#407BFF"/>
<path d="M183 149.86L186.62 146.7L193.82 150.65L194.65 146.33L198.45 148.52L199.54 154.1L194.23 151.81L189.49 156.04L183 149.86Z" fill="#407BFF"/>
<path opacity="0.6" d="M183 149.86L186.62 146.7L193.82 150.65L194.65 146.33L198.45 148.52L199.54 154.1L194.23 151.81L189.49 156.04L183 149.86Z" fill="white"/>
<path d="M282.19 87.3201C282.19 87.3201 275.47 95.6601 268.64 94.9701C261.82 94.2801 258.33 97.0501 258.33 97.0501L257.66 100.38L261.32 99.8901C261.32 99.8901 261.32 97.2501 268.44 97.5501C275.56 97.8501 280.9 91.7201 282.98 88.9501L282.19 87.3201Z" fill="#407BFF"/>
<path d="M330.49 73.4599L330.35 72.8C330.28 72.54 330.32 72.51 330.07 71.86C329.68 70.85 329.02 70.0099 328.44 69.4899C327.24 68.4099 326.24 68.03 325.38 67.69C323.67 67.08 322.31 66.89 320.96 66.73C319.62 66.58 318.36 66.51 317.11 66.48C314.62 66.41 312.22 66.53 309.84 66.68C305.07 66.99 300.48 67.56 295.77 68.37L297.49 78.22C301.8 77.53 306.3 76.8999 310.65 76.4499C312.83 76.2299 315.01 76.0899 317.09 76.0299C318.13 75.9999 319.15 76.0099 320.1 76.07C320.76 76.11 321.42 76.1799 321.91 76.2699C321.94 76.6099 321.95 76.98 321.94 77.37C321.88 79.07 321.45 81.06 320.87 83.04C319.7 87.02 317.85 91.16 315.95 95.0299L320.7 98.19C323.73 94.36 326.23 90.37 328.29 85.79C329.28 83.48 330.15 81.04 330.55 78.18C330.74 76.75 330.8 75.1899 330.49 73.4599Z" fill="#407BFF"/>
<path opacity="0.7" d="M330.54 78.1799C330.22 80.5399 329.56 82.6199 328.79 84.5699C328.63 84.9799 328.46 85.3899 328.29 85.7899C326.22 90.3699 323.72 94.3499 320.69 98.1799L315.95 95.0199C317.85 91.1499 319.69 87.0199 320.87 83.0299C321.27 81.6599 321.6 80.2799 321.78 78.9999C321.87 78.4299 321.92 77.8799 321.94 77.3599C321.95 76.9699 321.94 76.5999 321.91 76.2599C321.42 76.1699 320.76 76.0999 320.1 76.0599C319.15 75.9999 318.13 75.9999 317.09 76.0199C317.01 76.0199 316.94 76.0299 316.86 76.0299C314.84 76.0999 312.75 76.2399 310.64 76.4499C306.42 76.8899 302.08 77.4899 297.89 78.1599C297.75 78.1799 297.62 78.1999 297.49 78.2199L295.77 68.3599C300.49 67.5499 305.07 66.9899 309.84 66.6699C312.22 66.5199 314.62 66.3999 317.11 66.4699C318.36 66.4999 319.62 66.5699 320.96 66.7199C322.31 66.8899 323.67 67.0799 325.38 67.6799C326.24 68.0199 327.23 68.3999 328.44 69.4799C329.02 69.9999 329.68 70.8399 330.07 71.8499C330.31 72.4999 330.28 72.5299 330.35 72.7899L330.49 73.4499C330.8 75.1799 330.73 76.7399 330.54 78.1799Z" fill="white"/>
<path opacity="0.1" d="M316.86 76.0299C314.84 76.0999 312.75 76.2399 310.64 76.4499C306.42 76.8899 302.08 77.4899 297.89 78.1599C299.42 74.3999 300.99 70.5999 300.99 70.5999C300.99 70.5999 307.99 71.2699 316.86 76.0299Z" fill="black"/>
<path opacity="0.1" d="M328.79 84.57C328.63 84.98 328.46 85.39 328.29 85.79C326.22 90.37 323.72 94.35 320.69 98.18L315.95 95.02C317.85 91.15 319.69 87.02 320.87 83.03C321.27 81.66 321.6 80.28 321.78 79C324.09 80.55 326.45 82.39 328.79 84.57Z" fill="black"/>
<path d="M264.88 75.4401C265.15 75.7901 265.19 76.2101 264.97 76.3901C264.74 76.5701 264.34 76.4301 264.07 76.0901C263.8 75.7401 263.76 75.3201 263.98 75.1401C264.21 74.9601 264.61 75.0901 264.88 75.4401Z" fill="#263238"/>
<path d="M265.23 76.1799C265.23 76.1799 266.02 78.7999 265.91 80.4399C266.97 80.5299 267.81 79.4499 267.81 79.4499L265.23 76.1799Z" fill="#DE5753"/>
<path d="M264.63 72.5201C264.67 72.4701 264.69 72.4101 264.69 72.3401C264.68 72.2001 264.56 72.0901 264.42 72.0901C262.99 72.1501 262.37 73.1701 262.35 73.2201C262.28 73.3401 262.32 73.5001 262.44 73.5701C262.56 73.6401 262.72 73.6001 262.79 73.4801C262.81 73.4501 263.3 72.6601 264.44 72.6001C264.52 72.6001 264.59 72.5701 264.63 72.5201Z" fill="#263238"/>
<path d="M274.84 70.0901C278.14 72.4701 284.47 76.2401 288.06 74.8101C288.06 74.8101 291.29 77.5001 288.19 84.2401C284.78 91.6601 282.88 86.0901 282.88 86.0901C283.77 81.6001 280.72 80.3201 277.58 79.7301L274.84 70.0901Z" fill="#E4897B"/>
<path d="M275.84 65.5901C278.93 70.0401 280.97 72.4901 280.55 76.3601C279.91 82.1901 273.14 84.3801 268.78 80.9401C264.85 77.8501 260.45 71.0801 263.28 66.1101C266.04 61.2201 272.74 61.1401 275.84 65.5901Z" fill="#E4897B"/>
<path d="M280.81 72.94C280.35 75.46 271.85 78.91 268 73.47C268 73.47 263.16 73.43 260.26 70.52C257.35 67.6 257.98 64.44 260.58 62.72C262.88 61.2 268.82 50.04 275.74 58.01C283.24 57.71 281.38 69.79 280.81 72.94Z" fill="#263238"/>
<path d="M266.46 61.5201C266.46 61.5201 262 61.3001 259.43 63.3501C256.86 65.3901 257.58 71.6601 258.57 72.8501C259.56 74.0301 260.61 74.0301 260.61 74.0301C260.61 74.0301 259.09 73.24 259.09 72.09C259.09 72.09 259.75 73.6401 262.78 74.0301C262.78 74.0301 261.92 73.3401 262.05 72.4601C262.05 72.4601 263.69 74.5901 267.49 72.4601C271.29 70.3401 266.46 61.5201 266.46 61.5201Z" fill="#263238"/>
<path d="M270.25 72.54C271.07 73.7 271.39 75.15 271.32 76.33C271.21 78.1 269.73 78.24 268.57 77.12C267.52 76.12 266.32 73.99 267 72.51C267.67 71.06 269.31 71.21 270.25 72.54Z" fill="#E4897B"/>
<path d="M279.13 87.3201C279.13 87.3201 278.3 77.2501 284.87 71.6001L292.7 72.3201C292.7 72.3201 288.19 83.3201 279.13 87.3201Z" fill="#407BFF"/>
<path opacity="0.6" d="M279.13 87.3201C279.13 87.3201 278.3 77.2501 284.87 71.6001L292.7 72.3201C292.7 72.3201 288.19 83.3201 279.13 87.3201Z" fill="white"/>
<path d="M301.7 109.96C301.7 109.96 289.86 98.3399 276.77 90.1999C276.77 90.1999 285.49 69.7299 296.53 67.9099C296.53 67.9099 325.06 76.5299 333.34 99.8799L301.7 109.96Z" fill="#407BFF"/>
<path d="M303.2 180.87L298.1 183.04L292.57 171.42L297.68 169.26L303.2 180.87Z" fill="#E4897B"/>
<path d="M333.34 99.8799L330.33 131.85C328.67 133.08 326.04 134.03 322.85 134.77C316.61 136.22 308.29 136.88 301.1 137.27C293.03 137.71 286.4 137.79 285.8 138.26C284.4 139.35 302.17 176.06 302.17 176.06L293.69 177.12C293.69 177.12 271.4 146.54 268.51 135.92C267.45 132 266.38 127.09 273.58 122.5C279.92 118.46 303.52 115.43 303.52 115.43L301.7 109.98L333.34 99.8799Z" fill="#263238"/>
<path opacity="0.2" d="M322.85 134.77C316.61 136.22 308.29 136.88 301.1 137.27C300.13 125.47 306.06 114.16 306.06 114.16L314.5 111.99L322.85 134.77Z" fill="black"/>
<path d="M377.59 176.16L378.5 181.64L365.91 184.28L365 178.8L377.59 176.16Z" fill="#E4897B"/>
<path d="M378.76 181.84C378.72 181.8 378.66 181.79 378.61 181.81C378.56 181.83 378.53 181.88 378.53 181.94C378.53 182.03 378.61 184.27 379.31 184.92C379.45 185.05 379.61 185.12 379.79 185.11C380.1 185.1 380.23 184.95 380.28 184.82C380.43 184.46 380.15 183.82 379.78 183.21C379.44 182.64 379.01 182.1 378.76 181.84ZM378.82 182.3C379.49 183.1 380.21 184.3 380.04 184.71C380.02 184.76 379.97 184.83 379.78 184.84C379.68 184.84 379.58 184.8 379.49 184.72C379.43 184.67 379.38 184.6 379.33 184.52C379 183.97 378.87 182.88 378.82 182.3Z" fill="#407BFF"/>
<path d="M378.72 181.81C378.68 181.79 378.63 181.8 378.59 181.83C378.54 181.87 377.35 182.78 377.22 183.68C377.18 183.96 377.25 184.2 377.41 184.42C377.63 184.71 377.84 184.7 377.98 184.64C378.57 184.4 378.89 182.64 378.8 181.91C378.8 181.89 378.79 181.87 378.78 181.86C378.77 181.84 378.75 181.82 378.72 181.81ZM377.48 183.71C377.56 183.12 378.22 182.48 378.55 182.19C378.56 182.99 378.23 184.25 377.88 184.4C377.85 184.41 377.76 184.45 377.62 184.26C377.6 184.24 377.59 184.22 377.58 184.19C377.49 184.05 377.46 183.89 377.48 183.71Z" fill="#407BFF"/>
<path d="M377.81 181.76L374.63 176.6C374.51 176.41 374.54 176.16 374.7 176L378.33 172.48C378.71 172.11 379.32 172.19 379.59 172.64C380.7 174.52 382.25 177.28 383.69 179.62C385.37 182.36 386.98 184.63 388.95 187.83C390.14 189.77 388.52 191.52 387.84 190.81C384.75 187.61 382.81 184.65 378.87 182.67C378.45 182.46 378.06 182.17 377.81 181.76Z" fill="#263238"/>
<path d="M333.34 99.8799C333.34 99.8799 343.5 126.01 326.36 136.15C326.36 136.15 326.14 166.35 330.48 169.88C335.76 174.19 374.39 176.38 374.39 176.38L374.05 185.97C374.05 185.97 332.69 189.36 320.17 184.86C305.51 179.6 302.24 110.41 302.24 110.41L333.34 99.8799Z" fill="#263238"/>
<path opacity="0.2" d="M321.59 115.92L327.76 114.05C327.76 114.05 328.61 119.36 328.6 122.21L325.74 124.67L323.03 123.81C323.03 123.81 322.29 118.13 321.59 115.92Z" fill="black"/>
<path d="M303.74 109.99L304.54 112.53L302.25 113.23L301.45 110.72L303.74 109.99Z" fill="#263238"/>
<path d="M314.27 106.61L315.13 109.24L305.68 112.17L304.84 109.63L314.27 106.61Z" fill="#263238"/>
<path d="M326.04 102.83L326.9 105.59L316.33 108.87L315.49 106.22L326.04 102.83Z" fill="#263238"/>
<path d="M334.64 103.19L328.13 105.21H328.12L327.25 102.44L333.71 100.37L334.64 103.19Z" fill="#263238"/>
<g opacity="0.2">
<path d="M303.74 109.99L304.54 112.53L302.25 113.23L301.45 110.72L303.74 109.99Z" fill="white"/>
<path d="M314.27 106.61L315.13 109.24L305.68 112.17L304.84 109.63L314.27 106.61Z" fill="white"/>
<path d="M326.04 102.83L326.9 105.59L316.33 108.87L315.49 106.22L326.04 102.83Z" fill="white"/>
<path d="M334.64 103.19L328.13 105.21H328.12L327.25 102.44L333.71 100.37L334.64 103.19Z" fill="white"/>
</g>
<path d="M296.53 181.42C296.58 181.41 296.62 181.36 296.63 181.31C296.64 181.26 296.61 181.2 296.56 181.18C296.48 181.13 294.51 180.08 293.59 180.35C293.4 180.41 293.26 180.51 293.18 180.67C293.03 180.95 293.1 181.13 293.18 181.24C293.42 181.55 294.11 181.64 294.82 181.62C295.49 181.6 296.18 181.49 296.53 181.42ZM296.1 181.23C295.07 181.4 293.67 181.43 293.4 181.07C293.37 181.02 293.33 180.94 293.42 180.78C293.47 180.69 293.55 180.63 293.67 180.59C293.75 180.57 293.83 180.56 293.92 180.55C294.57 180.54 295.58 180.98 296.1 181.23Z" fill="#407BFF"/>
<path d="M296.58 181.39C296.62 181.36 296.64 181.32 296.63 181.27C296.62 181.21 296.44 179.72 295.72 179.15C295.5 178.98 295.25 178.91 294.99 178.94C294.63 178.99 294.53 179.17 294.51 179.32C294.42 179.95 295.78 181.12 296.46 181.4C296.48 181.41 296.5 181.41 296.51 181.41C296.53 181.42 296.56 181.41 296.58 181.39ZM295.56 179.36C296.03 179.73 296.25 180.62 296.33 181.05C295.64 180.66 294.71 179.73 294.77 179.36C294.77 179.33 294.79 179.24 295.02 179.21C295.05 179.21 295.07 179.2 295.1 179.2C295.26 179.2 295.41 179.25 295.56 179.36Z" fill="#407BFF"/>
<path d="M297.07 180.63L303.13 180.49C303.36 180.48 303.56 180.64 303.61 180.86L304.82 185.77C304.95 186.28 304.57 186.77 304.05 186.78C301.86 186.79 298.7 186.74 295.96 186.81C292.75 186.89 289.98 187.13 286.21 187.22C283.93 187.27 283.25 184.99 284.19 184.76C288.51 183.71 292.05 183.52 295.74 181.12C296.15 180.83 296.59 180.64 297.07 180.63Z" fill="#263238"/>
<path opacity="0.7" d="M333.34 99.8799L301.7 109.96C301.7 109.96 296.12 104.49 288.39 98.4199C286.92 97.2699 285.38 96.0999 283.78 94.9399C281.53 93.2999 279.17 91.6899 276.77 90.1999C276.77 90.1999 285.49 69.7299 296.53 67.9099C296.53 67.9099 325.06 76.5199 333.34 99.8799Z" fill="white"/>
<path opacity="0.1" d="M288.39 98.4201C286.92 97.2701 285.38 96.1001 283.78 94.9401L284.4 93.0701C284.4 93.0701 287.06 95.3101 288.39 98.4201Z" fill="black"/>
<path d="M242.68 119.3L240.5 119.82C239.96 119.95 239.54 120.39 239.45 120.95L238.96 123.99C238.86 124.63 239.21 125.26 239.81 125.5L241.4 126.14C241.4 126.14 246 129.46 249.89 127.32L248.21 122.87L244.92 119.89C244.32 119.33 243.48 119.11 242.68 119.3Z" fill="#E4897B"/>
<path d="M282.39 91.0101C285.19 92.6901 285.43 96.1501 285.43 96.1501C285.43 96.1501 283.23 102.11 281.96 105.08C281.09 107.09 280.2 109.11 279.15 111.12C278.07 113.15 277.03 115.13 275.26 117.33L274.92 117.74L274.51 118.18C274.26 118.46 273.9 118.79 273.54 119.1C273.39 119.24 273.11 119.44 272.88 119.6C272.65 119.76 272.34 119.97 272.24 120L271.39 120.44C270.29 120.99 269.26 121.43 268.22 121.85C266.17 122.69 264.13 123.42 262.09 124.13C258 125.5 253.93 126.75 249.75 127.8L247.77 122.45C251.52 120.53 255.34 118.71 259.07 116.84C260.94 115.91 262.8 114.98 264.58 114.04C265.46 113.57 266.34 113.08 267.09 112.62L267.63 112.28C267.78 112.2 267.66 112.24 267.65 112.24C267.63 112.24 267.58 112.3 267.61 112.25C267.64 112.2 267.67 112.18 267.77 112.05L267.89 111.9L268.03 111.69C268.84 110.51 269.76 108.72 270.55 106.95C271.34 105.15 272.14 103.28 272.87 101.37C274.32 97.5701 275.72 93.6001 277.02 89.7601C277.02 89.7601 279.42 89.2301 282.39 91.0101Z" fill="#407BFF"/>
<path opacity="0.7" d="M282.39 91.0101C285.19 92.6901 285.43 96.1501 285.43 96.1501C285.43 96.1501 283.23 102.11 281.96 105.08C281.09 107.09 280.2 109.11 279.15 111.12C278.07 113.15 277.03 115.13 275.26 117.33L274.92 117.74L274.51 118.18C274.26 118.46 273.9 118.79 273.54 119.1C273.39 119.24 273.11 119.44 272.88 119.6C272.65 119.76 272.34 119.97 272.24 120L271.39 120.44C270.29 120.99 269.26 121.43 268.22 121.85C266.17 122.69 264.13 123.42 262.09 124.13C258 125.5 253.93 126.75 249.75 127.8L247.77 122.45C251.52 120.53 255.34 118.71 259.07 116.84C260.94 115.91 262.8 114.98 264.58 114.04C265.46 113.57 266.34 113.08 267.09 112.62L267.63 112.28C267.78 112.2 267.66 112.24 267.65 112.24C267.63 112.24 267.58 112.3 267.61 112.25C267.64 112.2 267.67 112.18 267.77 112.05L267.89 111.9L268.03 111.69C268.84 110.51 269.76 108.72 270.55 106.95C271.34 105.15 272.14 103.28 272.87 101.37C274.32 97.5701 275.72 93.6001 277.02 89.7601C277.02 89.7601 279.42 89.2301 282.39 91.0101Z" fill="white"/>
<path d="M99.51 356.36H268.39L357.77 284.17L361.69 289.02H383.7L406.12 185.79L384.1 185.83L384.11 185.79L278.47 186L291.08 201.61L99.51 356.36Z" fill="#407BFF"/>
<path opacity="0.2" d="M99.51 356.36H246.38L349.07 273.41L361.69 289.02L384.11 185.79L278.47 186L291.08 201.61L99.51 356.36Z" fill="white"/>
<path d="M96.07 350.41H217.33C217.27 349.9 217.24 349.38 217.24 348.85C217.24 341.06 223.55 334.75 231.34 334.75C231.51 334.75 231.68 334.77 231.85 334.78C233.62 330.04 238.17 326.66 243.53 326.66C250.42 326.66 256 332.24 256 339.13C256 339.14 256 339.15 256 339.16C262.11 339.45 267 344.32 267.32 350.42H267.89C271.34 350.42 274.16 353.24 274.16 356.69C274.16 360.14 271.34 362.96 267.89 362.96H96.07C92.62 362.96 89.8 360.14 89.8 356.69C89.8 353.23 92.62 350.41 96.07 350.41Z" fill="#407BFF"/>
<path opacity="0.7" d="M96.07 350.41H217.33C217.27 349.9 217.24 349.38 217.24 348.85C217.24 341.06 223.55 334.75 231.34 334.75C231.51 334.75 231.68 334.77 231.85 334.78C233.62 330.04 238.17 326.66 243.53 326.66C250.42 326.66 256 332.24 256 339.13C256 339.14 256 339.15 256 339.16C262.11 339.45 267 344.32 267.32 350.42H267.89C271.34 350.42 274.16 353.24 274.16 356.69C274.16 360.14 271.34 362.96 267.89 362.96H96.07C92.62 362.96 89.8 360.14 89.8 356.69C89.8 353.23 92.62 350.41 96.07 350.41Z" fill="white"/>
</g>
<defs>
<clipPath id="clip0_381_825">
<rect width="500" height="372.61" fill="white"/>
</clipPath>
</defs>
</svg>
