<svg width="398" height="400" viewBox="0 0 398 400" fill="none" xmlns="http://www.w3.org/2000/svg">
<g clip-path="url(#clip0_375_1167)">
<path opacity="0.26" d="M299.824 318.309L236.19 276.077L299.013 233.222L299.23 255.912L398 255.854V298.719L299.638 298.86L299.824 318.309Z" fill="#1E4F9E"/>
<path opacity="0.26" d="M273.858 129.538L210.225 87.5709L273.048 44.4509L273.264 67.1407L398 66.7976V109.987L273.673 110.089L273.858 129.538Z" fill="#1E4F9E"/>
<path opacity="0.26" d="M208.869 230.727L145.237 188.494L208.06 145.64L208.275 168.33L398 167.765V211.387L208.685 211.278L208.869 230.727Z" fill="#1E4F9E"/>
<g opacity="0.9">
<path d="M376.576 324.259H338.116C338.116 324.259 335.132 313.955 341.099 313.623C347.067 313.29 347.067 313.29 347.067 313.29C347.067 313.29 344.415 305.646 348.725 304.981C353.035 304.316 358.009 301.989 358.671 308.637C358.671 308.637 365.965 305.313 367.955 307.639C369.944 309.965 369.613 315.949 369.613 315.949C369.613 315.949 378.234 312.293 376.576 324.259Z" fill="white"/>
<path d="M55.8526 297.93H17.3926C17.3926 297.93 14.4089 287.627 20.3762 287.294C26.3436 286.962 26.3436 286.962 26.3436 286.962C26.3436 286.962 23.6916 279.317 28.0019 278.652C32.3123 277.987 37.2859 275.661 37.9479 282.308C37.9479 282.308 45.2419 278.984 47.2319 281.311C49.2206 283.637 48.8903 289.62 48.8903 289.62C48.8903 289.62 57.5096 285.964 55.8526 297.93Z" fill="white"/>
<path d="M386.187 249.262H358.808C358.808 249.262 356.684 241.927 360.932 241.69C365.18 241.453 365.18 241.453 365.18 241.453C365.18 241.453 363.292 236.011 366.36 235.537C369.429 235.064 372.97 233.408 373.441 238.14C373.441 238.14 378.633 235.774 380.05 237.43C381.466 239.086 381.231 243.346 381.231 243.346C381.231 243.346 387.367 240.743 386.187 249.262Z" fill="white"/>
<path d="M36.2167 233.421H18.5521C18.5521 233.421 17.1817 228.689 19.9226 228.536C22.6635 228.383 22.6635 228.383 22.6635 228.383C22.6635 228.383 21.4456 224.872 23.425 224.566C25.4044 224.26 27.6889 223.192 27.9927 226.246C27.9927 226.246 31.3425 224.719 32.2566 225.788C33.1707 226.856 33.0181 229.606 33.0181 229.606C33.0181 229.606 36.9782 227.926 36.2167 233.421Z" fill="white"/>
<path d="M195.598 306.765H135.275C135.275 306.765 130.594 290.603 139.955 290.082C149.316 289.561 149.316 289.561 149.316 289.561C149.316 289.561 145.156 277.569 151.917 276.527C158.677 275.484 166.478 271.834 167.518 282.262C167.518 282.262 178.959 277.048 182.08 280.697C185.2 284.347 184.68 293.731 184.68 293.731C184.68 293.731 198.199 287.998 195.598 306.765Z" fill="white"/>
<path d="M219.86 253.841H201.444C201.444 253.841 200.015 248.906 202.873 248.747C205.73 248.587 205.73 248.587 205.73 248.587C205.73 248.587 204.461 244.926 206.523 244.608C208.588 244.29 210.969 243.176 211.286 246.358C211.286 246.358 214.779 244.766 215.732 245.881C216.684 246.995 216.525 249.86 216.525 249.86C216.525 249.86 220.655 248.111 219.86 253.841Z" fill="white"/>
<path d="M306.607 229.108H288.19C288.19 229.108 286.762 224.174 289.619 224.014C292.477 223.855 292.477 223.855 292.477 223.855C292.477 223.855 291.207 220.193 293.27 219.875C295.335 219.557 297.716 218.443 298.033 221.626C298.033 221.626 301.526 220.034 302.479 221.148C303.431 222.263 303.272 225.127 303.272 225.127C303.272 225.127 307.402 223.377 306.607 229.108Z" fill="white"/>
</g>
<path d="M84.1107 10.7314H0.00403595V358.307L84.1107 358.038V10.7314Z" fill="#1E4F9E"/>
<path d="M309.283 273.187H312.43V270.032C312.43 269.638 312.752 269.315 313.145 269.315C313.538 269.315 313.86 269.638 313.86 270.032V273.187H317.007C317.401 273.187 317.722 273.51 317.722 273.904C317.722 274.297 317.4 274.621 317.007 274.621H313.86V277.775C313.86 278.17 313.538 278.492 313.145 278.492C312.751 278.492 312.43 278.169 312.43 277.775V274.621H309.283C308.889 274.621 308.568 274.297 308.568 273.904C308.568 273.51 308.889 273.187 309.283 273.187Z" fill="white"/>
<path d="M354.589 23.147H357.736V19.9922C357.736 19.5985 358.058 19.2753 358.451 19.2753C358.845 19.2753 359.166 19.5985 359.166 19.9922V23.147H362.313C362.707 23.147 363.028 23.4701 363.028 23.8638C363.028 24.2575 362.705 24.5807 362.313 24.5807H359.166V27.7355C359.166 28.1305 358.843 28.4523 358.451 28.4523C358.057 28.4523 357.736 28.1291 357.736 27.7355V24.5807H354.589C354.195 24.5807 353.874 24.2575 353.874 23.8638C353.874 23.4701 354.195 23.147 354.589 23.147Z" fill="white"/>
<path d="M178.453 70.2011H180.813V67.835C180.813 67.5397 181.054 67.2977 181.349 67.2977C181.643 67.2977 181.885 67.5397 181.885 67.835V70.2011H184.245C184.539 70.2011 184.781 70.4431 184.781 70.7384C184.781 71.0336 184.539 71.2757 184.245 71.2757H181.886V73.6418C181.886 73.937 181.645 74.1791 181.35 74.1791C181.055 74.1791 180.814 73.937 180.814 73.6418V71.2757H178.454C178.159 71.2757 177.918 71.0336 177.918 70.7384C177.918 70.4431 178.158 70.2011 178.453 70.2011Z" fill="white"/>
<path d="M256.754 40.159H259.114V37.7929C259.114 37.4977 259.355 37.2556 259.65 37.2556C259.944 37.2556 260.186 37.4977 260.186 37.7929V40.159H262.547C262.842 40.159 263.083 40.4011 263.083 40.6963C263.083 40.9916 262.842 41.2336 262.547 41.2336H260.187V43.5997C260.187 43.895 259.946 44.137 259.651 44.137C259.357 44.137 259.115 43.895 259.115 43.5997V41.235H256.755C256.461 41.235 256.219 40.9929 256.219 40.6977C256.218 40.4011 256.459 40.159 256.754 40.159Z" fill="white"/>
<path d="M278.23 96.801H280.59V94.435C280.59 94.1397 280.831 93.8976 281.126 93.8976C281.42 93.8976 281.662 94.1397 281.662 94.435V96.801H284.022C284.317 96.801 284.558 97.0431 284.558 97.3384C284.558 97.6336 284.317 97.8757 284.022 97.8757H281.662V100.242C281.662 100.537 281.42 100.779 281.126 100.779C280.831 100.779 280.59 100.537 280.59 100.242V97.8757H278.23C277.935 97.8757 277.694 97.6336 277.694 97.3384C277.694 97.0431 277.935 96.801 278.23 96.801Z" fill="white"/>
<path d="M39.9327 370.822H42.2928V368.456C42.2928 368.161 42.5343 367.919 42.8288 367.919C43.1233 367.919 43.3648 368.161 43.3648 368.456V370.822H45.7249C46.0194 370.822 46.2609 371.064 46.2609 371.36C46.2609 371.655 46.0194 371.897 45.7249 371.897H43.3648V374.263C43.3648 374.558 43.1233 374.8 42.8288 374.8C42.5343 374.8 42.2928 374.558 42.2928 374.263V371.897H39.9327C39.6382 371.897 39.3967 371.655 39.3967 371.36C39.3967 371.064 39.6368 370.822 39.9327 370.822Z" fill="white"/>
<path d="M205.467 132.242H207.828V129.875C207.828 129.58 208.069 129.338 208.364 129.338C208.658 129.338 208.9 129.58 208.9 129.875V132.242H211.26C211.554 132.242 211.796 132.484 211.796 132.779C211.796 133.074 211.554 133.316 211.26 133.316H208.9V135.682C208.9 135.977 208.658 136.22 208.364 136.22C208.069 136.22 207.828 135.977 207.828 135.682V133.316H205.467C205.173 133.316 204.931 133.074 204.931 132.779C204.93 132.484 205.172 132.242 205.467 132.242Z" fill="white"/>
<path d="M150.87 168.089H153.23V165.723C153.23 165.428 153.471 165.186 153.766 165.186C154.06 165.186 154.302 165.428 154.302 165.723V168.089H156.662C156.957 168.089 157.198 168.331 157.198 168.626C157.198 168.922 156.957 169.164 156.662 169.164H154.302V171.53C154.302 171.825 154.06 172.067 153.766 172.067C153.471 172.067 153.23 171.825 153.23 171.53V169.164H150.87C150.575 169.164 150.334 168.922 150.334 168.626C150.334 168.331 150.575 168.089 150.87 168.089Z" fill="white"/>
<path d="M117.157 351.674H119.517V349.308C119.517 349.013 119.758 348.771 120.053 348.771C120.347 348.771 120.589 349.013 120.589 349.308V351.674H122.949C123.243 351.674 123.485 351.916 123.485 352.212C123.485 352.507 123.243 352.749 122.949 352.749H120.589V355.115C120.589 355.41 120.347 355.652 120.053 355.652C119.758 355.652 119.517 355.41 119.517 355.115V352.749H117.157C116.862 352.749 116.621 352.507 116.621 352.212C116.621 351.916 116.861 351.674 117.157 351.674Z" fill="white"/>
<path d="M184.775 227.211H187.136V224.845C187.136 224.55 187.377 224.308 187.672 224.308C187.966 224.308 188.208 224.55 188.208 224.845V227.211H190.568C190.862 227.211 191.104 227.454 191.104 227.749C191.104 228.044 190.862 228.286 190.568 228.286H188.208V230.652C188.208 230.947 187.966 231.19 187.672 231.19C187.377 231.19 187.136 230.947 187.136 230.652V228.286H184.775C184.481 228.286 184.239 228.044 184.239 227.749C184.238 227.454 184.48 227.211 184.775 227.211Z" fill="white"/>
<path d="M126.159 23.7628H128.519V21.3967C128.519 21.1014 128.761 20.8594 129.055 20.8594C129.35 20.8594 129.591 21.1014 129.591 21.3967V23.7628H131.952C132.246 23.7628 132.488 24.0048 132.488 24.3001C132.488 24.5953 132.246 24.8374 131.952 24.8374H129.591V27.2035C129.591 27.4987 129.35 27.7408 129.055 27.7408C128.761 27.7408 128.519 27.4987 128.519 27.2035V24.8374H126.159C125.865 24.8374 125.623 24.5953 125.623 24.3001C125.623 24.0048 125.865 23.7628 126.159 23.7628Z" fill="white"/>
<path d="M346.967 129.547H349.327V127.181C349.327 126.886 349.569 126.644 349.863 126.644C350.158 126.644 350.399 126.886 350.399 127.181V129.547H352.761C353.055 129.547 353.297 129.789 353.297 130.084C353.297 130.38 353.055 130.622 352.761 130.622H350.401V132.988C350.401 133.283 350.159 133.525 349.865 133.525C349.57 133.525 349.329 133.283 349.329 132.988V130.622H346.968C346.674 130.622 346.432 130.38 346.432 130.084C346.431 129.789 346.673 129.547 346.967 129.547Z" fill="white"/>
<path d="M84.1107 358.038C53.777 358.038 29.1867 280.291 29.1867 184.384C29.1867 88.4777 53.777 10.7301 84.1107 10.7301C114.444 10.7301 139.035 88.4777 139.035 184.384C139.035 280.291 114.444 358.038 84.1107 358.038Z" fill="white"/>
<path d="M89.3881 335.951C64.2375 335.951 43.8489 268.092 43.8489 184.384C43.8489 100.676 64.2375 32.8174 89.3881 32.8174C114.539 32.8174 134.927 100.676 134.927 184.384C134.927 268.092 114.539 335.951 89.3881 335.951Z" fill="#1E4F9E"/>
<path d="M94.4109 312.703C74.7519 312.703 58.8151 255.253 58.8151 184.384C58.8151 113.516 74.7519 56.0658 94.4109 56.0658C114.07 56.0658 130.007 113.516 130.007 184.384C130.007 255.253 114.07 312.703 94.4109 312.703Z" fill="white"/>
<path d="M96.8135 291.815C81.3763 291.815 68.862 243.717 68.862 184.384C68.862 125.052 81.3763 76.9535 96.8135 76.9535C112.251 76.9535 124.765 125.052 124.765 184.384C124.765 243.717 112.251 291.815 96.8135 291.815Z" fill="#1E4F9E"/>
<path d="M100.292 262.208C90.0481 262.208 81.7438 227.365 81.7438 184.384C81.7438 141.403 90.0481 106.561 100.292 106.561C110.536 106.561 118.84 141.403 118.84 184.384C118.84 227.365 110.536 262.208 100.292 262.208Z" fill="white"/>
<path d="M104.027 225.504C98.6142 225.504 94.2265 207.094 94.2265 184.384C94.2265 161.674 98.6142 143.265 104.027 143.265C109.439 143.265 113.827 161.674 113.827 184.384C113.827 207.094 109.439 225.504 104.027 225.504Z" fill="#1E4F9E"/>
<path opacity="0.25" d="M73.8383 13.7651C73.5584 14.5325 73.2891 15.3053 73.0357 16.0886C67.6534 26.3589 65.1858 37.4272 65.6315 49.2934C65.6315 51.3696 65.6183 53.447 65.5944 55.5231C65.4007 72.4487 64.476 89.353 63.753 106.261C63.0406 122.937 62.5179 139.642 63.1494 156.329C63.2157 158.083 63.2833 159.838 63.4439 161.587C64.2823 170.721 65.5745 179.822 67.0776 188.87C67.5658 191.808 68.2769 194.709 69.2162 197.534C69.455 198.252 69.7084 198.966 69.9777 199.674C72.8208 207.167 76.493 215.293 79.3334 221.987C79.8853 223.289 80.4796 224.571 81.131 225.827C82.3966 228.265 83.86 230.6 85.5183 232.79C90.3169 239.124 95.0464 245.53 100.096 251.67C100.519 252.185 100.954 252.69 101.4 253.185C102.282 254.164 103.207 255.104 104.174 255.999C104.653 256.442 105.141 256.875 105.64 257.293C111.7 262.395 118.17 267.101 124.416 271.878C125.416 272.643 126.445 273.366 127.511 274.035C128.57 274.701 129.659 275.314 130.778 275.87C130.785 275.874 130.793 275.878 130.801 275.882C121.113 325.199 103.825 358.037 84.112 358.037C53.7778 358.037 29.188 280.289 29.188 184.383C29.1867 99.5794 48.4141 28.9737 73.8383 13.7651Z" fill="#1E4F9E"/>
<path d="M223.221 258.342C223.221 258.342 207.286 245.112 204.755 241.097C202.224 237.081 197.395 206.707 197.395 206.707C197.395 206.707 203.73 205.213 205.032 207.517L213.315 238.056L225.82 243.849C225.82 243.849 228.375 252.956 223.221 258.342Z" fill="#CDD0D7"/>
<path d="M205.521 223.352C204.977 227.411 204.433 231.469 203.889 235.528C203.842 236.745 203.856 237.945 203.925 239.13C201.296 231.251 197.396 206.707 197.396 206.707C197.396 206.707 203.731 205.213 205.034 207.517L207.676 217.261C206.829 219.216 206.11 221.245 205.521 223.352Z" fill="#C5C7CF"/>
<path d="M203.882 206.812L203.278 204.422C203.278 204.422 204.283 203.201 204.504 201.912C204.726 200.624 206.286 197.707 206.286 197.707C206.286 197.707 205.599 195.929 204.65 196.826C203.702 197.724 200.892 197.505 199.761 198.305C198.631 199.106 196.631 198.03 195.305 199.195C193.98 200.36 193.813 201.327 194.696 202.741C195.578 204.155 197.355 204.993 197.355 204.993L198.278 208.06C198.522 208.872 199.324 209.384 200.162 209.265L202.461 208.936C203.469 208.791 204.132 207.802 203.882 206.812Z" fill="#EE9E78"/>
<path d="M238.229 237.526C238.229 237.526 238.96 236.458 237.063 236.496C235.166 236.534 227.884 238.928 227.485 239.589C227.085 240.248 225.511 241.453 227.189 242.754C228.868 244.053 235.898 241.593 238.229 237.526Z" fill="#BABABE"/>
<path d="M236.539 225.675C236.539 225.675 235.974 235.493 236.767 237.56C237.561 239.627 241.977 240.936 241.977 240.936C241.977 240.936 233.582 248.426 229.917 246.846C226.251 245.266 224.997 244.418 224.997 244.418C224.997 244.418 227.657 243.757 227.885 242.171C228.115 240.586 226.381 227.293 226.381 227.293L236.539 225.675Z" fill="#DF8867"/>
<path d="M219.622 220.579C219.622 220.579 219.196 226.594 219.425 228.726C219.655 230.858 223.709 234.781 224.761 235.529C225.813 236.278 227.595 236.201 227.595 236.201C227.595 236.201 233.568 233.409 234.583 232.059C235.596 230.709 237.804 224.615 237.804 224.615C237.804 224.615 240.514 216.704 239.329 214.41C238.145 212.116 234.468 207.118 229.093 207.537C223.717 207.957 221.983 208.328 221.025 212.256C220.606 213.985 219.622 220.579 219.622 220.579Z" fill="#EE9E78"/>
<path d="M221.324 214.737L224.818 216.929C224.818 216.929 225.243 216.917 225.293 216.392C225.344 215.867 223.135 214.063 222.449 214.05C221.76 214.038 221.248 214.413 221.324 214.737Z" fill="#31141E"/>
<path d="M234.287 218.188L230.027 216.282C230.027 216.282 229.771 215.875 230.231 215.496C230.691 215.117 233.776 216.057 234.222 216.695C234.666 217.334 234.638 218.053 234.287 218.188Z" fill="#31141E"/>
<path d="M221.199 218.125C221.124 217.378 221.494 216.729 222.026 216.674C222.558 216.62 223.051 217.182 223.127 217.929C223.202 218.676 222.832 219.325 222.3 219.379C221.768 219.433 221.275 218.872 221.199 218.125Z" fill="#2B203D"/>
<path d="M229.008 219.239C228.932 218.492 229.303 217.843 229.835 217.789C230.367 217.735 230.86 218.296 230.935 219.043C231.01 219.79 230.64 220.44 230.108 220.494C229.576 220.548 229.083 219.986 229.008 219.239Z" fill="#2B203D"/>
<path d="M226.276 226.36C225.785 226.19 225.206 225.939 225.085 225.505C224.989 225.165 225.192 224.79 225.707 224.357C226.601 223.607 226.693 219.069 226.653 217.384L227.039 217.397C227.039 217.413 227.074 218.954 226.969 220.592C226.824 222.824 226.494 224.171 225.987 224.597C225.576 224.941 225.399 225.227 225.46 225.448C225.52 225.662 225.82 225.856 226.405 226.06L226.276 226.36Z" fill="#EF7A6D"/>
<path d="M225.378 286.841C225.378 286.841 197.908 295.826 194.93 298.871C191.951 301.915 180.059 331.549 180.059 331.549C180.059 331.549 179.946 338.29 184.373 338.603C188.801 338.916 189.362 338.449 189.362 338.449L205.879 311.431C205.879 311.431 221.933 302.656 226.848 302.182C231.763 301.709 229.11 323.682 227.77 330.82C226.918 335.355 222.132 358.159 220.017 368.21C219.424 371.027 220.785 373.893 223.34 375.207L223.673 375.379C227.222 377.205 231.551 375.348 232.687 371.517C236.176 359.746 242.552 337.337 242.546 330.749C242.541 322.851 251.122 315.484 253.639 294.936C254.116 291.041 249.437 284.674 249.437 284.674L225.378 286.841Z" fill="#212A48"/>
<path d="M223.579 227.625L230.679 228.633C230.679 228.633 231.412 228.954 230.039 230.1C228.666 231.247 224.719 230.183 224.719 230.183C224.719 230.183 223.129 229.125 223.579 227.625Z" fill="#C0272D"/>
<path d="M223.598 227.515L230.679 228.633C230.679 228.633 231.43 228.843 230.189 229.213C228.947 229.583 224.963 228.741 224.963 228.741C224.963 228.741 223.298 228.128 223.598 227.515Z" fill="white"/>
<path d="M238.846 223.678C238.846 223.678 236.875 222.555 237.422 220.482C237.968 218.408 237.98 213.681 237.504 213.01C237.028 212.338 225.531 211.766 222.112 209.906L220.216 216.478L220.919 208.816C220.919 208.816 219.297 207.95 220.958 206.261C222.619 204.574 224.919 201.418 230.077 202.293C235.235 203.168 241.632 204.844 243.504 207.723C245.376 210.601 247.86 211.023 247.86 211.023L245.594 212.805C245.594 212.805 243.536 220.335 241.54 222.853L238.846 223.678Z" fill="#3D1623"/>
<path d="M243.504 207.724C241.632 204.846 235.234 203.169 230.077 202.294C224.919 201.419 222.619 204.575 220.958 206.263C219.297 207.95 220.919 208.818 220.919 208.818L220.911 208.876C221.364 209.183 221.756 209.562 222.08 209.995L222.111 209.907C225.529 211.768 237.026 212.339 237.503 213.011C237.515 213.027 237.525 213.048 237.537 213.07C238.601 212.374 239.916 212.05 241.167 212.261C242.918 212.558 244.229 213.709 244.878 215.2C245.321 213.808 245.594 212.808 245.594 212.808L247.86 211.025C247.86 211.024 245.376 210.603 243.504 207.724Z" fill="#31141E"/>
<path d="M225.378 286.841C225.378 286.841 225.707 289.8 229.174 291.173C232.64 292.544 237.561 292.972 239.999 292.113C242.438 291.254 249.347 286.769 249.497 284.602L249.44 284.674L225.378 286.841Z" fill="#262727"/>
<path d="M242.875 291.608L241.778 291.992L240.563 288.508L241.66 288.124L242.875 291.608Z" fill="#212A4E"/>
<path d="M230.633 292.276L229.526 291.92L230.652 288.406L231.758 288.762L230.633 292.276Z" fill="#212A4E"/>
<path d="M246.683 289.566L245.696 290.182L243.75 287.049L244.736 286.433L246.683 289.566Z" fill="#212A4E"/>
<path d="M183.934 331.445C183.934 331.445 170.084 337.132 165.556 335.367C165.556 335.367 160.069 335.987 160.487 339.319C160.903 342.65 164.114 344.861 166.493 345.821C168.871 346.783 180.474 344.623 180.474 344.623L181.72 343.789L181.621 345.411L185.403 345.309L190.484 334.938L183.934 331.445Z" fill="#643530"/>
<path d="M182.578 332.798C181.422 332.881 180.278 332.581 179.14 332.422C178.047 332.271 176.911 332.196 175.822 332.421C175.548 332.477 175.278 332.553 175.015 332.647C174.813 332.72 174.604 332.811 174.449 332.962C174.381 333.029 174.319 333.11 174.295 333.203C174.264 333.322 174.402 333.327 174.494 333.356C174.759 333.44 175.026 333.517 175.296 333.585C176.343 333.847 177.459 333.976 178.523 333.738C179.096 333.609 179.607 333.355 180.127 333.09C180.64 332.829 181.163 332.594 181.744 332.545C181.911 332.53 182.012 332.776 181.885 332.885C180.774 333.836 180.005 335.144 179.709 336.577C179.673 336.749 179.645 336.922 179.624 337.095C179.615 337.177 179.538 337.519 179.635 337.559C179.737 337.602 179.917 337.422 179.977 337.359C180.12 337.212 180.254 337.054 180.385 336.897C180.879 336.307 181.313 335.666 181.682 334.992C182.106 334.218 182.439 333.399 182.682 332.55C182.752 332.304 183.137 332.409 183.065 332.657C182.581 334.35 181.736 335.927 180.594 337.265C180.358 337.542 180.062 337.953 179.656 337.958C179.49 337.961 179.337 337.875 179.258 337.728C179.162 337.554 179.199 337.334 179.219 337.147C179.307 336.325 179.542 335.527 179.907 334.786C180.318 333.953 180.898 333.205 181.601 332.602C181.647 332.715 181.695 332.829 181.741 332.943C181.188 332.989 180.688 333.247 180.201 333.497C179.694 333.756 179.185 333.997 178.625 334.122C177.48 334.379 176.285 334.247 175.158 333.963C174.869 333.889 174.583 333.807 174.3 333.714C174.075 333.639 173.873 333.512 173.882 333.243C173.901 332.732 174.433 332.438 174.848 332.282C175.965 331.859 177.195 331.825 178.37 331.933C179.05 331.996 179.722 332.105 180.393 332.219C181.115 332.341 181.84 332.45 182.573 332.397C182.835 332.38 182.833 332.779 182.578 332.798Z" fill="#3F1D1B"/>
<path d="M222.868 372.272C222.868 372.272 210.55 380.796 205.751 380.042C205.751 380.042 200.524 381.824 201.641 384.989C202.76 388.155 206.367 389.626 208.894 390.055C211.422 390.485 222.296 385.888 222.296 385.888L223.335 384.807L223.584 386.414L227.257 385.503L230.008 374.282L222.868 372.272Z" fill="#643530"/>
<path d="M221.843 373.881C220.707 374.218 219.501 374.165 218.331 374.26C217.259 374.348 216.164 374.514 215.173 374.953C214.928 375.061 214.69 375.186 214.462 375.327C214.251 375.457 214.026 375.608 213.9 375.827C213.868 375.882 213.778 376.065 213.831 376.129C213.877 376.186 214.104 376.169 214.17 376.174C214.436 376.197 214.702 376.211 214.969 376.217C216.017 376.238 217.105 376.124 218.065 375.675C218.603 375.424 219.051 375.062 219.508 374.69C219.948 374.329 220.403 373.989 220.952 373.819C221.106 373.771 221.284 373.969 221.177 374.111C220.304 375.267 219.825 376.696 219.834 378.145C219.835 378.327 219.845 378.51 219.86 378.692C219.868 378.774 219.862 379.119 219.955 379.163C220.05 379.207 220.209 378.982 220.247 378.925C220.357 378.753 220.452 378.57 220.548 378.389C220.907 377.706 221.196 376.989 221.417 376.249C221.669 375.396 221.825 374.517 221.882 373.63C221.898 373.375 222.296 373.373 222.28 373.63C222.168 375.399 221.677 377.134 220.837 378.695C220.663 379.016 220.463 379.469 220.063 379.554C219.622 379.648 219.518 379.183 219.481 378.855C219.387 378.04 219.449 377.206 219.646 376.411C219.87 375.508 220.274 374.651 220.834 373.909C220.909 374.006 220.984 374.105 221.058 374.202C220.536 374.364 220.105 374.71 219.688 375.053C219.257 375.408 218.822 375.751 218.315 375.995C217.276 376.493 216.11 376.638 214.969 376.613C214.675 376.606 214.381 376.589 214.088 376.564C213.844 376.543 213.556 376.532 213.458 376.262C213.266 375.73 213.824 375.256 214.213 375.01C215.205 374.383 216.363 374.094 217.515 373.945C218.173 373.86 218.835 373.821 219.498 373.789C220.252 373.754 221.008 373.711 221.735 373.496C221.983 373.424 222.088 373.808 221.843 373.881Z" fill="#3F1D1B"/>
<path d="M226.142 290.834L225.207 290.141L227.397 287.174L228.331 287.867L226.142 290.834Z" fill="#212A4E"/>
<path d="M237.553 220.294C236.72 220.379 235.93 220.253 235.221 219.964C235.678 221.469 237.323 221.886 237.323 221.886L239.702 220.375C239.837 220.057 239.958 219.684 240.066 219.269C239.336 219.829 238.466 220.201 237.553 220.294Z" fill="#31141E"/>
<path d="M226.108 339.057C227.584 343.648 230.035 347.747 233.459 351.355C234.652 352.814 235.933 354.143 237.301 355.341C235.682 361.298 233.987 367.143 232.689 371.519C231.554 375.352 227.224 377.208 223.676 375.381L223.343 375.21C220.788 373.896 219.427 371.03 220.02 368.213C221.495 361.19 224.274 347.949 226.108 339.057Z" fill="#151E39"/>
<path d="M180.059 331.55C180.059 331.55 183.386 323.257 186.963 314.994C189.045 317.54 191.571 319.665 194.54 321.37C195.805 322.228 197.108 322.968 198.445 323.591L189.362 338.449C189.362 338.449 188.801 338.916 184.373 338.603C179.946 338.292 180.059 331.55 180.059 331.55Z" fill="#151E39"/>
<path d="M238.261 221.905C238.261 221.905 239.27 220.007 240.827 221.257C242.385 222.506 241.518 225.314 240.401 226.109C239.284 226.904 237.243 228.528 236.892 228.272C236.542 228.015 236.257 227.376 236.257 227.376L238.261 221.905Z" fill="#EE9E78"/>
<path d="M226.291 242.441L231.006 247.028L239.556 240.109L246.577 242.624C249.769 243.767 251.723 246.999 251.255 250.365C250.412 256.42 249.249 265.4 249.376 267.907C249.498 270.294 250.244 275.94 250.8 279.934C251.175 282.633 249.76 285.261 247.303 286.424C244.221 287.885 240.03 289.574 236.97 289.666C234.449 289.74 231.677 289.421 229.43 289.057C226.737 288.62 224.605 286.54 224.087 283.855C222.689 276.594 220.091 262.189 220.424 256.986C220.878 249.912 223.401 244.523 223.401 244.523L226.291 242.441Z" fill="#D9DDE9"/>
<path d="M249.376 267.906C249.355 267.477 249.371 266.858 249.416 266.097C247.032 269.194 244.089 271.54 240.588 273.131C237.158 275.457 233.33 276.775 229.102 277.087C226.985 277.317 224.9 277.335 222.848 277.148C223.294 279.668 223.73 281.996 224.089 283.854C224.607 286.544 226.746 288.62 229.444 289.058C231.689 289.421 234.454 289.74 236.97 289.664C240.034 289.573 244.233 287.879 247.316 286.416C249.768 285.254 251.174 282.623 250.8 279.931C250.244 275.937 249.498 270.294 249.376 267.906Z" fill="#CDD0D7"/>
<path d="M230.893 247.009L227.469 246.023L225.115 247.655L227.19 243.515L230.893 247.009Z" fill="#BABABE"/>
<path d="M231.729 247.443L231.976 244.1L238.231 236.632L241.784 240.956L236.127 248.558L231.729 247.443Z" fill="#D9DDE9"/>
<path d="M227.795 239.35L226.141 241.09C225.545 242.908 225.115 247.654 225.115 247.654L227.104 244.5L230.999 246.97C231 246.97 227.039 243.43 227.795 239.35Z" fill="#D9DDE9"/>
<path d="M236.327 246.793L231.94 244.156L231.085 246.987L233.118 245.979L236.327 246.793Z" fill="#BABABE"/>
<path d="M241.875 254.401L233.595 255.325L233.467 254.167L241.747 253.243L241.875 254.401Z" fill="#CDD0D7"/>
<path d="M237.213 293.218L233.224 293.229C232.855 293.23 232.551 292.928 232.55 292.557L232.545 290.602C232.543 290.232 232.845 289.928 233.215 289.926L237.204 289.916C237.573 289.914 237.877 290.216 237.878 290.587L237.883 292.542C237.885 292.914 237.583 293.217 237.213 293.218Z" fill="#CDD0D7"/>
<path d="M236.998 292.904L233.438 292.914C233.123 292.915 232.864 292.657 232.863 292.342L232.859 290.771C232.858 290.456 233.115 290.196 233.43 290.195L236.99 290.186C237.305 290.184 237.564 290.442 237.565 290.758L237.569 292.328C237.57 292.645 237.313 292.903 236.998 292.904Z" fill="#262727"/>
<g opacity="0.69">
<mask id="mask0_375_1167" style="mask-type:luminance" maskUnits="userSpaceOnUse" x="219" y="214" width="8" height="8">
<path d="M222.109 215.102C223.785 214.56 225.58 215.481 226.119 217.159C226.658 218.837 225.736 220.636 224.061 221.178C222.386 221.72 220.591 220.8 220.052 219.122C219.513 217.444 220.434 215.644 222.109 215.102Z" fill="white"/>
</mask>
<g mask="url(#mask0_375_1167)">
<path opacity="0.43" d="M219.939 218.648C219.666 216.907 220.854 215.272 222.593 214.998C224.331 214.723 225.962 215.913 226.234 217.654C226.507 219.396 225.319 221.031 223.58 221.305C221.842 221.579 220.211 220.39 219.939 218.648Z" fill="white"/>
</g>
<mask id="mask1_375_1167" style="mask-type:luminance" maskUnits="userSpaceOnUse" x="216" y="213" width="8" height="7">
<path d="M221.867 214.27C223.213 215.405 223.386 217.419 222.253 218.769C221.121 220.119 219.111 220.294 217.765 219.159C216.419 218.024 216.246 216.009 217.378 214.659C218.511 213.309 220.52 213.135 221.867 214.27Z" fill="white"/>
</mask>
<g mask="url(#mask1_375_1167)">
<path opacity="0.43" d="M225.632 214.103L218.501 220.318L217.816 219.527L224.947 213.312L225.632 214.103Z" fill="white"/>
</g>
<mask id="mask2_375_1167" style="mask-type:luminance" maskUnits="userSpaceOnUse" x="219" y="215" width="7" height="7">
<path d="M224.453 215.767C225.799 216.902 225.972 218.916 224.84 220.266C223.707 221.616 221.698 221.791 220.351 220.656C219.005 219.521 218.832 217.506 219.965 216.156C221.097 214.806 223.107 214.632 224.453 215.767Z" fill="white"/>
</mask>
<g mask="url(#mask2_375_1167)">
<path opacity="0.43" d="M226.55 215.225L219.419 221.44L218.927 220.872L226.058 214.657L226.55 215.225Z" fill="white"/>
</g>
</g>
<g opacity="0.69">
<mask id="mask3_375_1167" style="mask-type:luminance" maskUnits="userSpaceOnUse" x="227" y="216" width="8" height="7">
<path d="M229.971 222.675C228.288 222.157 227.341 220.371 227.856 218.686C228.371 217 230.153 216.054 231.836 216.571C233.518 217.089 234.465 218.875 233.95 220.561C233.436 222.246 231.654 223.193 229.971 222.675Z" fill="white"/>
</mask>
<g mask="url(#mask3_375_1167)">
<path opacity="0.43" d="M230.443 222.776C228.703 222.514 227.503 220.888 227.763 219.145C228.023 217.401 229.645 216.2 231.386 216.462C233.126 216.724 234.326 218.35 234.066 220.093C233.806 221.837 232.184 223.038 230.443 222.776Z" fill="white"/>
</g>
<mask id="mask4_375_1167" style="mask-type:luminance" maskUnits="userSpaceOnUse" x="224" y="214" width="7" height="8">
<path d="M225.929 215.479C227.413 214.531 229.382 214.969 230.327 216.457C231.271 217.945 230.833 219.918 229.349 220.866C227.865 221.813 225.896 221.375 224.951 219.888C224.007 218.4 224.444 216.426 225.929 215.479Z" fill="white"/>
</mask>
<g mask="url(#mask4_375_1167)">
<path opacity="0.43" d="M233.46 215.565L226.329 221.78L225.643 220.989L232.774 214.774L233.46 215.565Z" fill="white"/>
</g>
<mask id="mask5_375_1167" style="mask-type:luminance" maskUnits="userSpaceOnUse" x="227" y="216" width="7" height="7">
<path d="M228.515 216.975C230 216.028 231.969 216.466 232.913 217.954C233.858 219.441 233.42 221.415 231.936 222.363C230.452 223.31 228.483 222.872 227.538 221.384C226.594 219.897 227.031 217.923 228.515 216.975Z" fill="white"/>
</mask>
<g mask="url(#mask5_375_1167)">
<path opacity="0.43" d="M234.377 216.686L227.246 222.901L226.754 222.333L233.885 216.118L234.377 216.686Z" fill="white"/>
</g>
</g>
<path d="M220.418 219.981C219.413 218.511 219.786 216.502 221.253 215.494C222.719 214.485 224.723 214.86 225.729 216.33C226.735 217.8 226.361 219.809 224.895 220.818C223.428 221.826 221.424 221.452 220.418 219.981Z" stroke="#818387" stroke-width="3" stroke-miterlimit="10"/>
<path d="M227.604 219.803L226.143 219.53L226.415 218.065L227.876 218.338L227.604 219.803Z" fill="#402312"/>
<path d="M234.271 219.047L235.731 219.319L235.556 220.261C235.556 220.261 234.559 220.399 234.129 220.969L234.271 219.047Z" fill="#402312"/>
<path d="M220.285 216.435L219.137 216.22L218.962 217.162C218.962 217.162 219.642 217.614 219.772 218.287L220.285 216.435Z" fill="#402312"/>
<path d="M235.731 219.321L238.366 219.091L238.028 219.749L235.556 220.262L235.731 219.321Z" fill="#8B6339"/>
<path d="M228.352 221.355C227.346 219.885 227.72 217.876 229.186 216.867C230.653 215.859 232.657 216.233 233.663 217.704C234.668 219.174 234.295 221.183 232.828 222.191C231.362 223.2 229.358 222.825 228.352 221.355Z" stroke="#818387" stroke-width="3" stroke-miterlimit="10"/>
<path d="M250.56 256.434C250.56 256.434 239.386 238.978 238.191 234.382C236.996 229.785 240.798 197.769 240.798 197.769C240.798 197.769 248.12 198.617 248.664 201.207L247.268 234.09L254.506 242.618C254.506 242.62 257.101 252.874 250.56 256.434Z" fill="#D9DDE9"/>
<path d="M247.122 210.722C243.454 214.425 240.518 218.557 238.316 223.118C239.079 212.237 240.797 197.769 240.797 197.769C240.797 197.769 248.119 198.617 248.662 201.207L248.298 209.811L247.122 210.722Z" fill="#CDD0D7"/>
<path d="M241.502 199.055C241.502 199.055 241.826 195.644 241.049 194.714C240.271 193.785 240.602 191.024 241.362 190.793C242.122 190.563 246.061 189.87 246.942 188.939C247.823 188.008 248.863 181.539 248.863 181.539C248.863 181.539 250.215 179.966 250.627 181.339C250.627 181.339 251.868 181.061 251.897 182.383C251.897 182.383 252.499 182.422 252.548 183.812C252.548 183.812 253.178 184.435 252.767 185.52C252.767 185.52 252.795 190.76 252.156 192.062C251.515 193.364 246.585 197.074 246.524 196.87C246.463 196.667 247.506 202.339 247.506 202.339C247.506 202.339 243.685 202.387 241.502 199.055Z" fill="#EE9E78"/>
<path d="M104.245 182.25L177.72 183.068L177.649 189.434L104.174 188.616L104.245 182.25Z" fill="#212757"/>
<path d="M197.461 174.295C211.96 175.82 279.904 184.762 279.904 184.762L279.881 186.843L279.87 187.945L279.847 190.026C279.847 190.026 211.721 197.454 197.192 198.656C186.374 199.552 162.027 196.011 150.294 194.144C146.521 193.543 143.758 190.26 143.8 186.43L143.812 185.329C143.854 181.498 146.689 178.278 150.476 177.761C162.247 176.156 186.666 173.158 197.461 174.295Z" fill="#2F3A74"/>
<path d="M214.017 176.269L219.271 183.246C224.265 188.33 230.019 192.141 236.533 194.68C219.957 196.434 203.508 198.134 197.192 198.656C186.374 199.552 162.027 196.011 150.294 194.144C146.521 193.543 143.758 190.26 143.8 186.43L143.812 185.329C143.854 181.498 146.69 178.278 150.476 177.761C162.249 176.156 186.667 173.158 197.462 174.294C200.729 174.638 206.711 175.359 214.017 176.269Z" fill="#212757"/>
<path d="M191.88 185.865C191.844 190.323 192.368 194.633 193.449 198.799C181.385 198.841 160.434 195.762 150.002 194.097C146.396 193.521 143.756 190.385 143.796 186.725L143.815 185.035C143.856 181.374 146.565 178.297 150.183 177.802C160.552 176.383 181.274 173.807 193.386 174.061C192.274 177.821 191.771 181.755 191.88 185.865Z" fill="#F1F1F2"/>
<path d="M170.702 197.038C166.791 190.909 161.885 185.645 155.984 181.245C154.745 179.943 153.46 178.709 152.132 177.537C155.541 177.081 159.756 176.545 164.289 176.031C168.342 184.871 174.071 192.255 181.476 198.183C177.982 197.878 174.317 197.478 170.702 197.038Z" fill="#E6E7E8"/>
<path d="M279.648 187.402L309.583 187.736C309.583 187.736 318.125 194.627 314.864 202.379C311.603 210.132 302.967 211.676 298.899 210.4C294.83 209.125 279.623 189.691 279.623 189.691L279.648 187.402Z" fill="#212757"/>
<path d="M279.648 187.382L309.583 187.716C309.583 187.716 318.277 181.017 315.187 173.194C312.098 165.371 303.499 163.635 299.402 164.819C295.305 166.002 279.672 185.093 279.672 185.093L279.648 187.382Z" fill="#2C346B"/>
</g>
<defs>
<clipPath id="clip0_375_1167">
<rect width="398" height="399" fill="white" transform="matrix(-1 0 0 1 398 0.669983)"/>
</clipPath>
</defs>
</svg>
